<svg id="svg" version="1.1" xmlns="http://www.w3.org/2000/svg" xmlns:xlink="http://www.w3.org/1999/xlink" width="400" height="400" viewBox="0, 0, 400,400"><g id="svgg"><path id="path0" d="M268.900 0.295 C 267.745 0.376,266.800 0.612,266.800 0.821 C 266.800 1.029,266.091 1.200,265.224 1.200 C 264.357 1.200,263.536 1.380,263.400 1.600 C 263.264 1.820,262.533 2.000,261.776 2.000 C 261.019 2.000,260.400 2.180,260.400 2.400 C 260.400 2.620,259.950 2.800,259.400 2.800 C 258.850 2.800,258.400 2.980,258.400 3.200 C 258.400 3.420,257.860 3.600,257.200 3.600 C 256.540 3.600,256.000 3.780,256.000 4.000 C 256.000 4.220,255.460 4.400,254.800 4.400 C 254.140 4.400,253.600 4.580,253.600 4.800 C 253.600 5.020,253.240 5.200,252.800 5.200 C 252.360 5.200,252.000 5.380,252.000 5.600 C 252.000 5.820,251.640 6.000,251.200 6.000 C 250.760 6.000,250.400 6.180,250.400 6.400 C 250.400 6.620,249.961 6.800,249.424 6.800 C 248.887 6.800,248.336 6.980,248.200 7.200 C 248.064 7.420,247.603 7.600,247.176 7.600 C 246.749 7.600,246.400 7.780,246.400 8.000 C 246.400 8.220,246.126 8.400,245.792 8.400 C 245.458 8.400,244.471 8.850,243.600 9.400 C 242.729 9.950,241.832 10.400,241.608 10.400 C 241.384 10.400,241.200 10.580,241.200 10.800 C 241.200 11.020,240.840 11.200,240.400 11.200 C 239.960 11.200,239.600 11.380,239.600 11.600 C 239.600 11.820,239.364 12.000,239.075 12.000 C 238.787 12.000,238.164 12.360,237.692 12.800 C 237.220 13.240,236.596 13.600,236.305 13.600 C 236.014 13.600,235.517 13.960,235.200 14.400 C 234.883 14.840,234.420 15.200,234.171 15.200 C 233.922 15.200,233.154 15.740,232.463 16.400 C 231.772 17.060,231.012 17.600,230.772 17.600 C 230.533 17.600,229.646 18.320,228.800 19.200 C 227.954 20.080,227.165 20.800,227.046 20.800 C 226.518 20.800,216.000 31.112,216.000 31.630 C 216.000 31.833,215.280 32.741,214.400 33.648 C 213.520 34.555,212.800 35.505,212.800 35.760 C 212.800 36.015,212.440 36.483,212.000 36.800 C 211.560 37.117,211.200 37.614,211.200 37.905 C 211.200 38.196,210.840 38.820,210.400 39.292 C 209.960 39.764,209.600 40.387,209.600 40.675 C 209.600 40.964,209.432 41.200,209.227 41.200 C 209.022 41.200,208.728 41.605,208.573 42.100 C 208.419 42.595,208.181 43.090,208.046 43.200 C 207.659 43.514,206.374 45.726,206.129 46.500 C 206.007 46.885,205.748 47.200,205.553 47.200 C 205.359 47.200,205.200 47.560,205.200 48.000 C 205.200 48.440,205.020 48.800,204.800 48.800 C 204.580 48.800,204.400 49.160,204.400 49.600 C 204.400 50.040,204.220 50.400,204.000 50.400 C 203.780 50.400,203.600 50.760,203.600 51.200 C 203.600 51.640,203.420 52.000,203.200 52.000 C 202.980 52.000,202.800 52.360,202.800 52.800 C 202.800 53.240,202.620 53.600,202.400 53.600 C 202.180 53.600,202.000 54.039,202.000 54.576 C 202.000 55.113,201.820 55.664,201.600 55.800 C 201.380 55.936,201.200 56.397,201.200 56.824 C 201.200 57.251,201.020 57.600,200.800 57.600 C 200.580 57.600,200.400 57.960,200.400 58.400 C 200.400 58.840,200.220 59.200,200.000 59.200 C 199.780 59.200,199.600 59.729,199.600 60.376 C 199.600 61.023,199.420 61.664,199.200 61.800 C 198.980 61.936,198.800 62.476,198.800 63.000 C 198.800 63.524,198.620 64.064,198.400 64.200 C 198.180 64.336,198.000 64.876,198.000 65.400 C 198.000 65.924,197.820 66.464,197.600 66.600 C 197.380 66.736,197.200 67.557,197.200 68.424 C 197.200 69.291,197.020 70.000,196.800 70.000 C 196.580 70.000,196.400 70.900,196.400 72.000 C 196.400 73.100,196.220 74.000,196.000 74.000 C 195.769 74.000,195.600 75.259,195.600 76.976 C 195.600 78.613,195.420 80.064,195.200 80.200 C 194.963 80.346,194.800 82.796,194.800 86.200 C 194.800 89.604,194.963 92.054,195.200 92.200 C 195.420 92.336,195.600 93.259,195.600 94.252 C 195.600 96.116,196.251 97.200,197.371 97.200 C 197.717 97.200,198.000 97.380,198.000 97.600 C 198.000 97.851,200.467 98.000,204.600 98.000 C 208.733 98.000,211.200 97.851,211.200 97.600 C 211.200 97.380,212.089 97.200,213.176 97.200 C 214.263 97.200,215.264 97.020,215.400 96.800 C 215.536 96.580,216.436 96.400,217.400 96.400 C 218.364 96.400,219.264 96.220,219.400 96.000 C 219.536 95.780,220.177 95.600,220.824 95.600 C 221.471 95.600,222.000 95.420,222.000 95.200 C 222.000 94.980,222.540 94.800,223.200 94.800 C 223.860 94.800,224.400 94.620,224.400 94.400 C 224.400 94.180,224.940 94.000,225.600 94.000 C 226.260 94.000,226.800 93.820,226.800 93.600 C 226.800 93.380,227.160 93.200,227.600 93.200 C 228.040 93.200,228.400 93.020,228.400 92.800 C 228.400 92.580,228.760 92.400,229.200 92.400 C 229.640 92.400,230.000 92.220,230.000 92.000 C 230.000 91.780,230.469 91.600,231.042 91.600 C 231.913 91.600,237.354 89.109,238.000 88.414 C 238.110 88.296,238.740 87.930,239.400 87.602 C 240.060 87.274,240.891 86.689,241.247 86.303 C 241.603 85.916,242.099 85.600,242.351 85.600 C 242.602 85.600,243.372 85.060,244.063 84.400 C 244.754 83.740,245.522 83.200,245.771 83.200 C 246.020 83.200,246.483 82.840,246.800 82.400 C 247.117 81.960,247.593 81.600,247.858 81.600 C 248.122 81.600,249.614 80.340,251.172 78.800 C 252.731 77.260,254.119 76.000,254.257 76.000 C 254.394 76.000,255.428 74.977,256.554 73.727 C 257.679 72.477,259.365 70.682,260.300 69.738 C 261.235 68.793,262.000 67.819,262.000 67.571 C 262.000 67.323,262.540 66.617,263.200 66.000 C 263.860 65.383,264.400 64.663,264.400 64.400 C 264.400 64.137,264.940 63.417,265.600 62.800 C 266.260 62.183,266.800 61.391,266.800 61.040 C 266.800 60.688,266.980 60.400,267.200 60.400 C 267.420 60.400,267.600 60.080,267.600 59.688 C 267.600 59.297,267.960 58.717,268.400 58.400 C 268.840 58.083,269.200 57.671,269.200 57.484 C 269.200 57.297,269.708 56.392,270.329 55.472 C 272.052 52.922,275.200 46.165,275.200 45.018 C 275.200 44.458,275.380 44.000,275.600 44.000 C 275.820 44.000,276.000 43.640,276.000 43.200 C 276.000 42.760,276.180 42.400,276.400 42.400 C 276.620 42.400,276.800 41.950,276.800 41.400 C 276.800 40.850,276.980 40.400,277.200 40.400 C 277.420 40.400,277.600 39.961,277.600 39.424 C 277.600 38.887,277.780 38.336,278.000 38.200 C 278.220 38.064,278.400 37.423,278.400 36.776 C 278.400 36.129,278.580 35.600,278.800 35.600 C 279.020 35.600,279.200 35.071,279.200 34.424 C 279.200 33.777,279.380 33.136,279.600 33.000 C 279.820 32.864,280.000 32.133,280.000 31.376 C 280.000 30.619,280.180 30.000,280.400 30.000 C 280.620 30.000,280.800 29.100,280.800 28.000 C 280.800 26.900,280.980 26.000,281.200 26.000 C 281.420 26.000,281.600 25.021,281.600 23.824 C 281.600 22.627,281.780 21.536,282.000 21.400 C 282.926 20.828,282.496 1.577,281.539 0.747 C 280.674 -0.003,275.702 -0.181,268.900 0.295 M263.780 94.368 C 263.571 94.570,262.230 94.832,260.800 94.950 C 256.477 95.308,254.400 95.661,254.400 96.040 C 254.400 96.238,253.680 96.400,252.800 96.400 C 251.920 96.400,251.200 96.580,251.200 96.800 C 251.200 97.020,250.401 97.200,249.424 97.200 C 248.447 97.200,247.536 97.380,247.400 97.600 C 247.264 97.820,246.623 98.000,245.976 98.000 C 245.329 98.000,244.800 98.180,244.800 98.400 C 244.800 98.620,244.361 98.800,243.824 98.800 C 243.287 98.800,242.736 98.980,242.600 99.200 C 242.464 99.420,241.913 99.600,241.376 99.600 C 240.839 99.600,240.400 99.780,240.400 100.000 C 240.400 100.220,239.860 100.400,239.200 100.400 C 238.540 100.400,238.000 100.580,238.000 100.800 C 238.000 101.020,237.460 101.200,236.800 101.200 C 236.140 101.200,235.600 101.380,235.600 101.600 C 235.600 101.820,235.060 102.000,234.400 102.000 C 233.740 102.000,233.200 102.180,233.200 102.400 C 233.200 102.620,232.761 102.800,232.224 102.800 C 231.687 102.800,231.136 102.980,231.000 103.200 C 230.864 103.420,230.403 103.600,229.976 103.600 C 229.549 103.600,229.200 103.780,229.200 104.000 C 229.200 104.220,228.761 104.400,228.224 104.400 C 227.687 104.400,227.136 104.580,227.000 104.800 C 226.864 105.020,226.403 105.200,225.976 105.200 C 225.549 105.200,225.200 105.380,225.200 105.600 C 225.200 105.820,224.750 106.000,224.200 106.000 C 223.650 106.000,223.200 106.180,223.200 106.400 C 223.200 106.620,222.660 106.800,222.000 106.800 C 221.340 106.800,220.800 106.980,220.800 107.200 C 220.800 107.420,220.470 107.600,220.067 107.600 C 219.663 107.600,219.198 107.735,219.034 107.900 C 218.869 108.065,217.894 108.402,216.867 108.650 C 215.204 109.051,212.502 109.934,210.200 110.829 C 206.889 112.116,195.380 112.062,194.573 110.756 C 194.452 110.560,193.748 110.400,193.010 110.400 C 192.271 110.400,191.607 110.265,191.533 110.100 C 191.343 109.671,187.570 108.396,186.500 108.398 C 186.005 108.399,185.600 108.220,185.600 108.000 C 185.600 107.780,185.240 107.600,184.800 107.600 C 184.360 107.600,184.000 107.420,184.000 107.200 C 184.000 106.980,183.460 106.800,182.800 106.800 C 182.140 106.800,181.600 106.620,181.600 106.400 C 181.600 106.180,181.060 106.000,180.400 106.000 C 179.740 106.000,179.200 105.820,179.200 105.600 C 179.200 105.380,178.840 105.200,178.400 105.200 C 177.960 105.200,177.600 105.020,177.600 104.800 C 177.600 104.580,177.060 104.400,176.400 104.400 C 175.740 104.400,175.200 104.220,175.200 104.000 C 175.200 103.780,174.840 103.600,174.400 103.600 C 173.960 103.600,173.600 103.420,173.600 103.200 C 173.600 102.980,173.150 102.800,172.600 102.800 C 172.050 102.800,171.600 102.620,171.600 102.400 C 171.600 102.180,171.060 102.000,170.400 102.000 C 169.740 102.000,169.200 101.820,169.200 101.600 C 169.200 101.380,168.660 101.200,168.000 101.200 C 167.340 101.200,166.800 101.020,166.800 100.800 C 166.800 100.580,166.260 100.400,165.600 100.400 C 164.940 100.400,164.400 100.220,164.400 100.000 C 164.400 99.780,163.860 99.600,163.200 99.600 C 162.540 99.600,162.000 99.420,162.000 99.200 C 162.000 98.980,161.460 98.800,160.800 98.800 C 160.140 98.800,159.600 98.620,159.600 98.400 C 159.600 98.180,158.790 98.000,157.800 98.000 C 156.810 98.000,156.000 97.820,156.000 97.600 C 156.000 97.380,155.280 97.200,154.400 97.200 C 153.520 97.200,152.800 97.020,152.800 96.800 C 152.800 96.580,151.900 96.400,150.800 96.400 C 149.700 96.400,148.800 96.220,148.800 96.000 C 148.800 95.756,146.960 95.600,144.080 95.600 C 141.003 95.600,139.197 95.437,138.891 95.131 C 138.532 94.772,138.180 94.772,137.392 95.131 C 136.797 95.402,134.439 95.600,131.805 95.600 C 129.198 95.600,127.141 95.771,127.000 96.000 C 126.864 96.220,125.694 96.400,124.400 96.400 C 123.106 96.400,121.936 96.580,121.800 96.800 C 121.664 97.020,120.663 97.200,119.576 97.200 C 118.489 97.200,117.600 97.380,117.600 97.600 C 117.600 97.820,116.981 98.000,116.224 98.000 C 115.467 98.000,114.736 98.180,114.600 98.400 C 114.464 98.620,113.733 98.800,112.976 98.800 C 112.219 98.800,111.600 98.980,111.600 99.200 C 111.600 99.420,111.060 99.600,110.400 99.600 C 109.740 99.600,109.200 99.780,109.200 100.000 C 109.200 100.220,108.660 100.400,108.000 100.400 C 107.340 100.400,106.800 100.580,106.800 100.800 C 106.800 101.020,106.440 101.200,106.000 101.200 C 105.560 101.200,105.200 101.380,105.200 101.600 C 105.200 101.820,104.660 102.000,104.000 102.000 C 103.340 102.000,102.800 102.180,102.800 102.400 C 102.800 102.620,102.440 102.800,102.000 102.800 C 101.560 102.800,101.200 102.980,101.200 103.200 C 101.200 103.420,100.845 103.600,100.412 103.600 C 99.979 103.600,98.983 103.960,98.200 104.400 C 97.417 104.840,96.511 105.200,96.188 105.200 C 95.865 105.200,95.600 105.336,95.600 105.502 C 95.600 105.669,95.015 106.060,94.300 106.372 C 93.585 106.684,92.709 107.268,92.353 107.670 C 91.997 108.071,91.508 108.400,91.267 108.400 C 90.567 108.400,88.000 109.715,88.000 110.074 C 88.000 110.253,87.640 110.400,87.200 110.400 C 86.760 110.400,86.400 110.568,86.400 110.773 C 86.400 110.978,86.062 111.253,85.649 111.384 C 85.236 111.516,84.381 112.067,83.749 112.611 C 83.117 113.154,82.415 113.599,82.188 113.600 C 81.962 113.600,81.517 113.960,81.200 114.400 C 80.883 114.840,80.393 115.200,80.112 115.200 C 79.830 115.200,79.600 115.380,79.600 115.600 C 79.600 115.820,79.414 116.000,79.187 116.000 C 78.959 116.000,78.159 116.585,77.408 117.300 C 76.657 118.015,74.314 120.220,72.201 122.200 C 65.367 128.603,64.593 129.378,63.608 130.800 C 63.074 131.570,62.344 132.470,61.985 132.800 C 61.030 133.677,58.400 137.518,58.400 138.035 C 58.400 138.279,57.860 138.983,57.200 139.600 C 56.540 140.217,56.000 141.009,56.000 141.360 C 56.000 141.712,55.820 142.000,55.600 142.000 C 55.380 142.000,55.200 142.188,55.200 142.417 C 55.200 142.646,54.840 143.220,54.400 143.692 C 53.960 144.164,53.600 144.787,53.600 145.075 C 53.600 145.364,53.420 145.600,53.200 145.600 C 52.980 145.600,52.800 145.960,52.800 146.400 C 52.800 146.840,52.620 147.200,52.400 147.200 C 52.180 147.200,52.000 147.560,52.000 148.000 C 52.000 148.440,51.820 148.800,51.600 148.800 C 51.380 148.800,51.200 149.160,51.200 149.600 C 51.200 150.040,51.020 150.400,50.800 150.400 C 50.580 150.400,50.400 150.760,50.400 151.200 C 50.400 151.640,50.220 152.000,50.000 152.000 C 49.780 152.000,49.600 152.360,49.600 152.800 C 49.600 153.240,49.420 153.600,49.200 153.600 C 48.980 153.600,48.800 153.960,48.800 154.400 C 48.800 154.840,48.620 155.200,48.400 155.200 C 48.180 155.200,48.000 155.560,48.000 156.000 C 48.000 156.440,47.820 156.800,47.600 156.800 C 47.380 156.800,47.200 157.160,47.200 157.600 C 47.200 158.040,47.020 158.400,46.800 158.400 C 46.580 158.400,46.400 158.672,46.400 159.005 C 46.400 159.338,46.220 159.968,46.000 160.405 C 45.780 160.842,45.420 161.558,45.200 161.995 C 44.980 162.432,44.800 163.137,44.800 163.561 C 44.800 163.986,44.658 164.393,44.484 164.467 C 43.865 164.728,41.200 173.967,41.200 175.851 C 41.200 176.373,41.020 176.800,40.800 176.800 C 40.580 176.800,40.400 177.520,40.400 178.400 C 40.400 179.280,40.220 180.000,40.000 180.000 C 39.780 180.000,39.600 180.720,39.600 181.600 C 39.600 182.480,39.420 183.200,39.200 183.200 C 38.978 183.200,38.800 184.267,38.800 185.600 C 38.800 186.933,38.622 188.000,38.400 188.000 C 38.180 188.000,38.000 188.979,38.000 190.176 C 38.000 191.373,37.820 192.464,37.600 192.600 C 37.380 192.736,37.200 194.176,37.200 195.800 C 37.200 197.424,37.020 198.864,36.800 199.000 C 36.567 199.144,36.400 201.396,36.400 204.400 C 36.400 207.404,36.233 209.656,36.000 209.800 C 35.759 209.949,35.600 212.737,35.600 216.824 C 35.600 221.075,35.749 223.600,36.000 223.600 C 36.250 223.600,36.400 226.000,36.400 230.000 C 36.400 234.000,36.550 236.400,36.800 236.400 C 37.031 236.400,37.200 237.667,37.200 239.400 C 37.200 241.133,37.369 242.400,37.600 242.400 C 37.833 242.400,38.000 243.733,38.000 245.600 C 38.000 247.467,38.167 248.800,38.400 248.800 C 38.620 248.800,38.800 249.779,38.800 250.976 C 38.800 252.173,38.980 253.264,39.200 253.400 C 39.420 253.536,39.600 254.447,39.600 255.424 C 39.600 256.401,39.780 257.200,40.000 257.200 C 40.220 257.200,40.400 258.100,40.400 259.200 C 40.400 260.300,40.563 261.200,40.763 261.200 C 40.963 261.200,41.216 262.145,41.326 263.300 C 41.436 264.455,41.824 266.750,42.188 268.400 C 42.552 270.050,42.949 271.987,43.069 272.704 C 43.190 273.421,43.449 274.106,43.644 274.227 C 43.840 274.348,44.000 275.056,44.000 275.800 C 44.000 276.544,44.180 277.264,44.400 277.400 C 44.620 277.536,44.800 278.177,44.800 278.824 C 44.800 279.471,44.980 280.000,45.200 280.000 C 45.420 280.000,45.600 280.540,45.600 281.200 C 45.600 281.860,45.780 282.400,46.000 282.400 C 46.220 282.400,46.400 282.940,46.400 283.600 C 46.400 284.260,46.580 284.800,46.800 284.800 C 47.020 284.800,47.200 285.430,47.200 286.200 C 47.200 286.970,47.380 287.600,47.600 287.600 C 47.820 287.600,48.000 288.140,48.000 288.800 C 48.000 289.460,48.180 290.000,48.400 290.000 C 48.620 290.000,48.800 290.540,48.800 291.200 C 48.800 291.860,48.980 292.400,49.200 292.400 C 49.420 292.400,49.600 292.760,49.600 293.200 C 49.600 293.640,49.780 294.000,50.000 294.000 C 50.220 294.000,50.400 294.540,50.400 295.200 C 50.400 295.860,50.580 296.400,50.800 296.400 C 51.020 296.400,51.200 296.940,51.200 297.600 C 51.200 298.260,51.380 298.800,51.600 298.800 C 51.820 298.800,52.000 299.239,52.000 299.776 C 52.000 300.313,52.180 300.864,52.400 301.000 C 52.620 301.136,52.800 301.597,52.800 302.024 C 52.800 302.451,52.980 302.800,53.200 302.800 C 53.420 302.800,53.600 303.239,53.600 303.776 C 53.600 304.313,53.780 304.864,54.000 305.000 C 54.220 305.136,54.400 305.597,54.400 306.024 C 54.400 306.451,54.580 306.800,54.800 306.800 C 55.020 306.800,55.200 307.160,55.200 307.600 C 55.200 308.040,55.380 308.400,55.600 308.400 C 55.820 308.400,56.000 308.850,56.000 309.400 C 56.000 309.950,56.180 310.400,56.400 310.400 C 56.620 310.400,56.800 310.760,56.800 311.200 C 56.800 311.640,56.980 312.000,57.200 312.000 C 57.420 312.000,57.600 312.360,57.600 312.800 C 57.600 313.240,57.780 313.600,58.000 313.600 C 58.220 313.600,58.400 314.071,58.400 314.646 C 58.400 315.222,59.390 317.597,60.600 319.924 C 61.810 322.251,62.800 324.391,62.800 324.678 C 62.800 324.965,62.980 325.200,63.200 325.200 C 63.420 325.200,63.600 325.560,63.600 326.000 C 63.600 326.440,63.780 326.800,64.000 326.800 C 64.220 326.800,64.400 327.036,64.400 327.325 C 64.400 327.613,64.760 328.236,65.200 328.708 C 65.640 329.180,66.000 329.844,66.000 330.183 C 66.000 330.522,66.180 330.800,66.400 330.800 C 66.620 330.800,66.800 331.160,66.800 331.600 C 66.800 332.040,66.980 332.400,67.200 332.400 C 67.420 332.400,67.600 332.720,67.600 333.112 C 67.600 333.503,67.960 334.083,68.400 334.400 C 68.840 334.717,69.200 335.297,69.200 335.688 C 69.200 336.080,69.380 336.400,69.600 336.400 C 69.820 336.400,70.000 336.760,70.000 337.200 C 70.000 337.640,70.180 338.000,70.400 338.000 C 70.620 338.000,70.800 338.236,70.800 338.525 C 70.800 338.813,71.160 339.436,71.600 339.908 C 72.040 340.380,72.400 340.914,72.400 341.095 C 72.400 341.276,72.760 341.683,73.200 342.000 C 73.640 342.317,74.000 342.897,74.000 343.288 C 74.000 343.680,74.153 344.000,74.339 344.000 C 74.526 344.000,75.003 344.720,75.400 345.600 C 75.797 346.480,76.274 347.200,76.461 347.200 C 76.647 347.200,76.800 347.520,76.800 347.912 C 76.800 348.303,77.160 348.883,77.600 349.200 C 78.040 349.517,78.400 350.031,78.400 350.341 C 78.400 350.652,78.716 351.197,79.103 351.553 C 79.489 351.909,80.060 352.695,80.370 353.300 C 80.681 353.905,81.085 354.400,81.268 354.400 C 81.450 354.400,81.600 354.578,81.600 354.795 C 81.600 355.167,82.360 356.215,83.500 357.416 C 83.775 357.706,84.000 358.096,84.000 358.283 C 84.000 358.470,84.360 358.883,84.800 359.200 C 85.240 359.517,85.600 359.980,85.600 360.229 C 85.600 360.478,86.140 361.246,86.800 361.937 C 87.460 362.628,88.000 363.337,88.000 363.512 C 88.000 363.688,88.720 364.628,89.600 365.600 C 90.480 366.572,91.200 367.523,91.200 367.713 C 91.200 367.902,91.425 368.283,91.700 368.558 C 91.975 368.834,92.650 369.668,93.200 370.412 C 93.750 371.157,95.055 372.654,96.100 373.740 C 97.145 374.826,98.000 375.870,98.000 376.061 C 98.000 376.506,107.882 386.400,108.326 386.400 C 108.510 386.400,109.097 386.872,109.630 387.449 C 110.164 388.026,111.590 389.230,112.800 390.124 C 114.010 391.018,115.060 391.896,115.133 392.075 C 115.207 392.254,115.529 392.400,115.850 392.400 C 116.171 392.400,116.820 392.760,117.292 393.200 C 117.764 393.640,118.387 394.000,118.675 394.000 C 118.964 394.000,119.200 394.180,119.200 394.400 C 119.200 394.620,119.560 394.800,120.000 394.800 C 120.440 394.800,120.800 394.980,120.800 395.200 C 120.800 395.420,121.160 395.600,121.600 395.600 C 122.040 395.600,122.400 395.780,122.400 396.000 C 122.400 396.220,122.760 396.400,123.200 396.400 C 123.640 396.400,124.000 396.580,124.000 396.800 C 124.000 397.020,124.349 397.200,124.776 397.200 C 125.203 397.200,125.664 397.380,125.800 397.600 C 125.936 397.820,126.397 398.000,126.824 398.000 C 127.251 398.000,127.600 398.180,127.600 398.400 C 127.600 398.620,128.215 398.800,128.967 398.800 C 129.718 398.800,130.408 399.025,130.500 399.300 C 130.628 399.685,133.392 399.800,142.513 399.800 C 151.457 399.800,154.483 399.677,154.860 399.300 C 155.135 399.025,155.943 398.800,156.656 398.800 C 157.369 398.800,158.064 398.620,158.200 398.400 C 158.336 398.180,159.067 398.000,159.824 398.000 C 160.581 398.000,161.200 397.820,161.200 397.600 C 161.200 397.380,161.639 397.200,162.176 397.200 C 162.713 397.200,163.264 397.020,163.400 396.800 C 163.536 396.580,163.997 396.400,164.424 396.400 C 164.851 396.400,165.200 396.220,165.200 396.000 C 165.200 395.780,165.740 395.600,166.400 395.600 C 167.060 395.600,167.600 395.420,167.600 395.200 C 167.600 394.980,168.050 394.800,168.600 394.800 C 169.150 394.800,169.600 394.620,169.600 394.400 C 169.600 394.180,170.050 394.000,170.600 394.000 C 171.150 394.000,171.600 393.820,171.600 393.600 C 171.600 393.380,171.960 393.200,172.400 393.200 C 172.840 393.200,173.200 393.020,173.200 392.800 C 173.200 392.580,173.650 392.400,174.200 392.400 C 174.750 392.400,175.200 392.240,175.200 392.045 C 175.200 391.849,175.872 391.563,176.693 391.409 C 177.514 391.255,178.898 390.785,179.768 390.364 C 180.638 389.944,181.766 389.600,182.275 389.600 C 182.784 389.600,183.200 389.420,183.200 389.200 C 183.200 388.980,183.639 388.800,184.176 388.800 C 184.713 388.800,185.264 388.620,185.400 388.400 C 185.536 388.180,186.076 388.000,186.600 388.000 C 187.124 388.000,187.664 387.820,187.800 387.600 C 187.936 387.380,188.656 387.200,189.400 387.200 C 190.144 387.200,190.864 387.020,191.000 386.800 C 191.136 386.580,192.047 386.400,193.024 386.400 C 194.001 386.400,194.800 386.220,194.800 386.000 C 194.800 385.780,195.779 385.600,196.976 385.600 C 198.173 385.600,199.264 385.420,199.400 385.200 C 199.736 384.657,215.200 384.657,215.200 385.200 C 215.200 385.422,216.259 385.600,217.576 385.600 C 218.883 385.600,220.064 385.780,220.200 386.000 C 220.336 386.220,221.247 386.400,222.224 386.400 C 223.201 386.400,224.000 386.580,224.000 386.800 C 224.000 387.020,224.619 387.200,225.376 387.200 C 226.133 387.200,226.864 387.380,227.000 387.600 C 227.136 387.820,227.676 388.000,228.200 388.000 C 228.724 388.000,229.264 388.180,229.400 388.400 C 229.536 388.620,230.087 388.800,230.624 388.800 C 231.161 388.800,231.600 388.980,231.600 389.200 C 231.600 389.420,232.140 389.600,232.800 389.600 C 233.460 389.600,234.000 389.780,234.000 390.000 C 234.000 390.220,234.249 390.400,234.554 390.400 C 234.859 390.400,235.624 390.669,236.254 390.998 C 236.884 391.326,237.895 391.596,238.500 391.598 C 239.105 391.599,239.600 391.780,239.600 392.000 C 239.600 392.220,239.960 392.400,240.400 392.400 C 240.840 392.400,241.200 392.580,241.200 392.800 C 241.200 393.020,241.549 393.200,241.976 393.200 C 242.403 393.200,242.864 393.380,243.000 393.600 C 243.136 393.820,243.597 394.000,244.024 394.000 C 244.451 394.000,244.800 394.180,244.800 394.400 C 244.800 394.620,245.149 394.800,245.576 394.800 C 246.003 394.800,246.464 394.980,246.600 395.200 C 246.736 395.420,247.287 395.600,247.824 395.600 C 248.361 395.600,248.800 395.780,248.800 396.000 C 248.800 396.220,249.340 396.400,250.000 396.400 C 250.660 396.400,251.200 396.580,251.200 396.800 C 251.200 397.020,251.740 397.200,252.400 397.200 C 253.060 397.200,253.600 397.380,253.600 397.600 C 253.600 397.820,254.320 398.000,255.200 398.000 C 256.080 398.000,256.800 398.180,256.800 398.400 C 256.800 398.620,257.595 398.800,258.567 398.800 C 259.549 398.800,260.402 399.006,260.488 399.263 C 260.718 399.954,281.371 399.989,282.060 399.300 C 282.335 399.025,283.143 398.800,283.856 398.800 C 284.569 398.800,285.264 398.620,285.400 398.400 C 285.536 398.180,286.177 398.000,286.824 398.000 C 287.471 398.000,288.000 397.820,288.000 397.600 C 288.000 397.380,288.450 397.200,289.000 397.200 C 289.550 397.200,290.000 397.020,290.000 396.800 C 290.000 396.580,290.360 396.400,290.800 396.400 C 291.240 396.400,291.600 396.220,291.600 396.000 C 291.600 395.780,291.960 395.600,292.400 395.600 C 292.840 395.600,293.200 395.420,293.200 395.200 C 293.200 394.980,293.560 394.800,294.000 394.800 C 294.440 394.800,294.800 394.620,294.800 394.400 C 294.800 394.180,295.160 394.000,295.600 394.000 C 296.040 394.000,296.400 393.820,296.400 393.600 C 296.400 393.380,296.694 393.200,297.053 393.200 C 297.412 393.200,297.997 392.869,298.353 392.464 C 298.709 392.059,299.495 391.606,300.100 391.456 C 300.705 391.307,301.200 391.008,301.200 390.792 C 301.200 390.577,301.448 390.400,301.752 390.400 C 302.055 390.400,303.045 389.680,303.952 388.800 C 304.859 387.920,305.709 387.200,305.841 387.200 C 306.120 387.200,319.200 374.071,319.200 373.790 C 319.200 373.687,319.920 372.837,320.800 371.903 C 321.680 370.969,322.400 370.067,322.400 369.899 C 322.400 369.730,322.935 369.033,323.588 368.350 C 324.241 367.666,324.897 366.723,325.045 366.253 C 325.193 365.784,325.649 365.109,326.057 364.753 C 326.466 364.397,326.800 363.852,326.800 363.541 C 326.800 363.231,327.160 362.717,327.600 362.400 C 328.040 362.083,328.400 361.620,328.400 361.371 C 328.400 361.122,328.940 360.354,329.600 359.663 C 330.260 358.972,330.800 358.226,330.800 358.004 C 330.800 357.782,330.950 357.600,331.132 357.600 C 331.315 357.600,331.720 357.108,332.032 356.507 C 332.345 355.906,333.095 354.889,333.700 354.248 C 334.305 353.606,334.800 352.878,334.800 352.629 C 334.800 352.380,335.160 351.917,335.600 351.600 C 336.040 351.283,336.400 350.743,336.400 350.400 C 336.400 350.057,336.760 349.517,337.200 349.200 C 337.640 348.883,338.000 348.386,338.000 348.095 C 338.000 347.804,338.360 347.180,338.800 346.708 C 339.240 346.236,339.600 345.613,339.600 345.325 C 339.600 345.036,339.753 344.800,339.939 344.800 C 340.126 344.800,340.603 344.080,341.000 343.200 C 341.397 342.320,341.841 341.600,341.986 341.600 C 342.132 341.600,342.498 340.970,342.800 340.200 C 343.102 339.430,343.496 338.800,343.675 338.800 C 343.854 338.800,344.000 338.522,344.000 338.183 C 344.000 337.844,344.360 337.180,344.800 336.708 C 345.240 336.236,345.600 335.613,345.600 335.325 C 345.600 335.036,345.780 334.800,346.000 334.800 C 346.220 334.800,346.400 334.440,346.400 334.000 C 346.400 333.560,346.580 333.200,346.800 333.200 C 347.020 333.200,347.200 332.840,347.200 332.400 C 347.200 331.960,347.380 331.600,347.600 331.600 C 347.820 331.600,348.000 331.240,348.000 330.800 C 348.000 330.360,348.158 330.000,348.351 330.000 C 348.545 330.000,348.927 329.460,349.200 328.800 C 349.473 328.140,349.855 327.600,350.049 327.600 C 350.242 327.600,350.400 327.240,350.400 326.800 C 350.400 326.360,350.580 326.000,350.800 326.000 C 351.020 326.000,351.200 325.640,351.200 325.200 C 351.200 324.760,351.380 324.400,351.600 324.400 C 351.820 324.400,352.000 324.040,352.000 323.600 C 352.000 323.160,352.180 322.800,352.400 322.800 C 352.620 322.800,352.800 322.451,352.800 322.024 C 352.800 321.597,352.980 321.136,353.200 321.000 C 353.420 320.864,353.600 320.403,353.600 319.976 C 353.600 319.549,353.780 319.200,354.000 319.200 C 354.220 319.200,354.400 318.840,354.400 318.400 C 354.400 317.960,354.580 317.600,354.800 317.600 C 355.020 317.600,355.200 317.240,355.200 316.800 C 355.200 316.360,355.341 316.000,355.513 316.000 C 355.685 316.000,356.074 315.145,356.378 314.100 C 356.682 313.055,357.038 312.110,357.169 312.000 C 357.300 311.890,357.735 310.810,358.137 309.600 C 358.911 307.271,359.467 305.844,360.047 304.705 C 360.241 304.323,360.400 303.738,360.400 303.405 C 360.400 303.072,360.580 302.800,360.800 302.800 C 361.020 302.800,361.200 302.260,361.200 301.600 C 361.200 300.940,361.380 300.400,361.600 300.400 C 361.820 300.400,362.000 299.860,362.000 299.200 C 362.000 298.540,362.180 298.000,362.400 298.000 C 362.620 298.000,362.800 297.460,362.800 296.800 C 362.800 296.140,362.980 295.600,363.200 295.600 C 363.420 295.600,363.600 295.060,363.600 294.400 C 363.600 293.740,363.780 293.200,364.000 293.200 C 364.220 293.200,364.400 292.570,364.400 291.800 C 364.400 291.030,364.220 290.400,364.000 290.400 C 363.780 290.400,363.600 290.040,363.600 289.600 C 363.600 289.067,363.333 288.800,362.800 288.800 C 362.360 288.800,362.000 288.620,362.000 288.400 C 362.000 288.180,361.640 288.000,361.200 288.000 C 360.760 288.000,360.400 287.820,360.400 287.600 C 360.400 287.380,360.040 287.200,359.600 287.200 C 359.160 287.200,358.800 287.054,358.800 286.875 C 358.800 286.696,358.170 286.302,357.400 286.000 C 356.630 285.698,356.000 285.304,356.000 285.125 C 356.000 284.946,355.722 284.800,355.383 284.800 C 355.044 284.800,354.380 284.440,353.908 284.000 C 353.436 283.560,352.813 283.200,352.525 283.200 C 352.236 283.200,352.000 283.020,352.000 282.800 C 352.000 282.580,351.680 282.400,351.288 282.400 C 350.897 282.400,350.317 282.040,350.000 281.600 C 349.683 281.160,349.238 280.800,349.012 280.799 C 348.785 280.799,347.970 280.259,347.200 279.600 C 346.430 278.941,345.575 278.401,345.300 278.401 C 345.025 278.400,344.800 278.259,344.800 278.086 C 344.800 277.914,344.305 277.478,343.700 277.117 C 343.095 276.757,341.880 275.808,341.000 275.008 C 340.120 274.208,338.706 272.979,337.858 272.277 C 335.316 270.173,334.220 269.074,333.196 267.600 C 332.660 266.830,331.362 265.357,330.311 264.326 C 329.260 263.295,328.400 262.287,328.400 262.085 C 328.400 261.884,327.860 261.154,327.200 260.463 C 326.540 259.772,326.000 259.026,326.000 258.804 C 326.000 258.582,325.847 258.400,325.661 258.400 C 325.474 258.400,324.997 257.680,324.600 256.800 C 324.203 255.920,323.726 255.200,323.539 255.200 C 323.353 255.200,323.200 254.855,323.200 254.433 C 323.200 254.012,323.049 253.607,322.864 253.533 C 322.679 253.460,321.734 251.870,320.764 250.000 C 319.794 248.130,318.865 246.540,318.700 246.467 C 318.535 246.393,318.400 245.986,318.400 245.561 C 318.400 245.137,318.192 244.387,317.938 243.895 C 316.967 242.018,316.800 241.593,316.800 241.005 C 316.800 240.672,316.620 240.400,316.400 240.400 C 316.180 240.400,316.000 239.860,316.000 239.200 C 316.000 238.540,315.820 238.000,315.600 238.000 C 315.380 238.000,315.200 237.460,315.200 236.800 C 315.200 236.140,315.020 235.600,314.800 235.600 C 314.580 235.600,314.400 234.880,314.400 234.000 C 314.400 233.120,314.220 232.400,314.000 232.400 C 313.780 232.400,313.600 231.680,313.600 230.800 C 313.600 229.920,313.420 229.200,313.200 229.200 C 312.980 229.200,312.800 228.210,312.800 227.000 C 312.800 225.790,312.620 224.800,312.400 224.800 C 312.160 224.800,312.000 223.200,312.000 220.800 C 312.000 218.400,311.840 216.800,311.600 216.800 C 311.352 216.800,311.200 214.608,311.200 211.024 C 311.200 207.604,311.363 205.146,311.600 205.000 C 311.820 204.864,312.000 203.514,312.000 202.000 C 312.000 200.486,312.180 199.136,312.400 199.000 C 312.620 198.864,312.800 197.863,312.800 196.776 C 312.800 195.689,312.980 194.800,313.200 194.800 C 313.420 194.800,313.600 194.080,313.600 193.200 C 313.600 192.320,313.780 191.600,314.000 191.600 C 314.220 191.600,314.400 190.970,314.400 190.200 C 314.400 189.430,314.580 188.800,314.800 188.800 C 315.020 188.800,315.200 188.260,315.200 187.600 C 315.200 186.940,315.380 186.400,315.600 186.400 C 315.820 186.400,316.000 185.860,316.000 185.200 C 316.000 184.540,316.180 184.000,316.400 184.000 C 316.620 184.000,316.800 183.640,316.800 183.200 C 316.800 182.760,316.980 182.400,317.200 182.400 C 317.420 182.400,317.600 182.051,317.600 181.624 C 317.600 181.197,317.780 180.736,318.000 180.600 C 318.220 180.464,318.400 179.913,318.400 179.376 C 318.400 178.839,318.580 178.400,318.800 178.400 C 319.020 178.400,319.200 178.040,319.200 177.600 C 319.200 177.160,319.380 176.800,319.600 176.800 C 319.820 176.800,320.000 176.440,320.000 176.000 C 320.000 175.560,320.136 175.200,320.302 175.200 C 320.469 175.200,320.859 174.615,321.170 173.900 C 321.481 173.185,321.842 172.510,321.971 172.400 C 322.365 172.065,326.000 165.999,326.000 165.678 C 326.000 165.512,326.360 165.117,326.800 164.800 C 327.240 164.483,327.600 163.981,327.600 163.686 C 327.600 163.390,328.500 162.271,329.600 161.200 C 330.700 160.129,331.600 159.154,331.600 159.034 C 331.600 158.741,342.279 148.000,342.570 148.000 C 342.696 148.000,343.541 147.280,344.448 146.400 C 345.355 145.520,346.279 144.800,346.501 144.800 C 346.724 144.800,347.197 144.484,347.553 144.097 C 347.909 143.711,348.695 143.140,349.300 142.830 C 349.905 142.519,350.400 142.115,350.400 141.932 C 350.400 141.750,350.646 141.600,350.946 141.600 C 352.599 141.600,353.600 140.005,353.600 137.371 C 353.600 135.957,353.450 134.800,353.268 134.800 C 353.085 134.800,352.680 134.308,352.368 133.707 C 352.055 133.106,351.305 132.089,350.700 131.448 C 350.095 130.806,349.600 130.114,349.600 129.909 C 349.600 129.705,348.880 128.846,348.000 128.000 C 347.120 127.154,346.400 126.355,346.400 126.224 C 346.400 126.093,345.275 124.857,343.900 123.478 C 342.525 122.099,340.950 120.435,340.400 119.780 C 339.850 119.125,338.770 118.142,338.000 117.596 C 337.230 117.051,335.903 115.928,335.052 115.102 C 334.200 114.276,333.337 113.600,333.134 113.600 C 332.930 113.600,332.314 113.150,331.764 112.600 C 331.214 112.050,330.605 111.600,330.410 111.600 C 330.216 111.600,329.819 111.372,329.529 111.092 C 328.807 110.399,324.032 107.600,323.571 107.600 C 323.367 107.600,323.200 107.420,323.200 107.200 C 323.200 106.980,322.840 106.800,322.400 106.800 C 321.960 106.800,321.600 106.620,321.600 106.400 C 321.600 106.180,321.240 106.000,320.800 106.000 C 320.360 106.000,320.000 105.820,320.000 105.600 C 320.000 105.380,319.640 105.200,319.200 105.200 C 318.760 105.200,318.400 105.020,318.400 104.800 C 318.400 104.580,318.040 104.400,317.600 104.400 C 317.160 104.400,316.800 104.220,316.800 104.000 C 316.800 103.780,316.440 103.600,316.000 103.600 C 315.560 103.600,315.200 103.420,315.200 103.200 C 315.200 102.980,314.840 102.800,314.400 102.800 C 313.960 102.800,313.600 102.620,313.600 102.400 C 313.600 102.180,313.161 102.000,312.624 102.000 C 312.087 102.000,311.536 101.820,311.400 101.600 C 311.264 101.380,310.803 101.200,310.376 101.200 C 309.949 101.200,309.600 101.020,309.600 100.800 C 309.600 100.580,309.060 100.400,308.400 100.400 C 307.740 100.400,307.200 100.220,307.200 100.000 C 307.200 99.780,306.761 99.600,306.224 99.600 C 305.687 99.600,305.136 99.420,305.000 99.200 C 304.864 98.980,304.313 98.800,303.776 98.800 C 303.239 98.800,302.800 98.620,302.800 98.400 C 302.800 98.180,302.080 98.000,301.200 98.000 C 300.320 98.000,299.600 97.820,299.600 97.600 C 299.600 97.380,298.880 97.200,298.000 97.200 C 297.120 97.200,296.400 97.038,296.400 96.840 C 296.400 96.487,294.782 96.194,290.400 95.752 C 289.190 95.630,288.029 95.365,287.820 95.165 C 287.611 94.964,285.867 94.800,283.944 94.800 C 282.021 94.800,280.336 94.620,280.200 94.400 C 279.884 93.889,264.306 93.859,263.780 94.368 " stroke="none" fill="#040404" fill-rule="evenodd"></path><path id="path1" d="" stroke="none" fill="#080404" fill-rule="evenodd"></path><path id="path2" d="" stroke="none" fill="#080404" fill-rule="evenodd"></path><path id="path3" d="" stroke="none" fill="#080404" fill-rule="evenodd"></path><path id="path4" d="" stroke="none" fill="#080404" fill-rule="evenodd"></path></g></svg>