<svg id="svg" version="1.1" xmlns="http://www.w3.org/2000/svg" xmlns:xlink="http://www.w3.org/1999/xlink" width="400" height="400" viewBox="0, 0, 400,400"><g id="svgg"><path id="path0" d="M186.200 0.274 C 185.100 0.370,184.029 0.617,183.820 0.824 C 183.611 1.031,182.846 1.200,182.120 1.200 C 181.394 1.200,180.800 1.380,180.800 1.600 C 180.800 1.820,180.271 2.000,179.624 2.000 C 178.977 2.000,178.336 2.180,178.200 2.400 C 178.064 2.620,177.513 2.800,176.976 2.800 C 176.439 2.800,176.000 2.980,176.000 3.200 C 176.000 3.420,175.550 3.600,175.000 3.600 C 174.450 3.600,174.000 3.780,174.000 4.000 C 174.000 4.220,173.640 4.400,173.200 4.400 C 172.760 4.400,172.400 4.580,172.400 4.800 C 172.400 5.020,172.040 5.200,171.600 5.200 C 171.160 5.200,170.800 5.380,170.800 5.600 C 170.800 5.820,170.480 6.000,170.088 6.000 C 169.697 6.000,169.117 6.360,168.800 6.800 C 168.483 7.240,167.903 7.600,167.512 7.600 C 167.120 7.600,166.800 7.747,166.800 7.926 C 166.800 8.105,166.215 8.545,165.500 8.903 C 163.143 10.083,156.000 16.685,156.000 17.682 C 156.000 17.900,155.460 18.583,154.800 19.200 C 154.140 19.817,153.600 20.569,153.600 20.872 C 153.600 21.175,153.240 21.683,152.800 22.000 C 152.360 22.317,152.000 22.857,152.000 23.200 C 152.000 23.543,151.640 24.083,151.200 24.400 C 150.760 24.717,150.400 25.282,150.400 25.655 C 150.400 26.028,150.265 26.393,150.100 26.467 C 149.601 26.688,148.000 30.022,148.000 30.838 C 148.000 31.257,147.820 31.600,147.600 31.600 C 147.380 31.600,147.200 31.949,147.200 32.376 C 147.200 32.803,147.020 33.264,146.800 33.400 C 146.580 33.536,146.400 34.087,146.400 34.624 C 146.400 35.161,146.220 35.600,146.000 35.600 C 145.780 35.600,145.600 36.129,145.600 36.776 C 145.600 37.423,145.439 38.052,145.242 38.174 C 144.902 38.384,144.683 39.440,144.177 43.300 C 144.055 44.235,143.791 45.360,143.591 45.800 C 142.624 47.926,142.345 81.980,143.167 97.600 C 143.416 102.330,143.708 108.540,143.817 111.400 C 143.925 114.260,144.187 116.960,144.398 117.400 C 144.756 118.145,145.185 124.536,145.218 129.600 C 145.240 133.015,144.771 137.200,144.366 137.200 C 144.165 137.200,144.000 137.740,144.000 138.400 C 144.000 139.060,143.820 139.600,143.600 139.600 C 143.380 139.600,143.200 139.949,143.200 140.376 C 143.200 140.803,143.034 141.255,142.831 141.381 C 142.628 141.506,142.351 142.112,142.216 142.727 C 142.081 143.342,141.617 144.099,141.185 144.411 C 140.753 144.722,140.400 145.183,140.400 145.435 C 140.400 145.686,139.140 147.201,137.600 148.800 C 136.060 150.399,134.800 151.873,134.800 152.076 C 134.800 152.279,133.747 153.478,132.461 154.741 C 131.174 156.004,130.049 157.242,129.961 157.493 C 129.872 157.744,128.675 159.112,127.300 160.533 C 125.925 161.954,124.800 163.316,124.800 163.558 C 124.800 163.801,124.620 164.000,124.400 164.000 C 124.180 164.000,124.000 164.179,124.000 164.397 C 124.000 164.616,122.920 165.892,121.600 167.232 C 120.280 168.573,119.200 169.848,119.200 170.066 C 119.200 170.284,118.480 171.154,117.600 172.000 C 116.720 172.846,116.000 173.749,116.000 174.008 C 116.000 174.267,115.460 174.983,114.800 175.600 C 114.140 176.217,113.600 176.919,113.600 177.160 C 113.600 177.402,113.459 177.600,113.286 177.600 C 113.114 177.600,112.657 178.133,112.272 178.785 C 111.887 179.437,111.353 180.202,111.086 180.485 C 110.625 180.973,108.720 184.361,107.818 186.297 C 107.588 186.790,107.265 187.195,107.100 187.197 C 106.935 187.199,106.800 187.560,106.800 188.000 C 106.800 188.440,106.620 188.800,106.400 188.800 C 106.180 188.800,106.000 189.155,106.000 189.588 C 106.000 190.021,105.640 191.017,105.200 191.800 C 104.760 192.583,104.400 193.579,104.400 194.012 C 104.400 194.445,104.220 194.800,104.000 194.800 C 103.780 194.800,103.600 195.340,103.600 196.000 C 103.600 196.660,103.420 197.200,103.200 197.200 C 102.980 197.200,102.800 197.819,102.800 198.576 C 102.800 199.333,102.620 200.064,102.400 200.200 C 102.180 200.336,102.000 200.977,102.000 201.624 C 102.000 202.271,101.820 202.800,101.600 202.800 C 101.380 202.800,101.200 203.520,101.200 204.400 C 101.200 205.280,101.020 206.000,100.800 206.000 C 100.580 206.000,100.400 206.619,100.400 207.376 C 100.400 208.133,100.220 208.864,100.000 209.000 C 99.780 209.136,99.600 209.687,99.600 210.224 C 99.600 210.761,99.420 211.200,99.200 211.200 C 98.980 211.200,98.800 211.740,98.800 212.400 C 98.800 213.060,98.620 213.600,98.400 213.600 C 98.180 213.600,98.000 214.140,98.000 214.800 C 98.000 215.460,97.820 216.000,97.600 216.000 C 97.380 216.000,97.200 216.349,97.200 216.776 C 97.200 217.203,97.020 217.664,96.800 217.800 C 96.580 217.936,96.400 218.487,96.400 219.024 C 96.400 219.561,96.220 220.000,96.000 220.000 C 95.780 220.000,95.600 220.349,95.600 220.776 C 95.600 221.203,95.420 221.664,95.200 221.800 C 94.980 221.936,94.800 222.487,94.800 223.024 C 94.800 223.561,94.620 224.000,94.400 224.000 C 94.180 224.000,94.000 224.360,94.000 224.800 C 94.000 225.240,93.856 225.600,93.680 225.600 C 93.505 225.600,93.128 226.275,92.844 227.100 C 92.135 229.156,87.099 239.368,86.712 239.533 C 86.541 239.607,86.400 240.012,86.400 240.433 C 86.400 240.855,86.220 241.200,86.000 241.200 C 85.780 241.200,85.600 241.560,85.600 242.000 C 85.600 242.440,85.420 242.800,85.200 242.800 C 84.980 242.800,84.800 243.070,84.800 243.400 C 84.800 243.730,84.620 244.000,84.400 244.000 C 84.180 244.000,84.000 244.360,84.000 244.800 C 84.000 245.240,83.820 245.600,83.600 245.600 C 83.380 245.600,83.200 245.960,83.200 246.400 C 83.200 246.840,83.020 247.200,82.800 247.200 C 82.580 247.200,82.400 247.560,82.400 248.000 C 82.400 248.440,82.220 248.800,82.000 248.800 C 81.780 248.800,81.600 249.160,81.600 249.600 C 81.600 250.040,81.420 250.400,81.200 250.400 C 80.980 250.400,80.800 250.760,80.800 251.200 C 80.800 251.640,80.620 252.000,80.400 252.000 C 80.180 252.000,80.000 252.360,80.000 252.800 C 80.000 253.240,79.820 253.600,79.600 253.600 C 79.380 253.600,79.200 253.960,79.200 254.400 C 79.200 254.840,79.020 255.200,78.800 255.200 C 78.580 255.200,78.400 255.740,78.400 256.400 C 78.400 257.060,78.240 257.600,78.044 257.600 C 77.164 257.600,76.348 270.908,77.178 271.738 C 77.410 271.970,77.600 272.844,77.600 273.680 C 77.600 274.516,77.780 275.200,78.000 275.200 C 78.220 275.200,78.400 275.740,78.400 276.400 C 78.400 277.060,78.601 277.600,78.847 277.600 C 79.109 277.600,79.213 278.018,79.100 278.611 C 78.853 279.904,79.594 279.452,82.819 276.341 C 90.819 268.623,97.800 269.592,105.065 279.429 C 105.541 280.073,106.537 281.410,107.280 282.400 C 114.449 291.964,124.472 307.141,129.645 316.269 C 140.345 335.146,141.521 336.504,147.200 336.530 C 152.007 336.552,155.330 335.015,157.442 331.793 C 161.926 324.948,157.790 316.112,145.611 306.519 C 130.833 294.878,127.242 291.888,117.974 283.515 C 115.234 281.040,113.550 279.838,112.159 279.367 C 107.848 277.906,105.767 275.695,102.097 268.675 C 100.807 266.209,97.556 262.920,95.495 261.998 L 93.930 261.297 94.840 260.448 C 95.341 259.982,95.896 259.600,96.073 259.600 C 96.658 259.600,98.794 256.306,99.289 254.638 C 99.596 253.604,99.780 250.126,99.788 245.200 C 99.800 237.644,99.898 236.835,101.218 233.400 C 102.794 229.303,106.543 219.631,106.800 219.000 C 106.979 218.560,107.395 217.480,107.725 216.600 C 110.163 210.088,114.015 203.739,118.161 199.400 C 119.632 197.860,120.994 196.331,121.188 196.003 C 121.382 195.675,121.638 195.504,121.757 195.624 C 121.877 195.744,121.025 197.182,119.864 198.821 C 115.465 205.033,113.479 208.785,106.008 225.000 C 98.294 241.746,99.367 264.362,108.333 273.977 L 109.869 275.624 109.700 272.512 C 109.468 268.222,110.360 255.427,111.207 250.900 C 111.423 249.745,111.793 247.765,112.030 246.500 C 112.266 245.235,112.641 243.480,112.863 242.600 C 113.085 241.720,113.425 240.370,113.619 239.600 C 116.531 228.034,121.657 215.143,127.455 204.800 C 128.257 203.370,129.113 201.840,129.357 201.400 C 129.601 200.960,131.083 198.530,132.651 196.000 L 135.500 191.400 135.708 186.000 C 135.982 178.889,137.149 174.436,140.321 168.400 C 142.099 165.018,144.519 161.036,144.900 160.867 C 145.065 160.793,145.200 160.512,145.200 160.242 C 145.200 159.972,145.524 159.402,145.921 158.975 C 147.225 157.573,153.078 148.651,154.323 146.168 C 156.170 142.485,156.833 139.266,157.238 132.009 C 157.441 128.374,157.713 124.836,157.842 124.146 C 158.058 122.994,157.919 122.785,156.139 121.588 C 151.480 118.455,151.083 117.614,152.171 113.200 C 153.049 109.638,154.965 106.249,157.355 104.030 C 158.697 102.785,158.670 102.242,157.190 100.678 C 153.560 96.842,150.197 79.859,151.926 74.091 C 152.186 73.220,152.400 72.076,152.400 71.548 C 152.400 65.793,158.131 59.944,163.800 59.914 C 173.977 59.860,184.090 78.334,178.358 86.507 C 176.382 89.324,176.403 89.363,179.417 88.429 C 185.442 86.560,194.553 86.583,198.134 88.477 C 199.662 89.284,199.529 88.832,196.603 83.257 C 192.976 76.345,199.321 62.637,208.084 58.455 C 226.533 49.651,243.139 80.714,229.582 98.670 L 227.993 100.776 229.296 101.433 C 233.194 103.400,234.845 107.845,233.592 113.000 C 233.378 113.880,233.038 115.710,232.837 117.066 C 232.635 118.422,232.167 120.170,231.797 120.950 C 231.149 122.315,231.156 122.414,231.962 123.546 C 232.423 124.194,232.800 124.825,232.800 124.950 C 232.800 125.074,233.236 126.130,233.769 127.295 C 234.302 128.460,235.125 130.401,235.598 131.607 C 236.071 132.813,238.839 138.570,241.750 144.400 C 248.547 158.010,251.103 164.535,253.188 173.600 C 253.669 175.690,254.229 177.953,254.431 178.628 C 254.634 179.304,254.800 180.441,254.800 181.155 C 254.800 182.852,255.265 183.678,257.977 186.800 C 263.507 193.165,269.052 202.206,271.594 209.000 C 271.758 209.440,272.088 210.250,272.326 210.800 C 272.870 212.055,273.976 215.358,274.470 217.200 C 274.676 217.970,275.029 219.230,275.253 220.000 C 278.711 231.879,279.584 251.053,277.602 271.598 C 277.175 276.022,277.200 276.068,280.219 276.318 C 282.855 276.537,283.141 276.958,282.079 279.061 C 278.132 286.876,279.060 299.306,283.918 303.683 C 294.323 313.057,314.133 307.300,324.358 291.931 C 325.481 290.242,326.400 288.607,326.400 288.297 C 326.400 287.987,326.532 287.601,326.694 287.440 C 327.197 286.936,327.928 282.656,327.709 281.500 C 327.534 280.580,327.639 280.400,328.350 280.400 C 328.818 280.400,329.201 280.535,329.203 280.700 C 329.205 280.865,329.685 281.222,330.270 281.494 C 331.667 282.143,332.400 281.543,332.400 279.751 C 332.400 279.008,332.580 278.400,332.800 278.400 C 333.020 278.400,333.200 277.601,333.200 276.624 C 333.200 275.647,333.380 274.736,333.600 274.600 C 333.820 274.464,334.000 273.553,334.000 272.576 C 334.000 271.599,334.180 270.800,334.400 270.800 C 334.625 270.800,334.800 269.675,334.800 268.224 C 334.800 266.807,334.980 265.536,335.200 265.400 C 335.439 265.253,335.600 262.670,335.600 259.000 C 335.600 255.330,335.439 252.747,335.200 252.600 C 334.980 252.464,334.800 250.934,334.800 249.200 C 334.800 247.466,334.620 245.936,334.400 245.800 C 334.180 245.664,334.000 244.573,334.000 243.376 C 334.000 242.179,333.820 241.200,333.600 241.200 C 333.380 241.200,333.200 240.221,333.200 239.024 C 333.200 237.827,333.020 236.736,332.800 236.600 C 332.580 236.464,332.400 235.643,332.400 234.776 C 332.400 233.909,332.220 233.200,332.000 233.200 C 331.780 233.200,331.600 232.480,331.600 231.600 C 331.600 230.720,331.420 230.000,331.200 230.000 C 330.980 230.000,330.800 229.280,330.800 228.400 C 330.800 227.520,330.620 226.800,330.400 226.800 C 330.180 226.800,330.000 226.170,330.000 225.400 C 330.000 224.630,329.820 224.000,329.600 224.000 C 329.380 224.000,329.200 223.460,329.200 222.800 C 329.200 222.140,329.020 221.600,328.800 221.600 C 328.580 221.600,328.400 220.981,328.400 220.224 C 328.400 219.467,328.220 218.736,328.000 218.600 C 327.780 218.464,327.600 217.823,327.600 217.176 C 327.600 216.529,327.420 216.000,327.200 216.000 C 326.980 216.000,326.800 215.638,326.800 215.195 C 326.800 214.752,326.641 214.077,326.447 213.695 C 325.870 212.561,325.376 211.201,324.161 207.400 C 323.529 205.420,322.873 203.740,322.705 203.667 C 322.537 203.593,322.400 203.188,322.400 202.767 C 322.400 202.345,322.220 202.000,322.000 202.000 C 321.780 202.000,321.600 201.561,321.600 201.024 C 321.600 200.487,321.420 199.936,321.200 199.800 C 320.980 199.664,320.800 199.203,320.800 198.776 C 320.800 198.349,320.620 198.000,320.400 198.000 C 320.180 198.000,320.000 197.640,320.000 197.200 C 320.000 196.760,319.820 196.400,319.600 196.400 C 319.380 196.400,319.200 196.040,319.200 195.600 C 319.200 195.160,319.054 194.800,318.875 194.800 C 318.696 194.800,318.302 194.170,318.000 193.400 C 317.698 192.630,317.304 192.000,317.125 192.000 C 316.946 192.000,316.800 191.640,316.800 191.200 C 316.800 190.760,316.620 190.400,316.400 190.400 C 316.180 190.400,316.000 190.122,316.000 189.783 C 316.000 189.444,315.640 188.780,315.200 188.308 C 314.760 187.836,314.400 187.213,314.400 186.925 C 314.400 186.636,314.220 186.400,314.000 186.400 C 313.780 186.400,313.600 186.122,313.600 185.783 C 313.600 185.444,313.240 184.780,312.800 184.308 C 312.360 183.836,312.000 183.213,312.000 182.925 C 312.000 182.636,311.820 182.400,311.600 182.400 C 311.380 182.400,311.200 182.164,311.200 181.875 C 311.200 181.587,310.840 180.964,310.400 180.492 C 309.960 180.020,309.600 179.446,309.600 179.217 C 309.600 178.988,309.420 178.800,309.200 178.800 C 308.980 178.800,308.800 178.605,308.800 178.367 C 308.800 177.773,306.251 174.660,303.590 172.005 C 302.375 170.792,300.939 169.170,300.399 168.400 C 299.859 167.630,298.198 165.794,296.709 164.319 C 295.219 162.845,294.000 161.542,294.000 161.424 C 294.000 161.223,293.682 160.812,291.900 158.705 C 291.515 158.250,291.200 157.752,291.200 157.598 C 291.200 157.444,290.660 156.754,290.000 156.063 C 289.340 155.372,288.800 154.652,288.800 154.463 C 288.800 154.274,288.305 153.594,287.700 152.952 C 287.095 152.311,286.345 151.294,286.032 150.693 C 285.720 150.092,285.315 149.600,285.132 149.600 C 284.950 149.600,284.800 149.375,284.799 149.100 C 284.799 148.825,284.259 147.970,283.600 147.200 C 282.941 146.430,282.401 145.575,282.401 145.300 C 282.400 145.025,282.220 144.800,282.000 144.800 C 281.780 144.800,281.600 144.530,281.600 144.200 C 281.600 143.870,281.420 143.600,281.200 143.600 C 280.980 143.600,280.800 143.330,280.800 143.000 C 280.800 142.670,280.620 142.400,280.400 142.400 C 280.180 142.400,280.000 142.130,280.000 141.800 C 280.000 141.470,279.820 141.200,279.600 141.200 C 279.380 141.200,279.200 140.922,279.200 140.583 C 279.200 140.244,278.840 139.580,278.400 139.108 C 277.960 138.636,277.600 138.013,277.600 137.725 C 277.600 137.436,277.420 137.200,277.200 137.200 C 276.980 137.200,276.800 136.840,276.800 136.400 C 276.800 135.960,276.620 135.600,276.400 135.600 C 276.180 135.600,276.000 135.240,276.000 134.800 C 276.000 134.360,275.820 134.000,275.600 134.000 C 275.380 134.000,275.200 133.744,275.200 133.432 C 275.200 133.120,274.210 130.789,273.000 128.253 C 271.790 125.717,270.800 123.362,270.800 123.021 C 270.800 122.679,270.620 122.400,270.400 122.400 C 270.180 122.400,270.000 121.961,270.000 121.424 C 270.000 120.887,269.820 120.336,269.600 120.200 C 269.380 120.064,269.200 119.524,269.200 119.000 C 269.200 118.476,269.020 117.936,268.800 117.800 C 268.580 117.664,268.400 117.124,268.400 116.600 C 268.400 116.076,268.220 115.536,268.000 115.400 C 267.780 115.264,267.600 114.623,267.600 113.976 C 267.600 113.329,267.420 112.800,267.200 112.800 C 266.980 112.800,266.800 112.091,266.800 111.224 C 266.800 110.357,266.620 109.536,266.400 109.400 C 266.180 109.264,266.000 108.263,266.000 107.176 C 266.000 106.089,265.820 105.200,265.600 105.200 C 265.367 105.200,265.200 103.875,265.200 102.024 C 265.200 100.277,265.020 98.736,264.800 98.600 C 264.545 98.443,264.400 93.137,264.400 84.000 C 264.400 74.863,264.255 69.557,264.000 69.400 C 263.761 69.252,263.600 66.663,263.600 62.976 C 263.600 59.125,263.449 56.800,263.200 56.800 C 262.978 56.800,262.800 55.733,262.800 54.400 C 262.800 53.067,262.622 52.000,262.400 52.000 C 262.180 52.000,262.000 51.100,262.000 50.000 C 262.000 48.900,261.820 48.000,261.600 48.000 C 261.380 48.000,261.200 47.460,261.200 46.800 C 261.200 46.140,261.020 45.600,260.800 45.600 C 260.580 45.600,260.400 45.060,260.400 44.400 C 260.400 43.740,260.220 43.200,260.000 43.200 C 259.780 43.200,259.600 42.750,259.600 42.200 C 259.600 41.650,259.443 41.200,259.250 41.200 C 259.058 41.200,258.787 40.615,258.649 39.900 C 258.378 38.501,255.999 33.486,255.502 33.267 C 255.336 33.193,255.200 32.788,255.200 32.367 C 255.200 31.945,255.041 31.600,254.847 31.600 C 254.652 31.600,254.393 31.285,254.271 30.900 C 253.847 29.563,252.156 27.082,250.500 25.368 C 250.005 24.856,249.600 24.263,249.600 24.052 C 249.600 23.841,247.709 21.717,245.398 19.334 C 239.208 12.949,238.236 12.006,237.847 12.003 C 237.653 12.001,237.202 11.685,236.846 11.300 C 236.096 10.490,234.282 9.345,232.700 8.684 C 232.095 8.431,231.600 8.084,231.600 7.912 C 231.600 7.741,231.240 7.600,230.800 7.600 C 230.360 7.600,230.000 7.420,230.000 7.200 C 230.000 6.980,229.640 6.800,229.200 6.800 C 228.760 6.800,228.400 6.620,228.400 6.400 C 228.400 6.180,228.040 6.000,227.600 6.000 C 227.160 6.000,226.800 5.820,226.800 5.600 C 226.800 5.380,226.440 5.200,226.000 5.200 C 225.560 5.200,225.200 5.020,225.200 4.800 C 225.200 4.580,224.840 4.400,224.400 4.400 C 223.960 4.400,223.600 4.220,223.600 4.000 C 223.600 3.780,223.161 3.600,222.624 3.600 C 222.087 3.600,221.536 3.420,221.400 3.200 C 221.264 2.980,220.713 2.800,220.176 2.800 C 219.639 2.800,219.200 2.620,219.200 2.400 C 219.200 2.180,218.480 2.000,217.600 2.000 C 216.720 2.000,216.000 1.820,216.000 1.600 C 216.000 1.380,215.295 1.200,214.433 1.200 C 213.551 1.200,212.795 0.986,212.703 0.709 C 212.538 0.215,190.938 -0.140,186.200 0.274 M224.446 18.100 C 227.791 19.848,239.907 32.627,239.041 33.493 C 238.933 33.600,237.470 32.768,235.789 31.644 C 231.961 29.084,230.839 29.003,228.600 31.126 C 225.856 33.729,218.734 38.067,218.155 37.489 C 218.014 37.347,218.456 35.829,219.138 34.115 C 221.147 29.071,221.369 27.495,220.381 25.274 C 217.862 19.613,220.028 15.791,224.446 18.100 M228.431 54.109 C 231.387 56.101,231.581 59.042,228.636 57.222 C 226.614 55.972,225.471 54.437,226.047 53.743 C 226.650 53.017,226.857 53.048,228.431 54.109 M173.986 56.046 C 175.210 57.216,175.537 58.000,174.801 58.000 C 174.310 58.000,171.200 55.228,171.200 54.791 C 171.200 54.183,172.782 54.896,173.986 56.046 M212.600 71.749 C 203.423 75.220,202.400 91.026,211.083 95.172 C 212.137 95.676,213.313 96.248,213.695 96.444 C 219.826 99.588,227.485 90.534,225.809 82.121 C 225.041 78.266,224.417 76.979,222.262 74.803 C 220.754 73.279,220.126 72.898,217.081 71.656 C 215.733 71.106,214.217 71.138,212.600 71.749 M160.250 74.128 C 159.453 74.859,158.800 75.671,158.800 75.934 C 158.800 76.196,158.635 76.723,158.433 77.105 C 154.723 84.130,161.649 99.610,166.654 95.480 C 167.285 94.960,168.901 93.794,170.246 92.889 C 172.943 91.075,173.204 90.505,173.195 86.450 C 173.175 76.749,165.434 69.380,160.250 74.128 M219.120 75.762 C 222.094 77.309,224.616 82.800,222.353 82.800 C 220.992 82.800,215.200 77.121,215.200 75.787 C 215.200 75.015,217.655 75.000,219.120 75.762 M168.167 77.394 C 169.876 79.102,170.442 81.338,169.419 82.335 C 168.781 82.956,168.692 82.936,168.068 82.025 C 167.701 81.489,166.635 80.298,165.700 79.377 C 163.536 77.247,163.421 76.000,165.387 76.000 C 166.437 76.000,167.111 76.338,168.167 77.394 M191.200 78.808 C 191.200 79.050,190.753 79.108,190.100 78.951 C 188.530 78.575,188.477 78.400,189.933 78.400 C 190.630 78.400,191.200 78.583,191.200 78.808 M193.200 79.600 C 193.200 79.820,193.393 80.000,193.629 80.000 C 193.864 80.000,194.327 80.270,194.657 80.600 C 195.545 81.488,194.815 81.307,193.000 80.190 C 191.675 79.374,191.555 79.204,192.300 79.202 C 192.795 79.201,193.200 79.380,193.200 79.600 M252.444 121.221 C 253.678 122.051,255.588 123.186,256.687 123.743 C 260.991 125.924,262.400 127.842,262.400 131.521 C 262.400 139.839,254.883 139.139,250.362 130.400 C 249.509 128.750,248.268 126.410,247.605 125.200 C 244.709 119.912,247.313 117.771,252.444 121.221 M277.863 192.261 C 290.104 198.794,299.431 209.397,301.913 219.600 C 302.154 220.590,302.457 221.850,302.588 222.400 C 303.955 228.163,304.455 238.443,303.584 242.880 C 302.725 247.258,301.916 250.484,300.895 253.600 C 300.570 254.590,300.162 255.940,299.987 256.600 C 299.813 257.260,298.915 259.870,297.992 262.400 C 295.889 268.165,295.856 268.517,297.395 268.792 C 298.628 269.013,299.220 270.140,298.489 270.871 C 298.276 271.084,296.324 271.305,294.151 271.364 C 291.552 271.434,289.666 271.699,288.639 272.140 C 286.913 272.881,286.383 272.760,287.307 271.836 C 287.985 271.158,292.483 268.800,293.099 268.800 C 293.484 268.800,296.929 258.727,298.229 253.800 C 298.812 251.592,299.085 250.336,300.490 243.400 C 301.150 240.144,301.117 227.248,300.442 224.400 C 296.718 208.687,291.088 201.386,275.200 191.670 C 272.841 190.227,274.915 190.687,277.863 192.261 M285.305 207.795 C 292.103 213.402,293.310 218.925,287.451 217.611 C 285.928 217.270,285.090 217.338,282.712 217.997 C 277.439 219.459,277.259 218.805,281.199 212.510 C 282.545 210.360,282.557 210.233,281.756 206.700 C 281.376 205.021,282.281 205.301,285.305 207.795 M321.781 279.264 C 322.342 279.520,322.800 279.859,322.800 280.018 C 322.800 280.177,323.152 280.399,323.582 280.511 C 327.182 281.453,322.461 286.657,316.630 288.176 C 313.795 288.914,313.698 288.864,315.030 287.365 C 317.152 284.973,318.117 283.067,318.244 281.013 C 318.312 279.906,318.375 278.955,318.384 278.900 C 318.432 278.601,320.909 278.867,321.781 279.264 M254.800 327.118 C 239.825 342.664,227.378 352.094,216.200 356.362 C 214.880 356.866,213.440 357.420,213.000 357.593 C 212.560 357.767,211.390 358.130,210.400 358.401 C 209.410 358.671,208.150 359.033,207.600 359.204 C 206.621 359.508,204.734 359.886,199.698 360.785 C 196.487 361.359,183.048 361.365,179.400 360.794 C 175.631 360.205,172.414 359.581,171.200 359.204 C 170.650 359.033,169.390 358.674,168.400 358.407 C 167.410 358.140,166.287 357.760,165.905 357.561 C 165.523 357.362,164.936 357.200,164.600 357.200 C 164.264 357.200,163.677 357.041,163.295 356.847 C 162.913 356.652,162.150 356.316,161.600 356.099 C 161.050 355.883,159.477 355.156,158.104 354.484 C 155.290 353.107,154.824 353.306,155.992 355.386 C 156.437 356.177,156.800 357.089,156.800 357.412 C 156.800 357.735,156.980 358.000,157.200 358.000 C 157.420 358.000,157.600 358.349,157.600 358.776 C 157.600 359.203,157.780 359.664,158.000 359.800 C 158.220 359.936,158.400 360.577,158.400 361.224 C 158.400 361.871,158.580 362.400,158.800 362.400 C 159.020 362.400,159.200 363.195,159.200 364.167 C 159.200 365.218,159.401 366.000,159.696 366.099 C 160.357 366.319,159.105 367.600,158.229 367.600 C 157.883 367.600,157.600 367.759,157.600 367.953 C 157.600 368.148,157.240 368.401,156.800 368.516 C 156.157 368.684,156.000 369.062,156.000 370.434 C 156.000 371.979,155.650 373.526,154.785 375.800 C 154.618 376.240,154.251 377.230,153.971 378.000 C 153.690 378.770,153.132 379.878,152.730 380.462 C 152.329 381.046,152.000 381.629,152.000 381.757 C 152.000 382.752,145.306 389.228,143.267 390.205 C 142.355 390.642,141.607 391.135,141.605 391.300 C 141.602 391.465,141.251 391.600,140.824 391.600 C 140.397 391.600,139.936 391.780,139.800 392.000 C 139.664 392.220,139.124 392.400,138.600 392.400 C 138.076 392.400,137.536 392.580,137.400 392.800 C 137.264 393.020,136.454 393.200,135.600 393.200 C 134.746 393.200,133.936 393.380,133.800 393.600 C 133.664 393.820,132.044 394.000,130.200 394.000 C 128.356 394.000,126.736 393.820,126.600 393.600 C 126.464 393.380,125.463 393.200,124.376 393.200 C 123.289 393.200,122.400 393.020,122.400 392.800 C 122.400 392.580,121.781 392.400,121.024 392.400 C 120.267 392.400,119.536 392.219,119.399 391.999 C 119.158 391.608,117.202 391.882,116.800 392.362 C 116.340 392.912,114.511 393.603,113.300 393.683 C 111.915 393.776,111.435 394.800,112.776 394.800 C 113.203 394.800,113.664 394.980,113.800 395.200 C 113.936 395.420,114.487 395.600,115.024 395.600 C 115.561 395.600,116.000 395.780,116.000 396.000 C 116.000 396.220,116.360 396.400,116.800 396.400 C 117.240 396.400,117.600 396.580,117.600 396.800 C 117.600 397.020,118.140 397.200,118.800 397.200 C 119.460 397.200,120.000 397.380,120.000 397.600 C 120.000 397.820,120.540 398.000,121.200 398.000 C 121.860 398.000,122.400 398.180,122.400 398.400 C 122.400 398.620,122.925 398.800,123.567 398.800 C 124.208 398.800,124.808 399.025,124.900 399.300 C 125.026 399.677,126.952 399.800,132.713 399.800 C 138.297 399.800,140.495 399.665,140.860 399.300 C 141.135 399.025,141.774 398.800,142.280 398.800 C 142.786 398.800,143.200 398.620,143.200 398.400 C 143.200 398.180,143.560 398.000,144.000 398.000 C 144.440 398.000,144.800 397.820,144.800 397.600 C 144.800 397.380,145.160 397.200,145.600 397.200 C 146.040 397.200,146.400 397.020,146.400 396.800 C 146.400 396.580,146.760 396.400,147.200 396.400 C 147.640 396.400,148.000 396.220,148.000 396.000 C 148.000 395.780,148.270 395.600,148.600 395.600 C 148.930 395.600,149.200 395.420,149.200 395.200 C 149.200 394.980,149.371 394.800,149.579 394.800 C 150.031 394.800,156.000 389.162,156.000 388.735 C 156.000 388.573,156.541 387.638,157.202 386.659 C 157.864 385.679,158.516 384.320,158.652 383.639 C 158.789 382.957,159.058 382.400,159.250 382.400 C 159.442 382.400,159.600 381.860,159.600 381.200 C 159.600 380.027,159.644 380.000,161.600 380.000 C 162.700 380.000,163.600 379.820,163.600 379.600 C 163.600 379.378,164.667 379.200,166.000 379.200 C 167.333 379.200,168.400 379.022,168.400 378.800 C 168.400 378.569,169.667 378.400,171.400 378.400 C 173.133 378.400,174.400 378.231,174.400 378.000 C 174.400 377.740,179.800 377.600,189.800 377.600 C 199.800 377.600,205.200 377.740,205.200 378.000 C 205.200 378.241,206.867 378.400,209.400 378.400 C 211.933 378.400,213.600 378.559,213.600 378.800 C 213.600 379.033,214.933 379.200,216.800 379.200 C 218.667 379.200,220.000 379.367,220.000 379.600 C 220.000 379.829,221.200 380.000,222.800 380.000 C 224.400 380.000,225.600 380.171,225.600 380.400 C 225.600 380.620,226.500 380.800,227.600 380.800 C 228.700 380.800,229.600 380.980,229.600 381.200 C 229.600 381.420,230.590 381.600,231.800 381.600 C 233.010 381.600,234.000 381.780,234.000 382.000 C 234.000 382.220,234.709 382.400,235.576 382.400 C 236.443 382.400,237.264 382.580,237.400 382.800 C 237.536 383.020,238.447 383.200,239.424 383.200 C 240.401 383.200,241.200 383.380,241.200 383.600 C 241.200 383.820,241.920 384.000,242.800 384.000 C 243.680 384.000,244.400 384.180,244.400 384.400 C 244.400 384.620,245.019 384.800,245.776 384.800 C 246.533 384.800,247.264 384.980,247.400 385.200 C 247.536 385.420,248.256 385.600,249.000 385.600 C 249.744 385.600,250.464 385.780,250.600 386.000 C 250.736 386.220,251.287 386.400,251.824 386.400 C 252.533 386.400,252.800 386.618,252.800 387.200 C 252.800 387.640,252.980 388.000,253.200 388.000 C 253.420 388.000,253.600 388.320,253.600 388.712 C 253.600 389.103,253.960 389.683,254.400 390.000 C 254.840 390.317,255.200 390.725,255.200 390.906 C 255.200 391.360,257.076 393.200,257.540 393.200 C 257.746 393.200,258.480 393.727,259.170 394.372 C 259.860 395.016,260.959 395.780,261.612 396.070 C 262.265 396.359,262.800 396.731,262.800 396.898 C 262.800 397.064,263.149 397.200,263.576 397.200 C 264.003 397.200,264.464 397.380,264.600 397.600 C 264.736 397.820,265.287 398.000,265.824 398.000 C 266.361 398.000,266.800 398.180,266.800 398.400 C 266.800 398.620,267.325 398.800,267.967 398.800 C 268.608 398.800,269.208 399.025,269.300 399.300 C 269.427 399.682,271.849 399.800,279.600 399.800 C 287.351 399.800,289.772 399.682,289.900 399.300 C 289.992 399.025,290.412 398.800,290.833 398.800 C 291.255 398.800,291.600 398.620,291.600 398.400 C 291.600 398.180,292.140 398.000,292.800 398.000 C 293.460 398.000,294.000 397.820,294.000 397.600 C 294.000 397.380,294.278 397.200,294.617 397.200 C 294.956 397.200,295.620 396.840,296.092 396.400 C 296.564 395.960,297.187 395.600,297.475 395.600 C 297.764 395.600,298.000 395.420,298.000 395.200 C 298.000 394.980,298.225 394.800,298.500 394.800 C 299.027 394.799,301.200 393.080,301.200 392.663 C 301.200 392.529,300.738 392.595,300.174 392.810 C 298.914 393.289,298.692 393.298,298.964 392.858 C 299.081 392.670,298.731 392.601,298.188 392.704 C 297.614 392.814,297.200 392.706,297.200 392.447 C 297.200 392.201,296.840 392.000,296.400 392.000 C 295.960 392.000,295.600 391.820,295.600 391.600 C 295.600 391.380,295.306 391.200,294.947 391.200 C 294.588 391.200,293.965 390.820,293.562 390.357 C 292.945 389.644,292.564 389.555,291.115 389.785 C 279.390 391.643,268.096 388.725,261.700 382.184 C 260.325 380.778,259.200 379.351,259.200 379.014 C 259.200 378.676,259.020 378.400,258.800 378.400 C 258.580 378.400,258.400 378.051,258.400 377.624 C 258.400 377.197,258.220 376.736,258.000 376.600 C 257.780 376.464,257.600 375.733,257.600 374.976 C 257.600 374.219,257.420 373.600,257.200 373.600 C 256.965 373.600,256.800 372.200,256.800 370.200 C 256.800 367.067,256.737 366.800,256.000 366.800 C 255.560 366.800,255.200 366.664,255.200 366.498 C 255.200 366.331,254.660 365.956,254.000 365.664 C 252.692 365.085,252.480 364.095,253.179 361.828 C 253.387 361.153,253.756 358.710,253.999 356.400 C 254.242 354.090,254.611 351.165,254.820 349.900 C 255.694 344.607,255.972 342.838,256.404 339.800 C 257.706 330.664,258.257 324.396,257.756 324.409 C 257.560 324.415,256.230 325.634,254.800 327.118 M315.243 379.623 C 314.717 380.061,314.365 380.498,314.461 380.594 C 314.556 380.690,315.150 380.325,315.779 379.784 C 316.409 379.243,316.761 378.806,316.562 378.813 C 316.363 378.821,315.770 379.185,315.243 379.623 M306.800 387.519 C 306.470 387.909,305.161 389.102,303.890 390.171 C 302.620 391.240,301.700 392.223,301.845 392.357 C 301.990 392.491,302.190 392.375,302.288 392.100 C 302.386 391.825,302.677 391.593,302.933 391.585 C 303.507 391.567,308.358 386.806,307.800 386.809 C 307.580 386.810,307.130 387.129,306.800 387.519 M99.800 390.000 C 99.936 390.220,100.442 390.387,100.924 390.372 C 101.769 390.345,101.771 390.331,101.000 390.000 C 99.899 389.527,99.508 389.527,99.800 390.000 " stroke="none" fill="#0b0906" fill-rule="evenodd"></path><path id="path1" d="M182.600 88.048 C 181.940 88.259,180.140 88.809,178.600 89.270 C 174.971 90.356,173.078 91.183,172.680 91.858 C 172.504 92.156,172.182 92.400,171.963 92.400 C 171.745 92.400,171.349 92.585,171.083 92.811 C 170.817 93.037,169.298 94.193,167.707 95.380 C 163.888 98.228,159.601 102.082,159.600 102.667 C 159.600 102.923,159.458 103.193,159.285 103.267 C 159.112 103.340,158.365 104.161,157.625 105.091 L 156.281 106.782 156.504 112.491 C 156.726 118.151,156.738 118.207,157.830 119.000 C 158.436 119.440,160.387 120.884,162.166 122.209 C 169.258 127.492,174.804 128.772,184.800 127.429 C 199.155 125.502,207.469 121.670,218.477 111.906 C 221.839 108.924,223.308 108.006,224.728 108.002 C 226.288 107.998,225.698 109.644,223.797 110.597 C 220.510 112.244,217.758 113.985,216.400 115.276 C 212.673 118.819,208.367 121.784,203.800 123.954 C 202.260 124.685,200.687 125.445,200.305 125.642 C 199.923 125.839,199.259 126.000,198.829 126.000 C 198.399 126.000,197.951 126.156,197.833 126.346 C 197.716 126.536,197.030 126.805,196.310 126.943 C 195.589 127.081,194.190 127.385,193.200 127.619 C 186.474 129.207,181.071 129.985,176.713 129.993 C 172.261 130.001,172.095 130.242,175.117 132.304 C 178.857 134.856,187.157 136.900,194.000 136.954 C 204.204 137.035,206.588 136.273,215.900 129.954 C 219.685 127.385,221.272 126.490,226.113 124.192 C 229.394 122.634,231.275 120.363,231.944 117.150 C 232.237 115.748,232.639 114.058,232.838 113.395 C 234.329 108.426,232.658 103.141,229.238 102.013 C 228.337 101.715,227.600 101.350,227.600 101.200 C 227.600 101.050,226.565 100.701,225.300 100.424 C 221.607 99.615,212.375 96.404,210.200 95.172 C 197.747 88.118,189.235 85.921,182.600 88.048 M197.300 92.723 C 198.801 93.609,198.518 95.200,196.860 95.200 C 196.048 95.200,192.000 93.178,192.000 92.773 C 192.000 91.512,195.199 91.482,197.300 92.723 M176.400 92.911 C 176.400 93.699,175.220 95.200,174.601 95.200 C 173.678 95.200,173.495 94.420,174.175 93.382 C 174.847 92.356,176.400 92.027,176.400 92.911 M91.000 271.870 C 89.077 272.124,88.008 272.736,84.941 275.343 C 82.834 277.134,81.949 279.665,81.145 286.200 C 80.370 292.505,78.015 296.781,74.027 299.126 C 72.133 300.240,66.504 300.518,56.600 299.987 C 51.035 299.689,44.400 302.675,44.400 305.478 C 44.400 305.765,44.220 306.000,44.000 306.000 C 43.780 306.000,43.600 306.540,43.600 307.200 C 43.600 307.860,43.405 308.400,43.166 308.400 C 42.629 308.400,42.936 320.352,43.588 324.800 C 45.438 337.419,44.724 343.834,40.465 352.855 C 34.755 364.950,36.799 368.998,50.438 372.598 C 53.387 373.376,56.250 374.169,56.800 374.360 C 57.350 374.551,58.610 374.929,59.600 375.199 C 60.590 375.470,61.760 375.830,62.200 376.000 C 62.953 376.291,63.758 376.512,67.900 377.567 C 68.835 377.805,70.275 378.173,71.100 378.384 C 71.925 378.595,73.230 378.871,74.000 378.999 C 74.770 379.126,76.300 379.402,77.400 379.611 C 78.500 379.821,80.480 380.175,81.800 380.397 C 85.011 380.939,88.209 381.521,90.400 381.963 C 91.390 382.163,93.190 382.506,94.400 382.726 C 96.396 383.089,102.388 384.621,105.400 385.539 C 106.535 385.885,111.022 387.583,113.200 388.490 C 113.750 388.719,114.605 389.063,115.100 389.254 C 115.595 389.444,116.405 389.771,116.900 389.979 C 117.684 390.310,120.376 391.165,124.628 392.434 C 126.299 392.932,135.088 392.905,135.400 392.400 C 135.536 392.180,136.089 392.000,136.629 392.000 C 137.169 392.000,137.923 391.836,138.305 391.635 C 138.687 391.434,140.034 390.791,141.299 390.206 C 157.857 382.545,159.276 360.512,144.262 344.202 C 143.030 342.863,141.437 340.358,139.809 337.200 C 136.929 331.613,134.457 327.609,130.550 322.200 C 126.807 317.018,121.200 308.381,121.200 307.796 C 121.200 307.602,115.905 298.473,114.009 295.400 C 113.059 293.860,111.394 290.899,110.309 288.821 C 103.713 276.188,97.777 270.976,91.000 271.870 M263.657 275.013 C 261.844 276.539,260.645 282.540,261.854 284.041 C 263.054 285.531,263.660 331.524,262.503 333.344 C 262.344 333.595,262.082 334.880,261.922 336.200 C 261.763 337.520,261.436 339.680,261.197 341.000 C 260.958 342.320,260.671 344.210,260.560 345.200 C 260.449 346.190,260.197 347.360,260.000 347.800 C 259.803 348.240,259.539 349.500,259.414 350.600 C 259.288 351.700,258.996 353.860,258.764 355.400 C 257.650 362.791,257.901 373.920,259.239 376.495 C 259.438 376.877,259.600 377.462,259.600 377.795 C 259.600 378.128,259.780 378.400,260.000 378.400 C 260.220 378.400,260.400 378.578,260.400 378.795 C 260.400 379.160,260.785 379.693,262.400 381.562 C 263.102 382.374,267.350 385.225,268.800 385.857 C 269.350 386.097,270.340 386.518,271.000 386.793 C 271.660 387.068,272.513 387.452,272.895 387.647 C 273.277 387.841,274.031 388.000,274.571 388.000 C 275.111 388.000,275.650 388.157,275.769 388.350 C 276.050 388.805,279.902 389.295,283.200 389.295 C 286.498 389.295,290.350 388.805,290.631 388.350 C 290.750 388.157,291.199 388.000,291.629 388.000 C 292.059 388.000,292.723 387.843,293.105 387.651 C 293.487 387.460,294.970 386.719,296.400 386.006 C 299.763 384.328,303.741 381.295,308.037 377.131 C 311.202 374.064,313.901 371.601,315.917 369.938 C 320.259 366.358,325.977 362.400,326.808 362.400 C 327.023 362.400,327.201 362.265,327.203 362.100 C 327.205 361.935,327.610 361.599,328.103 361.354 C 329.273 360.774,334.770 357.876,335.800 357.297 C 336.240 357.050,339.810 355.290,343.734 353.387 C 354.204 348.307,357.764 345.888,360.800 341.790 C 364.150 337.269,364.622 330.655,361.800 327.787 C 360.830 326.801,357.313 324.800,356.550 324.800 C 356.247 324.800,356.000 324.620,356.000 324.400 C 356.000 324.180,355.640 324.000,355.200 324.000 C 354.760 324.000,354.400 323.820,354.400 323.600 C 354.400 323.380,354.051 323.200,353.624 323.200 C 353.197 323.200,352.736 323.020,352.600 322.800 C 352.464 322.580,351.913 322.400,351.376 322.400 C 350.839 322.400,350.400 322.220,350.400 322.000 C 350.400 321.780,350.159 321.600,349.864 321.600 C 349.253 321.600,346.400 318.650,346.400 318.017 C 346.400 317.788,346.220 317.600,346.000 317.600 C 345.780 317.600,345.600 317.150,345.600 316.600 C 345.600 316.050,345.420 315.600,345.200 315.600 C 344.980 315.600,344.800 315.330,344.800 315.000 C 344.800 314.670,344.620 314.400,344.400 314.400 C 344.180 314.400,344.000 314.040,344.000 313.600 C 344.000 313.160,343.820 312.800,343.600 312.800 C 343.380 312.800,343.200 312.429,343.200 311.976 C 343.200 311.523,343.020 311.264,342.800 311.400 C 342.580 311.536,342.400 311.277,342.400 310.824 C 342.400 310.371,342.220 310.000,342.000 310.000 C 341.780 310.000,341.600 309.708,341.600 309.352 C 341.600 308.391,339.535 305.330,338.504 304.762 C 337.122 304.001,336.000 301.285,336.000 298.700 C 336.000 297.464,335.813 295.961,335.585 295.360 C 335.357 294.760,335.059 292.582,334.924 290.520 C 334.788 288.458,334.525 286.677,334.339 286.562 C 334.152 286.447,334.000 286.003,334.000 285.576 C 334.000 285.149,333.864 284.800,333.698 284.800 C 333.531 284.800,333.156 284.260,332.864 283.600 C 332.498 282.773,332.050 282.400,331.420 282.400 C 330.919 282.400,330.034 282.027,329.454 281.571 L 328.400 280.742 328.396 282.271 C 328.382 286.923,325.018 293.046,319.424 298.600 C 316.483 301.519,310.596 306.000,309.701 306.000 C 309.499 306.000,308.572 306.703,307.642 307.561 C 303.454 311.428,293.725 313.885,291.483 311.643 C 291.239 311.399,290.785 311.200,290.474 311.200 C 288.111 311.200,281.404 303.242,280.044 298.826 C 278.382 293.428,278.587 287.727,280.663 281.600 C 282.378 276.539,282.412 276.800,280.041 276.800 C 278.913 276.800,277.677 276.633,277.295 276.428 C 273.573 274.436,265.357 273.583,263.657 275.013 " stroke="none" fill="#f4b505" fill-rule="evenodd"></path><path id="path2" d="M226.047 53.743 C 225.471 54.437,226.614 55.972,228.636 57.222 C 231.581 59.042,231.387 56.101,228.431 54.109 C 226.857 53.048,226.650 53.017,226.047 53.743 M171.200 54.730 C 171.200 55.211,174.271 58.000,174.801 58.000 C 175.281 58.000,175.304 57.583,174.862 56.886 C 174.683 56.604,174.264 56.477,173.932 56.605 C 173.600 56.732,173.097 56.558,172.815 56.218 C 172.214 55.494,172.816 55.376,173.520 56.080 C 173.806 56.366,174.000 56.393,174.000 56.148 C 174.000 55.800,173.369 55.383,171.500 54.495 C 171.335 54.417,171.200 54.522,171.200 54.730 M229.196 54.995 C 229.700 55.602,229.496 56.800,228.889 56.800 C 228.090 56.800,227.084 55.680,227.322 55.058 C 227.637 54.239,228.543 54.208,229.196 54.995 M172.000 63.800 C 172.746 64.570,173.447 65.200,173.557 65.200 C 173.667 65.200,173.146 64.570,172.400 63.800 C 171.654 63.030,170.953 62.400,170.843 62.400 C 170.733 62.400,171.254 63.030,172.000 63.800 M215.200 75.778 C 215.200 76.095,215.605 76.779,216.100 77.297 C 216.595 77.815,216.775 77.946,216.500 77.588 C 215.832 76.719,215.869 76.388,216.700 75.757 C 217.336 75.274,217.300 75.224,216.300 75.213 C 215.602 75.205,215.200 75.411,215.200 75.778 M188.833 78.544 C 189.311 78.956,191.200 79.166,191.200 78.808 C 191.200 78.583,190.630 78.400,189.933 78.400 C 189.237 78.400,188.742 78.465,188.833 78.544 M193.000 80.190 C 194.815 81.307,195.545 81.488,194.657 80.600 C 194.327 80.270,193.864 80.000,193.629 80.000 C 193.393 80.000,193.200 79.820,193.200 79.600 C 193.200 79.380,192.795 79.201,192.300 79.202 C 191.555 79.204,191.675 79.374,193.000 80.190 M169.491 80.546 C 169.278 81.075,168.906 81.237,168.212 81.104 C 167.374 80.944,167.289 81.020,167.620 81.637 C 168.509 83.299,170.207 82.649,169.931 80.751 C 169.808 79.903,169.760 79.881,169.491 80.546 M234.128 82.400 C 234.128 83.830,234.201 84.415,234.289 83.700 C 234.378 82.985,234.378 81.815,234.289 81.100 C 234.201 80.385,234.128 80.970,234.128 82.400 M196.415 83.000 C 196.417 83.220,196.786 83.850,197.236 84.400 C 197.779 85.064,197.915 85.131,197.640 84.600 C 196.966 83.295,196.412 82.572,196.415 83.000 M185.200 87.200 C 184.316 87.386,185.642 87.497,188.800 87.501 C 192.446 87.506,193.367 87.418,192.200 87.177 C 190.290 86.782,187.137 86.792,185.200 87.200 M179.507 88.376 C 176.264 89.413,175.856 89.589,176.113 89.846 C 176.238 89.971,177.389 89.719,178.670 89.285 C 179.952 88.852,181.630 88.314,182.400 88.090 C 183.557 87.753,183.626 87.678,182.800 87.662 C 182.250 87.652,180.768 87.973,179.507 88.376 M196.000 88.381 C 199.489 89.614,200.014 89.701,199.747 89.007 C 199.620 88.676,199.359 88.502,199.166 88.621 C 198.974 88.740,198.498 88.670,198.108 88.465 C 197.719 88.260,196.590 87.983,195.600 87.848 L 193.800 87.603 196.000 88.381 M170.174 92.923 C 166.778 95.271,164.991 96.724,165.219 96.953 C 165.374 97.107,168.361 95.003,171.000 92.881 C 171.220 92.704,171.715 92.439,172.100 92.292 C 172.485 92.145,172.800 91.839,172.800 91.613 C 172.800 91.077,172.965 90.994,170.174 92.923 M192.700 92.018 C 191.606 92.678,191.843 93.029,194.140 94.153 C 196.908 95.508,198.400 95.386,198.400 93.806 C 198.400 92.628,193.985 91.243,192.700 92.018 M174.175 93.382 C 173.495 94.420,173.678 95.200,174.601 95.200 C 175.220 95.200,176.400 93.699,176.400 92.911 C 176.400 92.027,174.847 92.356,174.175 93.382 M208.205 94.008 C 208.578 94.612,214.204 97.205,215.062 97.168 C 215.607 97.145,215.643 97.085,215.200 96.939 C 213.230 96.290,210.801 95.164,209.538 94.314 C 208.350 93.515,207.826 93.395,208.205 94.008 M227.600 101.136 C 227.600 101.321,228.337 101.715,229.238 102.013 C 232.658 103.141,234.329 108.426,232.838 113.395 C 232.639 114.058,232.237 115.748,231.944 117.150 C 231.336 120.066,229.422 122.624,226.978 123.784 C 226.184 124.160,225.636 124.569,225.760 124.693 C 225.883 124.817,227.138 124.350,228.548 123.655 C 231.497 122.204,232.243 121.056,232.837 117.066 C 233.038 115.710,233.378 113.880,233.592 113.000 C 234.842 107.858,233.193 103.399,229.320 101.446 C 227.863 100.711,227.600 100.663,227.600 101.136 M158.400 102.543 C 158.400 102.828,157.930 103.497,157.355 104.030 C 154.965 106.249,153.049 109.638,152.171 113.200 C 151.111 117.499,151.533 118.485,155.600 121.212 C 157.638 122.578,161.391 126.266,163.322 128.800 C 164.244 130.010,165.089 131.090,165.200 131.200 C 165.311 131.310,166.191 132.438,167.155 133.707 C 174.868 143.857,185.386 146.155,199.200 140.708 C 203.407 139.049,211.772 133.803,212.670 132.260 C 212.817 132.007,212.592 132.094,212.169 132.453 C 205.025 138.525,184.110 138.440,175.117 132.304 C 172.095 130.242,172.261 130.001,176.713 129.993 C 181.071 129.985,186.474 129.207,193.200 127.619 C 194.190 127.385,195.589 127.081,196.310 126.943 C 197.030 126.805,197.716 126.536,197.833 126.346 C 197.951 126.156,198.399 126.000,198.829 126.000 C 199.259 126.000,199.923 125.839,200.305 125.642 C 200.687 125.445,202.260 124.685,203.800 123.954 C 208.367 121.784,212.673 118.819,216.400 115.276 C 217.758 113.985,220.510 112.244,223.797 110.597 C 225.698 109.644,226.288 107.998,224.728 108.002 C 223.308 108.006,221.839 108.924,218.477 111.906 C 207.469 121.670,199.155 125.502,184.800 127.429 C 174.804 128.772,169.258 127.492,162.166 122.209 C 160.387 120.884,158.436 119.440,157.830 119.000 C 156.738 118.207,156.726 118.151,156.504 112.491 L 156.281 106.782 157.625 105.091 C 158.365 104.161,159.112 103.340,159.285 103.267 C 159.799 103.049,159.645 102.503,159.000 102.255 C 158.657 102.124,158.400 102.247,158.400 102.543 M258.200 137.200 L 257.000 137.505 258.076 137.553 C 258.668 137.579,259.264 137.420,259.400 137.200 C 259.536 136.980,259.592 136.821,259.524 136.847 C 259.456 136.873,258.860 137.032,258.200 137.200 M121.200 195.951 C 121.200 196.144,120.255 197.261,119.100 198.435 C 117.945 199.608,117.568 200.063,118.263 199.445 C 118.957 198.827,119.625 198.385,119.746 198.461 C 119.935 198.580,122.000 196.070,122.000 195.722 C 122.000 195.655,121.820 195.600,121.600 195.600 C 121.380 195.600,121.200 195.758,121.200 195.951 M282.200 206.073 C 282.640 206.320,283.540 206.869,284.200 207.293 C 285.297 207.997,285.281 207.957,284.015 206.832 C 283.253 206.154,282.353 205.605,282.015 205.612 C 281.566 205.621,281.615 205.745,282.200 206.073 M281.628 206.676 C 281.718 207.715,282.344 208.596,282.372 207.724 C 282.387 207.242,282.220 206.736,282.000 206.600 C 281.780 206.464,281.613 206.498,281.628 206.676 M285.600 208.127 C 285.600 208.289,286.410 209.231,287.400 210.221 C 288.390 211.211,289.200 211.874,289.200 211.694 C 289.200 211.514,288.390 210.572,287.400 209.600 C 286.410 208.628,285.600 207.966,285.600 208.127 M280.645 213.388 C 280.280 213.944,280.122 214.400,280.295 214.400 C 280.684 214.400,281.719 212.786,281.482 212.549 C 281.386 212.453,281.010 212.831,280.645 213.388 M289.618 212.600 C 289.618 212.820,289.970 213.450,290.400 214.000 C 290.830 214.550,291.182 214.820,291.182 214.600 C 291.182 214.380,290.830 213.750,290.400 213.200 C 289.970 212.650,289.618 212.380,289.618 212.600 M284.538 217.106 C 284.285 217.268,284.881 217.418,285.863 217.439 C 286.954 217.463,287.445 217.348,287.125 217.145 C 286.476 216.733,285.155 216.714,284.538 217.106 M281.390 218.016 C 281.221 218.289,281.523 218.338,282.266 218.160 C 283.799 217.792,283.944 217.600,282.690 217.600 C 282.117 217.600,281.532 217.787,281.390 218.016 M301.293 234.000 C 301.293 234.770,301.375 235.085,301.476 234.700 C 301.576 234.315,301.576 233.685,301.476 233.300 C 301.375 232.915,301.293 233.230,301.293 234.000 M99.693 245.600 C 99.693 246.370,99.775 246.685,99.876 246.300 C 99.976 245.915,99.976 245.285,99.876 244.900 C 99.775 244.515,99.693 244.830,99.693 245.600 M109.720 267.600 C 109.720 268.810,109.795 269.305,109.887 268.700 C 109.978 268.095,109.978 267.105,109.887 266.500 C 109.795 265.895,109.720 266.390,109.720 267.600 M297.100 269.044 C 297.982 269.437,297.635 270.631,296.500 271.107 C 295.429 271.556,295.437 271.562,296.800 271.342 C 299.099 270.970,299.711 269.101,297.596 268.910 C 297.048 268.861,296.825 268.921,297.100 269.044 M89.317 271.764 C 87.245 272.706,83.434 275.427,82.167 276.871 C 81.521 277.607,80.433 278.607,79.749 279.094 C 79.065 279.581,78.280 280.524,78.004 281.190 C 77.729 281.855,77.370 282.400,77.207 282.400 C 77.044 282.400,77.003 282.879,77.115 283.465 C 77.274 284.299,77.187 284.480,76.713 284.299 C 76.274 284.130,75.980 284.488,75.650 285.592 C 75.398 286.431,74.924 287.220,74.596 287.346 C 74.268 287.472,74.000 287.851,74.000 288.187 C 74.000 288.524,73.809 288.800,73.576 288.800 C 73.343 288.800,73.264 288.980,73.400 289.200 C 73.536 289.420,73.444 289.600,73.195 289.600 C 72.946 289.600,72.473 289.870,72.143 290.200 C 71.813 290.530,71.659 290.800,71.800 290.800 C 72.226 290.800,71.052 291.825,70.300 292.110 C 69.915 292.256,69.600 292.571,69.600 292.811 C 69.600 293.051,69.420 293.136,69.200 293.000 C 68.980 292.864,68.800 292.923,68.800 293.132 C 68.800 293.340,68.575 293.492,68.300 293.470 C 67.514 293.404,64.400 294.399,64.400 294.715 C 64.401 294.872,60.801 294.948,56.400 294.884 C 51.053 294.806,48.400 294.906,48.400 295.184 C 48.400 295.413,47.972 295.600,47.449 295.600 C 45.333 295.600,39.834 299.300,40.684 300.151 C 40.821 300.288,40.633 300.400,40.267 300.400 C 39.867 300.400,39.600 300.720,39.600 301.200 C 39.600 301.640,39.420 302.000,39.200 302.000 C 38.980 302.000,38.800 302.360,38.800 302.800 C 38.800 303.240,38.620 303.600,38.400 303.600 C 38.173 303.600,38.000 304.773,38.000 306.320 C 38.000 307.816,37.804 309.236,37.565 309.475 C 37.252 309.788,37.252 309.985,37.565 310.178 C 37.842 310.349,38.000 312.321,38.000 315.600 C 38.000 318.604,38.167 320.856,38.400 321.000 C 38.623 321.138,38.800 323.004,38.800 325.224 C 38.800 327.608,38.960 329.200,39.200 329.200 C 39.444 329.200,39.600 331.059,39.600 333.976 C 39.600 336.729,39.431 338.858,39.200 339.000 C 38.980 339.136,38.800 340.126,38.800 341.200 C 38.800 342.274,38.620 343.264,38.400 343.400 C 38.180 343.536,38.000 344.177,38.000 344.824 C 38.000 345.471,37.820 346.000,37.600 346.000 C 37.380 346.000,37.200 346.450,37.200 347.000 C 37.200 347.550,37.020 348.000,36.800 348.000 C 36.580 348.000,36.400 348.360,36.400 348.800 C 36.400 349.240,36.220 349.600,36.000 349.600 C 35.780 349.600,35.600 349.960,35.600 350.400 C 35.600 350.840,35.420 351.200,35.200 351.200 C 34.980 351.200,34.800 351.560,34.800 352.000 C 34.800 352.440,34.620 352.800,34.400 352.800 C 34.180 352.800,34.000 353.160,34.000 353.600 C 34.000 354.040,33.820 354.400,33.600 354.400 C 33.380 354.400,33.200 354.940,33.200 355.600 C 33.200 356.260,33.020 356.800,32.800 356.800 C 32.580 356.800,32.400 357.340,32.400 358.000 C 32.400 358.660,32.220 359.200,32.000 359.200 C 31.472 359.200,31.472 366.273,32.000 366.600 C 32.220 366.736,32.400 367.109,32.400 367.429 C 32.400 370.250,38.911 374.273,44.700 375.029 C 45.855 375.180,46.800 375.460,46.800 375.652 C 46.800 375.843,47.430 376.000,48.200 376.000 C 48.970 376.000,49.600 376.180,49.600 376.400 C 49.600 376.620,50.140 376.800,50.800 376.800 C 51.460 376.800,52.000 376.980,52.000 377.200 C 52.000 377.420,52.540 377.600,53.200 377.600 C 53.860 377.600,54.400 377.780,54.400 378.000 C 54.400 378.220,54.940 378.400,55.600 378.400 C 56.260 378.400,56.800 378.580,56.800 378.800 C 56.800 379.020,57.329 379.200,57.976 379.200 C 58.623 379.200,59.264 379.380,59.400 379.600 C 59.536 379.820,60.277 380.000,61.047 380.000 C 61.879 380.000,62.347 380.162,62.200 380.400 C 62.053 380.638,62.521 380.800,63.353 380.800 C 64.123 380.800,64.852 380.960,64.973 381.156 C 65.180 381.492,66.193 381.728,69.703 382.258 C 70.529 382.382,71.305 382.645,71.426 382.842 C 71.548 383.039,72.357 383.200,73.224 383.200 C 74.091 383.200,74.800 383.380,74.800 383.600 C 74.800 383.820,75.509 384.000,76.376 384.000 C 77.243 384.000,78.064 384.180,78.200 384.400 C 78.336 384.620,79.146 384.800,80.000 384.800 C 80.854 384.800,81.664 384.980,81.800 385.200 C 81.936 385.420,82.746 385.600,83.600 385.600 C 84.454 385.600,85.264 385.780,85.400 386.000 C 85.536 386.220,86.256 386.400,87.000 386.400 C 87.744 386.400,88.452 386.561,88.574 386.758 C 88.695 386.955,89.471 387.210,90.297 387.326 C 92.383 387.617,94.057 388.000,95.000 388.400 C 95.440 388.587,96.250 388.831,96.800 388.942 C 97.350 389.054,98.610 389.354,99.600 389.610 C 100.590 389.866,101.660 390.119,101.978 390.172 C 102.296 390.226,102.627 390.480,102.712 390.737 C 102.798 390.995,103.034 391.103,103.236 390.977 C 103.623 390.738,106.329 391.536,106.980 392.082 C 107.189 392.257,107.763 392.400,108.256 392.400 C 108.749 392.400,109.264 392.580,109.400 392.800 C 109.536 393.020,109.997 393.200,110.424 393.200 C 110.851 393.200,111.200 393.375,111.200 393.588 C 111.200 394.361,116.008 393.308,116.800 392.362 C 117.202 391.882,119.158 391.608,119.399 391.999 C 119.536 392.219,120.267 392.400,121.024 392.400 C 121.781 392.400,122.400 392.580,122.400 392.800 C 122.400 393.020,123.289 393.200,124.376 393.200 C 125.463 393.200,126.464 393.380,126.600 393.600 C 126.736 393.820,128.356 394.000,130.200 394.000 C 132.044 394.000,133.664 393.820,133.800 393.600 C 133.936 393.380,134.746 393.200,135.600 393.200 C 136.454 393.200,137.264 393.020,137.400 392.800 C 137.536 392.580,138.076 392.400,138.600 392.400 C 139.124 392.400,139.664 392.220,139.800 392.000 C 139.936 391.780,140.397 391.600,140.824 391.600 C 141.251 391.600,141.602 391.465,141.605 391.300 C 141.607 391.135,142.355 390.642,143.267 390.205 C 145.306 389.228,152.000 382.752,152.000 381.757 C 152.000 381.629,152.329 381.046,152.730 380.462 C 153.132 379.878,153.690 378.770,153.971 378.000 C 154.251 377.230,154.618 376.240,154.785 375.800 C 155.650 373.526,156.000 371.979,156.000 370.434 C 156.000 369.062,156.157 368.684,156.800 368.516 C 157.240 368.401,157.600 368.148,157.600 367.953 C 157.600 367.759,157.883 367.600,158.229 367.600 C 159.105 367.600,160.357 366.319,159.696 366.099 C 159.401 366.000,159.200 365.218,159.200 364.167 C 159.200 363.195,159.020 362.400,158.800 362.400 C 158.580 362.400,158.400 361.871,158.400 361.224 C 158.400 360.577,158.220 359.936,158.000 359.800 C 157.780 359.664,157.600 359.203,157.600 358.776 C 157.600 358.349,157.420 358.000,157.200 358.000 C 156.980 358.000,156.800 357.735,156.800 357.412 C 156.800 357.089,156.431 356.168,155.980 355.365 C 155.530 354.563,155.240 353.827,155.336 353.730 C 155.480 353.586,151.745 348.298,149.877 346.000 C 149.609 345.670,148.761 344.594,147.994 343.610 C 147.228 342.625,146.372 341.575,146.094 341.275 C 145.816 340.976,145.097 340.071,144.496 339.265 C 143.896 338.459,143.242 337.683,143.044 337.540 C 142.846 337.398,142.787 337.010,142.914 336.680 C 143.054 336.315,142.875 336.008,142.457 335.899 C 141.672 335.694,138.075 330.565,134.392 324.400 C 132.020 320.430,131.463 319.476,129.645 316.269 C 124.472 307.141,114.449 291.964,107.280 282.400 C 106.537 281.410,105.541 280.073,105.065 279.429 C 99.958 272.513,94.024 269.625,89.317 271.764 M97.600 272.938 C 101.126 274.566,106.135 280.826,110.309 288.821 C 111.394 290.899,113.059 293.860,114.009 295.400 C 115.905 298.473,121.200 307.602,121.200 307.796 C 121.200 308.381,126.807 317.018,130.550 322.200 C 134.457 327.609,136.929 331.613,139.809 337.200 C 141.437 340.358,143.030 342.863,144.262 344.202 C 159.276 360.512,157.857 382.545,141.299 390.206 C 140.034 390.791,138.687 391.434,138.305 391.635 C 137.923 391.836,137.169 392.000,136.629 392.000 C 136.089 392.000,135.536 392.180,135.400 392.400 C 135.088 392.905,126.299 392.932,124.628 392.434 C 120.376 391.165,117.684 390.310,116.900 389.979 C 116.405 389.771,115.595 389.444,115.100 389.254 C 114.605 389.063,113.750 388.719,113.200 388.490 C 111.022 387.583,106.535 385.885,105.400 385.539 C 102.388 384.621,96.396 383.089,94.400 382.726 C 93.190 382.506,91.390 382.163,90.400 381.963 C 88.209 381.521,85.011 380.939,81.800 380.397 C 80.480 380.175,78.500 379.821,77.400 379.611 C 76.300 379.402,74.770 379.126,74.000 378.999 C 73.230 378.871,71.925 378.595,71.100 378.384 C 70.275 378.173,68.835 377.805,67.900 377.567 C 63.758 376.512,62.953 376.291,62.200 376.000 C 61.760 375.830,60.590 375.470,59.600 375.199 C 58.610 374.929,57.350 374.551,56.800 374.360 C 56.250 374.169,53.387 373.376,50.438 372.598 C 36.799 368.998,34.755 364.950,40.465 352.855 C 44.724 343.834,45.438 337.419,43.588 324.800 C 42.936 320.352,42.629 308.400,43.166 308.400 C 43.405 308.400,43.600 307.860,43.600 307.200 C 43.600 306.540,43.780 306.000,44.000 306.000 C 44.220 306.000,44.400 305.765,44.400 305.478 C 44.400 302.675,51.035 299.689,56.600 299.987 C 66.504 300.518,72.133 300.240,74.027 299.126 C 78.015 296.781,80.370 292.505,81.145 286.200 C 82.112 278.342,82.748 276.983,87.049 273.600 C 89.775 271.455,93.836 271.200,97.600 272.938 M277.149 276.125 C 277.543 276.610,278.317 276.800,279.896 276.800 C 282.433 276.800,282.387 276.511,280.663 281.600 C 278.587 287.727,278.382 293.428,280.044 298.826 C 281.404 303.242,288.111 311.200,290.474 311.200 C 290.785 311.200,291.239 311.399,291.483 311.643 C 293.725 313.885,303.454 311.428,307.642 307.561 C 308.572 306.703,309.499 306.000,309.701 306.000 C 310.596 306.000,316.483 301.519,319.424 298.600 C 325.010 293.055,328.382 286.923,328.396 282.288 L 328.400 280.776 329.561 281.634 C 330.199 282.106,330.958 282.414,331.247 282.318 C 331.544 282.219,331.214 281.896,330.486 281.574 C 329.779 281.261,329.200 280.869,329.200 280.702 C 329.200 280.536,328.818 280.400,328.350 280.400 C 327.639 280.400,327.534 280.580,327.709 281.500 C 327.928 282.656,327.197 286.936,326.694 287.440 C 326.532 287.601,326.400 287.987,326.400 288.297 C 326.400 288.607,325.481 290.242,324.358 291.931 C 314.133 307.300,294.323 313.057,283.918 303.683 C 279.060 299.306,278.132 286.876,282.079 279.061 C 283.127 276.985,282.846 276.540,280.333 276.304 C 279.160 276.194,277.840 275.957,277.400 275.777 C 276.688 275.486,276.660 275.524,277.149 276.125 M318.336 278.998 C 317.890 279.444,318.496 281.538,319.013 281.340 C 320.612 280.726,323.666 283.499,322.748 284.731 C 322.474 285.099,322.848 284.833,323.578 284.139 C 325.067 282.726,325.069 280.900,323.582 280.511 C 323.152 280.399,322.800 280.177,322.800 280.018 C 322.800 279.255,318.956 278.377,318.336 278.998 M260.052 282.809 C 258.286 284.657,258.231 285.313,258.213 305.000 C 258.191 328.286,258.024 330.494,254.820 349.900 C 254.611 351.165,254.242 354.090,253.999 356.400 C 253.756 358.710,253.387 361.153,253.179 361.828 C 252.480 364.095,252.692 365.085,254.000 365.664 C 254.660 365.956,255.200 366.331,255.200 366.498 C 255.200 366.664,255.560 366.800,256.000 366.800 C 256.737 366.800,256.800 367.067,256.800 370.200 C 256.800 372.200,256.965 373.600,257.200 373.600 C 257.420 373.600,257.600 374.219,257.600 374.976 C 257.600 375.733,257.780 376.464,258.000 376.600 C 258.220 376.736,258.400 377.197,258.400 377.624 C 258.400 378.051,258.580 378.400,258.800 378.400 C 259.020 378.400,259.200 378.676,259.200 379.014 C 259.200 379.351,260.325 380.778,261.700 382.184 C 268.096 388.725,279.390 391.643,291.115 389.785 C 292.564 389.555,292.945 389.644,293.562 390.357 C 293.965 390.820,294.588 391.200,294.947 391.200 C 295.306 391.200,295.600 391.380,295.600 391.600 C 295.600 391.820,295.960 392.000,296.400 392.000 C 296.840 392.000,297.200 392.201,297.200 392.447 C 297.200 392.706,297.614 392.814,298.188 392.704 C 298.801 392.587,299.079 392.671,298.922 392.926 C 298.766 393.179,298.936 393.233,299.367 393.068 C 299.751 392.921,300.220 392.800,300.410 392.800 C 300.779 392.800,305.772 388.700,306.847 387.514 C 307.203 387.121,307.586 386.800,307.699 386.800 C 307.812 386.800,309.411 385.315,311.253 383.500 C 313.095 381.685,315.412 379.575,316.401 378.811 C 317.391 378.048,318.491 377.103,318.847 376.711 C 319.203 376.320,319.615 376.000,319.764 376.000 C 320.063 376.000,320.368 375.769,322.389 374.009 C 323.153 373.344,323.900 372.800,324.049 372.800 C 324.321 372.800,328.181 370.346,329.083 369.600 C 329.349 369.380,329.844 369.200,330.183 369.200 C 330.522 369.200,330.800 369.040,330.800 368.843 C 330.800 368.647,331.475 368.196,332.300 367.841 C 333.863 367.169,335.609 366.210,337.350 365.070 C 337.912 364.701,338.648 364.400,338.986 364.400 C 339.324 364.400,339.600 364.220,339.600 364.000 C 339.600 363.780,339.945 363.600,340.367 363.600 C 340.788 363.600,341.193 363.465,341.267 363.300 C 341.340 363.135,342.210 362.621,343.200 362.158 C 344.190 361.695,346.150 360.750,347.556 360.058 C 348.962 359.366,350.344 358.800,350.628 358.800 C 350.911 358.800,351.381 358.574,351.671 358.298 C 351.962 358.021,353.100 357.347,354.200 356.798 C 355.300 356.250,356.549 355.486,356.975 355.101 C 357.402 354.715,357.972 354.400,358.242 354.400 C 358.512 354.400,358.793 354.264,358.867 354.097 C 358.940 353.930,359.810 353.170,360.800 352.407 C 362.972 350.734,365.200 348.406,365.200 347.810 C 365.200 347.572,365.560 347.117,366.000 346.800 C 366.440 346.483,366.800 345.903,366.800 345.512 C 366.800 345.120,366.980 344.800,367.200 344.800 C 367.420 344.800,367.600 344.451,367.600 344.024 C 367.600 343.597,367.780 343.136,368.000 343.000 C 368.220 342.864,368.400 341.323,368.400 339.576 C 368.400 337.725,368.233 336.400,368.000 336.400 C 367.780 336.400,367.600 336.113,367.600 335.762 C 367.600 334.975,366.184 332.907,364.819 331.699 L 363.800 330.797 363.553 334.017 C 362.943 341.988,358.718 346.117,343.734 353.387 C 339.810 355.290,336.240 357.050,335.800 357.297 C 334.770 357.876,329.273 360.774,328.103 361.354 C 327.610 361.599,327.205 361.935,327.203 362.100 C 327.201 362.265,327.023 362.400,326.808 362.400 C 325.977 362.400,320.259 366.358,315.917 369.938 C 313.901 371.601,311.202 374.064,308.037 377.131 C 303.741 381.295,299.763 384.328,296.400 386.006 C 294.970 386.719,293.487 387.460,293.105 387.651 C 292.723 387.843,292.059 388.000,291.629 388.000 C 291.199 388.000,290.750 388.157,290.631 388.350 C 290.350 388.805,286.498 389.295,283.200 389.295 C 279.902 389.295,276.050 388.805,275.769 388.350 C 275.650 388.157,275.111 388.000,274.571 388.000 C 274.031 388.000,273.277 387.841,272.895 387.647 C 272.513 387.452,271.660 387.068,271.000 386.793 C 270.340 386.518,269.350 386.097,268.800 385.857 C 267.350 385.225,263.102 382.374,262.400 381.562 C 260.785 379.693,260.400 379.160,260.400 378.795 C 260.400 378.578,260.220 378.400,260.000 378.400 C 259.780 378.400,259.600 378.128,259.600 377.795 C 259.600 377.462,259.438 376.877,259.239 376.495 C 257.901 373.920,257.650 362.791,258.764 355.400 C 258.996 353.860,259.288 351.700,259.414 350.600 C 259.539 349.500,259.803 348.240,260.000 347.800 C 260.197 347.360,260.449 346.190,260.560 345.200 C 260.671 344.210,260.958 342.320,261.197 341.000 C 261.436 339.680,261.763 337.520,261.922 336.200 C 262.082 334.880,262.344 333.595,262.503 333.344 C 263.724 331.423,263.040 285.436,261.769 283.985 C 261.470 283.644,261.333 282.977,261.462 282.485 C 261.774 281.291,261.426 281.371,260.052 282.809 M314.237 288.247 C 314.057 288.716,314.163 288.823,314.628 288.645 C 314.979 288.510,315.641 288.400,316.099 288.400 C 317.139 288.400,316.923 288.190,315.542 287.859 C 314.775 287.675,314.416 287.782,314.237 288.247 M334.952 291.198 C 335.098 292.957,335.394 294.859,335.609 295.424 C 335.824 295.990,336.000 297.464,336.000 298.700 C 336.000 301.226,337.071 303.885,338.428 304.728 C 339.477 305.379,339.927 305.016,339.306 304.021 C 339.051 303.612,338.809 301.637,338.768 299.630 C 338.728 297.624,338.538 295.885,338.347 295.767 C 338.156 295.649,338.000 294.933,338.000 294.176 C 338.000 293.419,337.820 292.800,337.600 292.800 C 337.380 292.800,337.200 292.566,337.200 292.280 C 337.200 291.544,336.259 289.607,335.900 289.603 C 335.735 289.601,335.600 289.240,335.600 288.800 C 335.600 288.360,335.394 288.000,335.142 288.000 C 334.815 288.000,334.761 288.909,334.952 291.198 M151.600 311.725 C 151.600 311.794,152.185 312.379,152.900 313.025 L 154.200 314.200 153.025 312.900 C 151.930 311.688,151.600 311.416,151.600 311.725 M345.600 317.200 C 345.600 317.420,345.780 317.600,346.000 317.600 C 346.220 317.600,346.400 317.788,346.400 318.017 C 346.400 318.650,349.253 321.600,349.864 321.600 C 350.159 321.600,350.400 321.780,350.400 322.000 C 350.400 322.220,350.760 322.400,351.200 322.400 C 351.640 322.400,352.000 322.302,352.000 322.182 C 352.000 321.774,350.038 320.000,349.587 320.000 C 349.340 320.000,348.446 319.280,347.600 318.400 C 346.021 316.756,345.600 316.504,345.600 317.200 " stroke="none" fill="#996005" fill-rule="evenodd"></path><path id="path3" d="M161.800 62.078 C 160.172 63.001,159.911 64.711,161.200 66.000 C 162.257 67.057,162.283 67.006,160.100 68.067 C 159.055 68.575,156.869 70.304,155.242 71.909 L 152.283 74.826 152.516 80.513 C 152.927 90.538,154.414 96.259,157.610 100.100 C 159.248 102.068,159.901 101.997,162.568 99.560 C 165.054 97.287,165.204 96.934,163.890 96.434 C 159.053 94.595,155.533 85.384,157.245 79.046 C 160.715 66.202,173.600 72.411,173.600 86.928 C 173.600 91.919,174.010 91.944,177.233 87.151 L 179.687 83.501 179.447 81.051 C 179.048 76.960,178.733 75.206,178.358 74.974 C 178.161 74.852,178.000 74.401,178.000 73.971 C 178.000 73.153,177.772 72.589,176.636 70.600 C 176.259 69.940,175.861 69.123,175.751 68.785 C 175.492 67.987,172.377 67.275,167.693 66.942 C 164.256 66.698,164.030 66.630,164.593 66.008 C 166.469 63.935,164.187 60.724,161.800 62.078 M217.600 64.286 C 217.270 64.405,216.640 64.816,216.200 65.199 C 215.602 65.720,214.388 65.955,211.400 66.126 C 202.727 66.625,197.200 69.173,197.200 72.674 C 197.200 73.177,196.983 74.398,196.719 75.388 C 196.031 77.958,196.808 81.251,199.298 86.324 L 201.325 90.453 204.062 91.831 C 206.981 93.301,207.162 93.249,206.156 91.232 C 200.580 80.055,209.464 67.080,219.322 72.004 C 221.364 73.024,224.400 75.819,224.400 76.679 C 224.400 76.966,224.580 77.200,224.800 77.200 C 225.020 77.200,225.200 77.472,225.200 77.805 C 225.200 78.138,225.358 78.723,225.551 79.105 C 228.882 85.700,224.090 97.200,218.011 97.200 C 215.191 97.200,218.972 98.923,224.916 100.347 C 230.503 101.685,236.100 84.080,232.825 75.467 C 232.426 74.417,227.229 70.323,223.922 68.454 C 222.668 67.745,221.539 66.837,221.411 66.436 C 220.950 64.982,218.893 63.822,217.600 64.286 M225.017 135.466 C 223.733 135.834,220.654 138.059,217.900 140.608 C 213.142 145.013,210.780 146.601,202.000 151.300 C 197.932 153.477,196.334 154.407,194.530 155.648 C 193.609 156.282,192.663 156.800,192.428 156.800 C 192.193 156.800,192.000 156.959,192.000 157.153 C 192.000 157.348,191.685 157.607,191.300 157.729 C 190.610 157.947,188.390 159.208,188.000 159.602 C 186.453 161.166,176.000 161.079,176.000 159.503 C 176.000 159.336,175.807 159.200,175.572 159.200 C 173.494 159.200,166.338 152.499,161.690 146.200 C 161.528 145.980,160.792 144.540,160.055 143.000 C 159.319 141.460,158.555 139.887,158.358 139.505 C 158.161 139.123,158.000 138.538,158.000 138.205 C 158.000 136.845,157.266 137.722,157.084 139.300 C 156.592 143.570,154.788 147.377,150.085 154.069 C 148.388 156.483,146.647 159.031,146.216 159.730 C 145.785 160.428,145.290 161.060,145.116 161.133 C 144.942 161.207,144.800 161.442,144.800 161.655 C 144.800 161.869,144.118 163.069,143.284 164.322 C 141.924 166.366,139.591 170.885,138.805 173.000 C 138.641 173.440,138.316 174.250,138.082 174.800 C 137.339 176.552,136.689 181.636,136.511 187.100 C 136.416 190.015,136.172 192.400,135.969 192.400 C 135.766 192.400,135.600 192.636,135.600 192.925 C 135.600 193.213,135.240 193.836,134.800 194.308 C 134.360 194.780,134.000 195.320,134.000 195.508 C 134.000 195.696,133.685 196.206,133.300 196.642 C 132.412 197.647,131.217 199.591,130.929 200.500 C 130.807 200.885,130.548 201.200,130.353 201.200 C 130.159 201.200,130.000 201.470,130.000 201.800 C 130.000 202.130,129.820 202.400,129.600 202.400 C 129.380 202.400,129.200 202.593,129.200 202.828 C 129.200 203.063,128.696 204.008,128.081 204.928 C 126.701 206.988,121.200 218.239,121.200 219.000 C 121.200 219.115,120.860 219.972,120.444 220.904 C 117.651 227.167,114.229 238.425,112.634 246.600 C 112.120 249.233,111.875 250.766,110.827 257.907 C 110.592 259.507,110.400 264.203,110.400 268.344 L 110.400 275.874 114.100 279.261 C 116.135 281.124,119.600 284.255,121.800 286.218 C 124.000 288.181,125.890 289.883,126.000 289.999 C 126.185 290.196,129.617 293.024,131.338 294.400 C 131.751 294.730,132.294 295.189,132.545 295.421 C 132.795 295.653,136.960 298.995,141.800 302.848 C 153.536 312.192,157.011 316.002,158.997 321.702 C 159.648 323.572,159.803 328.411,159.247 329.505 C 159.052 329.887,158.648 330.722,158.347 331.359 C 156.629 335.009,152.920 336.927,147.501 336.969 C 142.845 337.006,142.921 336.689,146.500 341.102 C 150.703 346.286,151.754 347.630,152.174 348.354 C 152.380 348.709,152.779 349.232,153.060 349.515 C 153.342 349.798,153.879 350.549,154.254 351.184 C 155.144 352.691,159.912 355.047,166.600 357.286 C 178.693 361.334,196.285 361.819,208.100 358.430 C 208.925 358.194,210.185 357.841,210.900 357.647 C 223.167 354.321,234.336 346.638,249.896 330.822 L 257.593 323.000 257.596 305.046 C 257.600 285.147,257.634 284.839,260.085 282.262 C 261.116 281.178,261.600 280.303,261.600 279.522 C 261.600 274.533,264.866 273.113,272.021 274.993 C 274.100 275.538,275.906 275.988,276.036 275.993 C 277.047 276.025,277.800 265.130,277.791 250.600 C 277.784 238.133,277.603 234.530,276.761 230.000 C 276.536 228.790,276.169 226.810,275.946 225.600 C 275.537 223.382,274.970 221.042,274.395 219.200 C 274.224 218.650,273.678 216.850,273.183 215.200 C 272.046 211.411,269.206 204.606,267.343 201.209 C 265.892 198.564,261.707 191.967,261.247 191.600 C 261.108 191.490,260.504 190.741,259.904 189.935 C 258.710 188.332,258.522 188.114,256.262 185.719 C 254.902 184.277,254.657 183.700,254.148 180.744 C 253.126 174.805,249.952 163.168,248.791 161.105 C 248.576 160.723,248.400 160.234,248.400 160.017 C 248.400 159.461,244.223 150.228,242.963 148.000 C 242.653 147.450,241.186 144.539,239.704 141.530 L 237.011 136.060 235.169 136.278 C 234.076 136.408,232.962 136.301,232.427 136.015 C 231.445 135.489,226.274 135.106,225.017 135.466 M233.600 188.224 C 238.873 189.467,241.118 190.455,244.200 192.890 C 246.686 194.855,247.149 195.556,245.787 195.296 C 245.244 195.192,244.800 194.948,244.800 194.753 C 244.800 194.559,244.440 194.400,244.000 194.400 C 243.560 194.400,243.200 194.220,243.200 194.000 C 243.200 193.780,242.851 193.600,242.424 193.600 C 241.997 193.600,241.536 193.420,241.400 193.200 C 241.264 192.980,240.713 192.800,240.176 192.800 C 239.639 192.800,239.200 192.620,239.200 192.400 C 239.200 192.180,238.838 192.000,238.395 192.000 C 237.952 192.000,237.277 191.841,236.895 191.647 C 236.513 191.452,235.660 191.071,235.000 190.800 C 234.340 190.529,233.487 190.148,233.105 189.953 C 232.723 189.759,232.048 189.600,231.605 189.600 C 231.162 189.600,230.800 189.420,230.800 189.200 C 230.800 188.980,230.260 188.800,229.600 188.800 C 228.940 188.800,228.400 188.631,228.400 188.424 C 228.400 188.217,227.725 187.978,226.900 187.891 C 226.043 187.802,226.600 187.708,228.200 187.673 C 229.740 187.639,232.170 187.887,233.600 188.224 " stroke="none" fill="#fbfbfa" fill-rule="evenodd"></path><path id="path4" d="M220.851 18.038 C 219.047 19.719,218.932 21.749,220.456 24.975 C 221.600 27.397,221.237 29.714,218.836 35.317 C 218.409 36.312,218.164 37.231,218.291 37.358 C 218.770 37.837,226.380 33.074,228.696 30.847 C 230.809 28.815,233.355 29.291,237.163 32.430 C 239.753 34.565,238.966 32.829,235.426 28.600 C 231.025 23.342,226.111 18.958,223.299 17.784 C 221.604 17.075,221.920 17.043,220.851 18.038 M227.322 55.058 C 227.084 55.680,228.090 56.800,228.889 56.800 C 229.496 56.800,229.700 55.602,229.196 54.995 C 228.543 54.208,227.637 54.239,227.322 55.058 M172.800 56.200 C 173.074 56.530,173.478 56.800,173.698 56.800 C 173.921 56.800,173.878 56.535,173.600 56.200 C 173.326 55.870,172.922 55.600,172.702 55.600 C 172.479 55.600,172.522 55.865,172.800 56.200 M212.600 57.225 C 200.582 58.583,192.374 74.349,197.965 85.332 C 199.046 87.455,200.012 89.419,200.111 89.696 C 200.210 89.973,200.438 90.062,200.618 89.894 C 200.798 89.726,200.117 87.926,199.104 85.894 C 196.803 81.275,196.041 77.921,196.719 75.388 C 196.983 74.398,197.200 73.177,197.200 72.674 C 197.200 69.173,202.727 66.625,211.400 66.126 C 214.360 65.956,215.608 65.717,216.200 65.208 C 218.024 63.638,219.965 63.956,221.117 66.014 C 221.494 66.690,222.784 67.796,224.000 68.489 C 227.267 70.349,232.433 74.434,232.825 75.467 C 235.224 81.775,232.374 95.685,227.861 99.703 C 227.427 100.089,227.208 100.539,227.375 100.703 C 227.542 100.866,228.214 100.370,228.870 99.600 C 235.083 92.304,235.755 77.035,230.297 67.200 C 226.332 60.054,219.856 56.404,212.600 57.225 M160.400 60.445 C 152.912 63.402,150.024 74.790,152.855 90.200 C 154.020 96.542,158.106 103.654,159.681 102.079 C 160.053 101.707,160.015 101.600,159.509 101.600 C 156.191 101.600,152.983 91.928,152.516 80.513 L 152.283 74.826 155.242 71.909 C 156.869 70.304,159.055 68.575,160.100 68.067 C 162.283 67.006,162.257 67.057,161.200 66.000 C 159.100 63.900,161.742 60.553,164.220 62.176 C 165.366 62.927,165.562 64.937,164.593 66.008 C 164.030 66.630,164.256 66.698,167.693 66.942 C 172.377 67.275,175.492 67.987,175.751 68.785 C 175.861 69.123,176.259 69.940,176.636 70.600 C 177.772 72.589,178.000 73.153,178.000 73.971 C 178.000 74.401,178.180 74.864,178.400 75.000 C 178.620 75.136,178.813 75.822,178.828 76.524 C 178.844 77.226,179.025 78.160,179.231 78.600 C 180.028 80.300,179.101 75.354,178.145 72.807 C 174.800 63.895,166.431 58.065,160.400 60.445 M211.308 71.638 C 206.105 74.231,203.245 81.504,204.952 87.800 C 205.667 90.436,206.872 93.142,207.425 93.354 C 207.669 93.448,207.393 92.596,206.811 91.462 C 200.148 78.464,212.750 64.955,222.376 74.776 C 229.363 81.903,225.701 96.800,216.962 96.800 C 216.213 96.800,215.600 96.996,215.600 97.235 C 215.600 97.857,218.611 97.286,220.372 96.330 C 225.897 93.331,228.449 84.842,225.551 79.105 C 225.358 78.723,225.200 78.138,225.200 77.805 C 225.200 77.472,225.020 77.200,224.800 77.200 C 224.580 77.200,224.400 76.966,224.400 76.679 C 224.400 73.228,215.214 69.692,211.308 71.638 M162.200 72.293 C 157.276 73.526,155.192 83.093,158.278 90.296 C 159.343 92.781,165.200 98.250,165.200 96.759 C 165.200 96.551,164.740 96.205,164.179 95.992 C 159.302 94.138,156.135 85.836,157.771 79.200 C 158.996 74.233,160.321 72.800,163.687 72.800 C 169.393 72.800,173.523 79.289,173.124 87.628 C 173.030 89.593,173.099 91.200,173.277 91.200 C 173.771 91.200,173.661 83.248,173.144 81.628 C 171.026 74.997,166.573 71.198,162.200 72.293 M216.700 75.757 C 215.646 76.557,215.801 76.921,218.300 79.520 C 221.785 83.146,223.625 83.676,222.806 80.820 C 222.128 78.457,218.780 74.943,217.462 75.213 C 217.428 75.220,217.085 75.465,216.700 75.757 M164.255 76.600 C 163.934 77.438,167.732 81.314,168.682 81.117 C 169.202 81.010,169.378 80.642,169.319 79.784 C 169.165 77.534,164.921 74.865,164.255 76.600 M179.600 81.618 C 179.600 83.382,179.344 84.015,177.566 86.651 C 176.447 88.309,175.627 89.761,175.744 89.878 C 176.454 90.587,180.000 83.814,180.000 81.749 C 180.000 80.567,179.910 79.600,179.800 79.600 C 179.690 79.600,179.600 80.508,179.600 81.618 M246.991 120.558 C 246.183 121.790,246.488 123.057,248.397 126.400 C 249.214 127.830,250.481 130.139,251.213 131.530 C 255.164 139.042,262.400 138.853,262.400 131.237 C 262.400 128.096,257.375 122.800,254.395 122.800 C 254.178 122.800,254.000 122.658,254.000 122.485 C 254.000 120.736,247.962 119.076,246.991 120.558 M229.400 123.228 C 228.740 123.651,227.300 124.293,226.200 124.654 C 222.086 126.007,218.422 128.135,212.253 132.751 C 202.446 140.090,195.786 142.935,187.200 143.456 C 178.848 143.963,172.662 140.954,167.155 133.707 C 166.191 132.438,165.311 131.310,165.199 131.200 C 165.087 131.090,164.463 130.280,163.812 129.400 C 162.332 127.398,158.782 123.600,158.392 123.600 C 157.886 123.600,157.569 126.002,157.206 132.600 C 157.012 136.120,156.736 139.630,156.593 140.400 C 156.398 141.450,156.439 141.650,156.760 141.200 C 156.995 140.870,157.191 139.925,157.194 139.100 C 157.197 138.275,157.380 137.600,157.600 137.600 C 157.820 137.600,158.000 137.872,158.000 138.205 C 158.000 138.538,158.161 139.123,158.358 139.505 C 158.555 139.887,159.319 141.460,160.055 143.000 C 160.792 144.540,161.528 145.980,161.690 146.200 C 166.338 152.499,173.494 159.200,175.572 159.200 C 175.807 159.200,176.000 159.336,176.000 159.503 C 176.000 161.079,186.453 161.166,188.000 159.602 C 188.390 159.208,190.610 157.947,191.300 157.729 C 191.685 157.607,192.000 157.348,192.000 157.153 C 192.000 156.959,192.193 156.800,192.428 156.800 C 192.663 156.800,193.609 156.282,194.530 155.648 C 196.334 154.407,197.932 153.477,202.000 151.300 C 210.780 146.601,213.142 145.013,217.900 140.608 C 223.295 135.613,226.431 134.404,230.800 135.636 C 231.790 135.915,233.603 136.146,234.829 136.149 L 237.057 136.155 239.728 141.578 C 241.196 144.560,242.653 147.450,242.963 148.000 C 244.223 150.228,248.400 159.461,248.400 160.017 C 248.400 160.234,248.576 160.723,248.791 161.105 C 249.952 163.168,253.126 174.805,254.148 180.744 C 254.657 183.700,254.902 184.277,256.262 185.719 C 258.522 188.114,258.710 188.332,259.904 189.935 C 260.504 190.741,261.108 191.490,261.247 191.600 C 261.707 191.967,265.892 198.564,267.343 201.209 C 269.206 204.606,272.046 211.411,273.183 215.200 C 273.678 216.850,274.224 218.650,274.395 219.200 C 274.970 221.042,275.537 223.382,275.946 225.600 C 276.169 226.810,276.536 228.790,276.761 230.000 C 278.299 238.268,278.172 265.653,276.555 274.800 C 276.386 275.754,276.438 276.073,276.718 275.800 C 278.151 274.404,279.153 244.665,278.059 236.000 C 277.189 229.114,276.874 227.351,275.376 221.009 C 272.402 208.415,263.319 191.092,256.809 185.600 C 255.724 184.685,254.800 182.879,254.800 181.674 C 254.800 180.895,254.631 179.704,254.424 179.028 C 254.217 178.353,253.838 176.720,253.581 175.400 C 253.324 174.080,252.975 172.550,252.804 172.000 C 252.633 171.450,252.268 170.190,251.993 169.200 C 249.980 161.954,247.819 156.796,241.019 143.000 C 237.874 136.620,234.735 129.958,234.044 128.195 C 231.789 122.447,231.350 121.978,229.400 123.228 M155.696 143.440 C 155.225 145.008,150.351 153.519,149.660 153.979 C 147.505 155.413,136.878 174.212,137.737 175.070 C 137.871 175.205,138.092 174.974,138.227 174.557 C 139.094 171.885,141.524 166.967,143.284 164.322 C 144.118 163.069,144.800 161.869,144.800 161.655 C 144.800 161.442,144.942 161.207,145.116 161.133 C 145.290 161.060,145.785 160.428,146.216 159.730 C 146.647 159.031,148.405 156.459,150.122 154.015 C 153.565 149.115,156.536 143.601,156.324 142.506 C 156.242 142.080,155.993 142.450,155.696 143.440 M136.652 178.227 C 136.254 179.806,135.859 183.325,135.735 186.400 L 135.518 191.800 133.692 194.595 C 131.967 197.238,130.430 199.754,128.744 202.700 C 128.335 203.415,127.614 204.675,127.143 205.500 C 125.480 208.410,122.749 214.083,122.926 214.259 C 123.025 214.358,123.971 212.675,125.028 210.519 C 126.086 208.364,127.457 205.848,128.076 204.928 C 128.694 204.008,129.200 203.063,129.200 202.828 C 129.200 202.593,129.380 202.400,129.600 202.400 C 129.820 202.400,130.000 202.130,130.000 201.800 C 130.000 201.470,130.159 201.200,130.353 201.200 C 130.548 201.200,130.807 200.885,130.929 200.500 C 131.217 199.591,132.412 197.647,133.300 196.642 C 133.685 196.206,134.000 195.696,134.000 195.508 C 134.000 195.320,134.360 194.780,134.800 194.308 C 135.240 193.836,135.600 193.213,135.600 192.925 C 135.600 192.636,135.766 192.400,135.969 192.400 C 136.172 192.400,136.414 190.015,136.507 187.100 C 136.601 184.185,136.899 180.583,137.170 179.096 C 137.846 175.395,137.508 174.829,136.652 178.227 M226.900 187.891 C 227.725 187.978,228.400 188.217,228.400 188.424 C 228.400 188.631,228.940 188.800,229.600 188.800 C 230.260 188.800,230.800 188.980,230.800 189.200 C 230.800 189.420,231.162 189.600,231.605 189.600 C 232.048 189.600,232.723 189.759,233.105 189.953 C 233.487 190.148,234.340 190.529,235.000 190.800 C 235.660 191.071,236.513 191.452,236.895 191.647 C 237.277 191.841,237.952 192.000,238.395 192.000 C 238.838 192.000,239.200 192.180,239.200 192.400 C 239.200 192.620,239.639 192.800,240.176 192.800 C 240.713 192.800,241.264 192.980,241.400 193.200 C 241.536 193.420,241.997 193.600,242.424 193.600 C 242.851 193.600,243.200 193.780,243.200 194.000 C 243.200 194.220,243.560 194.400,244.000 194.400 C 244.440 194.400,244.800 194.559,244.800 194.753 C 244.800 194.948,245.244 195.192,245.787 195.296 C 247.149 195.556,246.686 194.855,244.200 192.890 C 240.042 189.604,233.747 187.552,228.200 187.673 C 226.600 187.708,226.043 187.802,226.900 187.891 M275.982 191.892 C 276.302 192.018,276.873 192.409,277.252 192.761 C 277.631 193.112,278.989 194.024,280.270 194.788 C 301.261 207.291,306.519 231.009,295.472 263.363 L 293.709 268.525 290.910 269.855 C 288.309 271.091,285.729 273.060,287.800 272.229 C 289.421 271.578,291.456 271.219,293.600 271.204 C 297.279 271.179,299.269 269.784,296.760 268.987 C 295.687 268.647,295.803 267.985,297.989 262.000 C 298.914 259.470,299.819 256.860,300.002 256.200 C 300.185 255.540,300.717 253.740,301.184 252.200 C 308.110 229.395,301.690 207.986,284.469 196.456 C 280.470 193.779,276.564 191.586,275.875 191.632 C 275.607 191.649,275.654 191.763,275.982 191.892 M117.527 200.332 C 113.801 204.357,110.282 210.415,107.613 217.400 C 107.445 217.840,107.119 218.650,106.890 219.200 C 100.408 234.727,99.879 236.710,99.945 245.195 C 100.017 254.626,99.658 256.098,96.536 259.137 C 95.328 260.312,94.399 261.316,94.470 261.367 C 94.542 261.418,95.245 261.755,96.033 262.117 C 98.565 263.278,101.573 267.033,104.403 272.567 C 105.848 275.390,111.141 279.600,113.247 279.600 C 113.703 279.600,114.880 280.583,119.431 284.766 C 123.767 288.752,134.783 298.011,139.262 301.435 C 140.658 302.502,142.041 303.608,142.335 303.894 C 142.629 304.179,143.529 304.901,144.335 305.498 C 152.365 311.450,156.652 316.370,158.372 321.609 C 160.554 328.255,158.008 333.948,151.928 336.019 C 150.659 336.451,150.165 336.755,150.704 336.772 C 152.978 336.842,157.160 333.881,158.347 331.359 C 158.648 330.722,159.052 329.887,159.247 329.505 C 159.803 328.411,159.648 323.572,158.997 321.702 C 157.015 316.013,153.539 312.197,141.874 302.901 C 133.134 295.937,131.904 294.947,131.055 294.198 C 130.805 293.977,129.610 292.990,128.400 292.004 C 127.190 291.018,126.110 290.116,126.000 289.999 C 125.890 289.883,124.000 288.181,121.800 286.218 C 119.600 284.255,116.135 281.124,114.100 279.261 L 110.400 275.874 110.400 268.344 C 110.400 264.203,110.592 259.507,110.827 257.907 C 111.875 250.766,112.120 249.233,112.634 246.600 C 114.229 238.425,117.651 227.167,120.444 220.904 C 120.860 219.972,121.200 219.115,121.200 219.000 C 121.200 218.885,121.583 217.976,122.051 216.980 C 122.519 215.984,122.812 215.079,122.702 214.969 C 122.474 214.740,119.689 220.989,118.410 224.600 C 117.074 228.371,114.971 234.824,114.435 236.800 C 114.166 237.790,113.799 239.140,113.619 239.800 C 112.465 244.034,111.460 249.483,110.410 257.200 C 110.185 258.850,109.956 263.642,109.901 267.849 C 109.788 276.399,109.787 276.401,107.310 273.066 C 102.419 266.478,100.522 258.682,100.922 246.800 C 101.220 237.928,102.478 232.228,105.689 225.200 C 110.790 214.034,114.818 206.068,117.217 202.400 C 120.775 196.962,120.799 196.798,117.527 200.332 M281.943 206.700 C 282.702 208.218,283.118 210.003,282.765 210.222 C 282.564 210.346,282.400 210.797,282.400 211.224 C 282.400 211.651,282.220 212.000,282.000 212.000 C 281.780 212.000,281.600 212.236,281.600 212.525 C 281.600 212.813,281.285 213.398,280.900 213.825 C 280.515 214.251,279.930 215.140,279.601 215.800 C 279.271 216.460,278.843 217.115,278.649 217.255 C 278.456 217.396,278.421 217.711,278.572 217.955 C 278.899 218.485,281.058 218.553,281.373 218.044 C 281.841 217.286,285.969 216.913,288.325 217.415 C 290.668 217.915,291.890 215.904,290.400 214.000 C 289.970 213.450,289.614 212.861,289.609 212.691 C 289.594 212.191,285.479 208.218,283.779 207.063 C 281.956 205.824,281.456 205.726,281.943 206.700 M259.686 282.623 C 257.661 285.079,257.600 285.727,257.596 305.046 L 257.593 323.000 249.896 330.822 C 234.378 346.595,223.266 354.252,211.000 357.625 C 210.340 357.806,209.080 358.159,208.200 358.408 C 196.145 361.819,178.740 361.349,166.600 357.286 C 159.912 355.047,155.144 352.691,154.254 351.184 C 153.879 350.549,153.353 349.798,153.085 349.515 C 152.818 349.232,152.149 348.326,151.599 347.503 C 151.050 346.679,150.450 346.004,150.266 346.003 C 149.951 346.000,151.566 348.397,154.073 351.653 C 154.689 352.451,155.779 353.377,156.496 353.709 C 168.231 359.148,177.199 361.203,189.165 361.197 C 212.649 361.184,227.406 353.958,250.600 331.115 L 258.200 323.629 258.215 305.115 C 258.231 284.941,258.261 284.619,260.293 282.588 C 261.056 281.824,261.495 281.200,261.269 281.200 C 261.043 281.200,260.331 281.840,259.686 282.623 M318.562 281.900 C 318.148 283.257,316.592 286.057,315.900 286.687 C 314.029 288.391,316.529 288.472,319.836 286.815 C 323.599 284.930,323.973 283.238,320.943 281.800 C 319.306 281.023,318.823 281.044,318.562 281.900 M142.800 337.000 C 142.800 337.330,142.941 337.600,143.114 337.600 C 143.286 337.600,143.726 338.095,144.091 338.700 C 144.456 339.305,145.170 340.250,145.677 340.800 C 146.185 341.350,147.230 342.649,148.000 343.688 C 148.770 344.726,149.557 345.581,149.749 345.588 C 150.159 345.602,150.178 345.629,146.470 341.074 C 143.487 337.409,143.268 337.001,144.100 336.665 C 144.375 336.554,144.195 336.449,143.700 336.432 C 143.153 336.412,142.800 336.635,142.800 337.000 M145.900 337.089 C 146.615 337.178,147.785 337.178,148.500 337.089 C 149.215 337.001,148.630 336.928,147.200 336.928 C 145.770 336.928,145.185 337.001,145.900 337.089 " stroke="none" fill="#8d8d8c" fill-rule="evenodd"></path></g></svg>