<svg id="svg" version="1.1" xmlns="http://www.w3.org/2000/svg" xmlns:xlink="http://www.w3.org/1999/xlink" width="400" height="400" viewBox="0, 0, 400,400"><g id="svgg"><path id="path0" d="M388.200 0.292 C 386.880 0.375,385.629 0.614,385.420 0.822 C 385.211 1.030,383.917 1.200,382.544 1.200 C 381.171 1.200,379.936 1.380,379.800 1.600 C 379.664 1.820,378.483 2.000,377.176 2.000 C 375.859 2.000,374.800 2.178,374.800 2.400 C 374.800 2.629,373.600 2.800,372.000 2.800 C 370.400 2.800,369.200 2.971,369.200 3.200 C 369.200 3.429,368.000 3.600,366.400 3.600 C 364.800 3.600,363.600 3.771,363.600 4.000 C 363.600 4.226,362.467 4.400,361.000 4.400 C 359.533 4.400,358.400 4.574,358.400 4.800 C 358.400 5.029,357.200 5.200,355.600 5.200 C 354.000 5.200,352.800 5.371,352.800 5.600 C 352.800 5.820,351.798 6.000,350.574 6.000 C 349.349 6.000,348.019 6.176,347.617 6.391 C 347.215 6.606,345.959 6.815,344.827 6.855 C 343.695 6.895,342.675 7.079,342.560 7.264 C 342.446 7.449,341.193 7.600,339.776 7.600 C 338.325 7.600,337.200 7.775,337.200 8.000 C 337.200 8.229,336.000 8.400,334.400 8.400 C 332.797 8.400,331.600 8.571,331.600 8.801 C 331.600 9.039,330.707 9.138,329.400 9.045 C 328.190 8.959,327.200 9.018,327.200 9.177 C 327.200 9.336,326.975 9.479,326.700 9.494 C 326.425 9.509,325.300 9.621,324.200 9.742 C 323.100 9.863,321.210 10.070,320.000 10.202 C 316.289 10.608,315.170 10.829,315.352 11.120 C 315.447 11.274,314.529 11.337,313.311 11.260 C 312.093 11.183,310.715 11.309,310.248 11.541 C 309.439 11.942,308.442 12.080,302.300 12.643 C 300.815 12.779,299.600 13.050,299.600 13.245 C 299.600 13.440,298.430 13.600,297.000 13.600 C 295.533 13.600,294.400 13.774,294.400 14.000 C 294.400 14.229,293.200 14.400,291.600 14.400 C 290.000 14.400,288.800 14.571,288.800 14.800 C 288.800 15.028,287.611 15.200,286.033 15.200 C 284.405 15.200,283.207 15.378,283.122 15.633 C 283.039 15.883,281.932 16.061,280.500 16.054 C 279.137 16.047,277.916 16.212,277.787 16.421 C 277.658 16.629,276.393 16.800,274.976 16.800 C 273.525 16.800,272.400 16.975,272.400 17.200 C 272.400 17.424,271.293 17.600,269.880 17.600 C 268.494 17.600,267.189 17.764,266.980 17.965 C 266.625 18.306,265.450 18.473,259.400 19.042 C 258.080 19.166,256.829 19.432,256.620 19.634 C 256.411 19.835,255.121 20.000,253.753 20.000 C 252.386 20.000,251.206 20.181,251.132 20.403 C 251.058 20.625,249.785 20.825,248.302 20.847 C 246.820 20.869,245.706 21.048,245.827 21.244 C 245.948 21.440,244.777 21.600,243.224 21.600 C 241.608 21.600,240.400 21.771,240.400 22.000 C 240.400 22.225,239.275 22.400,237.824 22.400 C 236.407 22.400,235.136 22.580,235.000 22.800 C 234.864 23.020,233.604 23.200,232.200 23.200 C 230.796 23.200,229.536 23.380,229.400 23.600 C 229.264 23.820,227.993 24.000,226.576 24.000 C 225.125 24.000,224.000 24.175,224.000 24.400 C 224.000 24.625,222.875 24.800,221.424 24.800 C 220.007 24.800,218.738 24.977,218.604 25.194 C 218.470 25.411,217.373 25.546,216.166 25.494 C 214.959 25.442,213.843 25.580,213.686 25.800 C 213.529 26.020,212.410 26.198,211.200 26.194 C 209.990 26.191,208.788 26.337,208.530 26.519 C 208.271 26.700,206.970 26.894,205.639 26.949 C 204.308 27.003,203.094 27.172,202.943 27.324 C 202.791 27.476,201.527 27.600,200.133 27.600 C 198.711 27.600,197.600 27.775,197.600 28.000 C 197.600 28.225,196.475 28.400,195.024 28.400 C 193.607 28.400,192.336 28.580,192.200 28.800 C 192.064 29.020,190.804 29.200,189.400 29.200 C 187.996 29.200,186.736 29.380,186.600 29.600 C 186.464 29.820,186.003 30.000,185.576 30.000 C 185.116 30.000,184.787 30.285,184.768 30.700 C 184.751 31.085,184.649 31.185,184.543 30.922 C 184.436 30.660,184.089 30.544,183.772 30.666 C 182.966 30.976,182.906 188.963,183.712 189.769 C 183.990 190.047,184.606 190.482,185.082 190.737 C 186.339 191.409,397.114 191.404,398.591 190.731 C 400.103 190.042,400.027 195.625,399.909 94.400 L 399.800 0.200 395.200 0.170 C 392.670 0.153,389.520 0.208,388.200 0.292 M154.152 34.408 C 153.927 34.633,152.586 34.831,151.172 34.849 C 149.757 34.867,148.397 35.047,148.149 35.249 C 147.901 35.451,146.596 35.633,145.249 35.652 C 143.902 35.670,142.800 35.847,142.800 36.043 C 142.800 36.239,141.486 36.400,139.880 36.400 C 138.274 36.400,136.778 36.582,136.556 36.804 C 136.334 37.026,134.948 37.225,133.476 37.247 C 132.004 37.269,130.800 37.448,130.800 37.644 C 130.800 37.840,129.630 38.000,128.200 38.000 C 126.733 38.000,125.600 38.174,125.600 38.400 C 125.600 38.633,124.267 38.800,122.400 38.800 C 120.533 38.800,119.200 38.967,119.200 39.200 C 119.200 39.429,118.000 39.600,116.400 39.600 C 114.800 39.600,113.600 39.771,113.600 40.000 C 113.600 40.226,112.467 40.400,111.000 40.400 C 109.533 40.400,108.400 40.574,108.400 40.800 C 108.400 41.021,107.370 41.198,106.100 41.195 C 103.397 41.189,96.400 42.065,96.400 42.410 C 96.400 42.541,95.365 42.628,94.100 42.605 C 92.835 42.581,91.620 42.655,91.400 42.769 C 90.642 43.164,89.150 43.349,82.800 43.834 C 81.370 43.944,79.840 44.198,79.400 44.399 C 78.960 44.600,77.520 44.860,76.200 44.977 C 74.880 45.093,72.540 45.300,71.000 45.435 C 69.460 45.570,68.029 45.843,67.820 46.041 C 67.611 46.238,66.306 46.400,64.920 46.400 C 63.507 46.400,62.400 46.576,62.400 46.800 C 62.400 47.031,61.141 47.200,59.424 47.200 C 57.787 47.200,56.336 47.380,56.200 47.600 C 56.064 47.820,54.703 48.000,53.176 48.000 C 51.592 48.000,50.400 48.172,50.400 48.400 C 50.400 48.628,49.211 48.800,47.633 48.800 C 46.023 48.800,44.807 48.979,44.724 49.228 C 44.640 49.481,43.397 49.653,41.691 49.647 C 40.101 49.642,38.800 49.810,38.800 50.019 C 38.800 50.229,37.555 50.400,36.033 50.400 C 34.512 50.400,33.207 50.567,33.133 50.771 C 33.004 51.132,31.115 51.374,24.700 51.853 C 22.995 51.981,21.600 52.246,21.600 52.442 C 21.600 52.639,20.340 52.800,18.800 52.800 C 17.200 52.800,16.000 52.971,16.000 53.200 C 16.000 53.431,14.744 53.600,13.033 53.600 C 11.402 53.600,10.007 53.778,9.933 53.996 C 9.860 54.214,8.630 54.417,7.200 54.447 C 5.770 54.477,4.505 54.651,4.388 54.833 C 4.271 55.014,3.518 55.207,2.714 55.262 C 1.910 55.316,1.341 55.504,1.449 55.680 C 1.558 55.856,1.277 56.000,0.824 56.000 L 0.000 56.000 0.006 122.700 C 0.009 159.385,0.144 189.598,0.306 189.840 C 1.205 191.186,1.554 191.192,81.989 191.198 C 163.376 191.204,162.437 191.220,163.892 189.765 C 164.544 189.113,164.652 35.200,164.000 35.200 C 163.780 35.200,163.600 34.930,163.600 34.600 C 163.600 33.880,154.858 33.702,154.152 34.408 M1.872 209.129 C 1.502 209.200,1.200 209.436,1.200 209.653 C 1.200 209.870,1.039 209.948,0.842 209.826 C -0.005 209.302,-0.538 343.851,0.306 345.000 C 0.964 345.896,2.509 346.400,4.595 346.400 C 5.808 346.400,6.800 346.580,6.800 346.800 C 6.800 347.029,8.008 347.200,9.624 347.200 C 11.404 347.200,12.356 347.348,12.200 347.600 C 12.044 347.852,12.996 348.000,14.776 348.000 C 16.392 348.000,17.600 348.171,17.600 348.400 C 17.600 348.631,18.859 348.800,20.576 348.800 C 22.213 348.800,23.664 348.980,23.800 349.200 C 23.936 349.420,25.207 349.600,26.624 349.600 C 28.075 349.600,29.200 349.775,29.200 350.000 C 29.200 350.229,30.400 350.400,32.000 350.400 C 33.600 350.400,34.800 350.571,34.800 350.800 C 34.800 351.028,35.992 351.200,37.576 351.200 C 39.103 351.200,40.464 351.380,40.600 351.600 C 40.736 351.820,42.097 352.000,43.624 352.000 C 45.208 352.000,46.400 352.172,46.400 352.400 C 46.400 352.629,47.600 352.800,49.200 352.800 C 50.800 352.800,52.000 352.971,52.000 353.200 C 52.000 353.428,53.192 353.600,54.776 353.600 C 56.303 353.600,57.664 353.780,57.800 354.000 C 57.936 354.220,59.297 354.400,60.824 354.400 C 62.408 354.400,63.600 354.572,63.600 354.800 C 63.600 355.027,64.773 355.200,66.320 355.200 C 67.816 355.200,69.211 355.365,69.420 355.568 C 69.629 355.770,70.970 356.032,72.400 356.150 C 73.830 356.268,76.350 356.553,78.000 356.783 C 79.650 357.013,82.170 357.310,83.600 357.443 C 85.030 357.576,86.380 357.827,86.600 358.001 C 86.820 358.175,89.298 358.447,92.106 358.607 C 94.915 358.766,97.310 359.055,97.430 359.248 C 97.549 359.442,98.987 359.600,100.624 359.600 C 102.341 359.600,103.600 359.769,103.600 360.000 C 103.600 360.229,104.800 360.400,106.400 360.400 C 108.000 360.400,109.200 360.571,109.200 360.800 C 109.200 361.025,110.325 361.200,111.776 361.200 C 113.193 361.200,114.464 361.380,114.600 361.600 C 114.736 361.820,116.086 362.000,117.600 362.000 C 119.114 362.000,120.464 362.180,120.600 362.400 C 120.736 362.620,121.996 362.800,123.400 362.800 C 124.804 362.800,126.064 362.980,126.200 363.200 C 126.336 363.420,127.607 363.600,129.024 363.600 C 130.475 363.600,131.600 363.775,131.600 364.000 C 131.600 364.228,132.792 364.400,134.376 364.400 C 135.903 364.400,137.264 364.580,137.400 364.800 C 137.536 365.020,138.886 365.200,140.400 365.200 C 141.914 365.200,143.264 365.380,143.400 365.600 C 143.536 365.820,144.807 366.000,146.224 366.000 C 147.675 366.000,148.800 366.175,148.800 366.400 C 148.800 366.628,149.992 366.800,151.576 366.800 C 153.103 366.800,154.464 366.980,154.600 367.200 C 155.203 368.175,163.061 367.672,163.754 366.614 C 164.706 365.160,164.752 211.095,163.800 210.143 C 163.470 209.813,163.197 209.691,163.194 209.871 C 163.191 210.052,163.044 209.974,162.869 209.698 C 162.580 209.242,4.191 208.683,1.872 209.129 M184.872 209.374 C 184.502 209.580,183.975 209.972,183.700 210.246 C 183.303 210.640,183.200 227.166,183.200 290.200 C 183.200 374.848,183.111 370.800,184.971 370.800 C 185.317 370.800,185.600 370.956,185.600 371.147 C 185.600 371.338,186.616 371.518,187.858 371.547 C 189.100 371.575,190.315 371.757,190.558 371.950 C 190.801 372.142,192.039 372.304,193.310 372.309 C 194.580 372.314,195.840 372.500,196.110 372.722 C 196.379 372.944,197.770 373.225,199.200 373.345 C 202.464 373.621,207.102 374.224,208.350 374.536 C 208.873 374.667,211.348 374.896,213.850 375.045 C 216.353 375.195,218.400 375.471,218.400 375.659 C 218.400 375.846,219.660 376.000,221.200 376.000 C 222.800 376.000,224.000 376.171,224.000 376.400 C 224.000 376.626,225.133 376.800,226.600 376.800 C 228.030 376.800,229.200 376.960,229.200 377.156 C 229.200 377.352,230.415 377.531,231.899 377.553 C 233.383 377.575,234.658 377.775,234.732 377.997 C 234.806 378.219,236.112 378.400,237.633 378.400 C 239.211 378.400,240.400 378.572,240.400 378.800 C 240.400 379.029,241.600 379.200,243.200 379.200 C 244.800 379.200,246.000 379.371,246.000 379.600 C 246.000 379.825,247.125 380.000,248.576 380.000 C 249.993 380.000,251.264 380.180,251.400 380.400 C 251.536 380.620,252.886 380.800,254.400 380.800 C 255.914 380.800,257.264 380.980,257.400 381.200 C 257.536 381.420,258.807 381.600,260.224 381.600 C 261.675 381.600,262.800 381.775,262.800 382.000 C 262.800 382.229,264.000 382.400,265.600 382.400 C 267.200 382.400,268.400 382.571,268.400 382.800 C 268.400 383.029,269.600 383.200,271.200 383.200 C 272.740 383.200,274.000 383.341,274.000 383.512 C 274.000 383.684,275.109 383.866,276.465 383.917 C 277.821 383.968,279.126 384.161,279.365 384.347 C 279.604 384.532,280.880 384.720,282.200 384.764 C 283.520 384.808,284.660 385.015,284.733 385.222 C 284.807 385.430,286.112 385.600,287.633 385.600 C 289.211 385.600,290.400 385.772,290.400 386.000 C 290.400 386.227,291.573 386.400,293.120 386.400 C 294.616 386.400,296.011 386.565,296.220 386.766 C 296.429 386.968,297.680 387.231,299.000 387.351 C 300.320 387.471,302.750 387.764,304.400 388.002 C 306.050 388.240,308.570 388.532,310.000 388.650 C 311.430 388.768,312.771 389.030,312.980 389.232 C 313.189 389.435,314.483 389.600,315.856 389.600 C 317.229 389.600,318.464 389.780,318.600 390.000 C 318.736 390.220,319.977 390.400,321.357 390.400 C 322.737 390.400,323.995 390.529,324.153 390.686 C 324.474 391.008,324.565 391.018,330.500 391.426 C 332.865 391.589,334.800 391.851,334.800 392.009 C 334.800 392.167,336.015 392.323,337.500 392.355 C 338.985 392.387,340.260 392.590,340.333 392.806 C 340.407 393.023,341.611 393.200,343.010 393.200 C 344.408 393.200,345.664 393.380,345.800 393.600 C 345.936 393.820,347.297 394.000,348.824 394.000 C 350.408 394.000,351.600 394.172,351.600 394.400 C 351.600 394.625,352.725 394.800,354.176 394.800 C 355.593 394.800,356.864 394.980,357.000 395.200 C 357.136 395.420,358.396 395.600,359.800 395.600 C 361.204 395.600,362.464 395.780,362.600 396.000 C 362.736 396.220,364.097 396.400,365.624 396.400 C 367.208 396.400,368.400 396.572,368.400 396.800 C 368.400 397.029,369.600 397.200,371.200 397.200 C 372.800 397.200,374.000 397.371,374.000 397.600 C 374.000 397.826,375.133 398.000,376.600 398.000 C 378.067 398.000,379.200 398.174,379.200 398.400 C 379.200 398.628,380.389 398.800,381.967 398.800 C 383.488 398.800,384.793 398.980,384.867 399.201 C 384.948 399.444,387.903 399.640,392.400 399.701 L 399.800 399.800 399.909 305.600 C 400.023 207.668,400.046 209.795,398.879 209.425 C 397.611 209.022,185.594 208.972,184.872 209.374 " stroke="none" fill="#74a4fc" fill-rule="evenodd"></path><path id="path1" d="M216.500 25.476 C 216.885 25.576,217.515 25.576,217.900 25.476 C 218.285 25.375,217.970 25.293,217.200 25.293 C 216.430 25.293,216.115 25.375,216.500 25.476 M42.532 209.100 C 64.494 209.157,100.314 209.157,122.132 209.100 C 143.949 209.043,125.980 208.996,82.200 208.996 C 38.420 208.996,20.569 209.043,42.532 209.100 M224.000 209.098 C 326.076 209.370,397.906 209.371,397.738 209.100 C 397.636 208.935,349.908 208.844,291.676 208.898 C 233.444 208.952,202.990 209.042,224.000 209.098 " stroke="none" fill="#78a4fc" fill-rule="evenodd"></path><path id="path2" d="M216.500 25.476 C 216.885 25.576,217.515 25.576,217.900 25.476 C 218.285 25.375,217.970 25.293,217.200 25.293 C 216.430 25.293,216.115 25.375,216.500 25.476 M42.532 209.100 C 64.494 209.157,100.314 209.157,122.132 209.100 C 143.949 209.043,125.980 208.996,82.200 208.996 C 38.420 208.996,20.569 209.043,42.532 209.100 M224.000 209.098 C 326.076 209.370,397.906 209.371,397.738 209.100 C 397.636 208.935,349.908 208.844,291.676 208.898 C 233.444 208.952,202.990 209.042,224.000 209.098 " stroke="none" fill="#78a4fc" fill-rule="evenodd"></path><path id="path3" d="M216.500 25.476 C 216.885 25.576,217.515 25.576,217.900 25.476 C 218.285 25.375,217.970 25.293,217.200 25.293 C 216.430 25.293,216.115 25.375,216.500 25.476 M42.532 209.100 C 64.494 209.157,100.314 209.157,122.132 209.100 C 143.949 209.043,125.980 208.996,82.200 208.996 C 38.420 208.996,20.569 209.043,42.532 209.100 M224.000 209.098 C 326.076 209.370,397.906 209.371,397.738 209.100 C 397.636 208.935,349.908 208.844,291.676 208.898 C 233.444 208.952,202.990 209.042,224.000 209.098 " stroke="none" fill="#78a4fc" fill-rule="evenodd"></path><path id="path4" d="M216.500 25.476 C 216.885 25.576,217.515 25.576,217.900 25.476 C 218.285 25.375,217.970 25.293,217.200 25.293 C 216.430 25.293,216.115 25.375,216.500 25.476 M42.532 209.100 C 64.494 209.157,100.314 209.157,122.132 209.100 C 143.949 209.043,125.980 208.996,82.200 208.996 C 38.420 208.996,20.569 209.043,42.532 209.100 M224.000 209.098 C 326.076 209.370,397.906 209.371,397.738 209.100 C 397.636 208.935,349.908 208.844,291.676 208.898 C 233.444 208.952,202.990 209.042,224.000 209.098 " stroke="none" fill="#78a4fc" fill-rule="evenodd"></path></g></svg>