<svg id="svg" version="1.1" xmlns="http://www.w3.org/2000/svg" xmlns:xlink="http://www.w3.org/1999/xlink" width="400" height="400" viewBox="0, 0, 400,400"><g id="svgg"><path id="path0" d="M250.500 0.254 C 250.005 0.365,249.600 0.623,249.600 0.828 C 249.600 1.033,249.240 1.200,248.800 1.200 C 248.360 1.200,248.000 1.380,248.000 1.600 C 248.000 1.820,247.460 2.000,246.800 2.000 C 246.140 2.000,245.600 2.180,245.600 2.400 C 245.600 2.620,245.229 2.800,244.776 2.800 C 244.323 2.800,244.064 2.980,244.200 3.200 C 244.336 3.420,244.202 3.600,243.903 3.600 C 243.149 3.600,241.207 4.535,241.203 4.900 C 241.201 5.065,240.840 5.200,240.400 5.200 C 239.960 5.200,239.600 5.380,239.600 5.600 C 239.600 5.820,239.240 6.000,238.800 6.000 C 238.360 6.000,238.000 6.180,238.000 6.400 C 238.000 6.620,237.640 6.800,237.200 6.800 C 236.760 6.800,236.400 6.980,236.400 7.200 C 236.400 7.420,236.040 7.600,235.600 7.600 C 235.160 7.600,234.800 7.780,234.800 8.000 C 234.800 8.220,234.453 8.400,234.029 8.400 C 233.604 8.400,232.996 8.661,232.676 8.981 C 232.357 9.300,231.984 9.450,231.848 9.314 C 231.711 9.178,231.600 9.287,231.600 9.557 C 231.600 9.827,231.420 9.936,231.200 9.800 C 230.980 9.664,230.800 9.724,230.800 9.933 C 230.800 10.142,230.115 10.587,229.277 10.922 C 228.440 11.257,227.518 11.817,227.228 12.166 C 226.939 12.515,226.454 12.800,226.151 12.800 C 225.848 12.800,225.600 12.980,225.600 13.200 C 225.600 13.420,225.240 13.600,224.800 13.600 C 224.360 13.600,224.000 13.780,224.000 14.000 C 224.000 14.220,223.640 14.400,223.200 14.400 C 221.716 14.400,222.154 16.270,223.700 16.537 C 227.303 17.160,227.859 17.279,228.600 17.582 C 229.040 17.762,230.210 18.130,231.200 18.401 C 232.190 18.671,233.450 19.031,234.000 19.200 C 234.550 19.369,235.810 19.732,236.800 20.007 C 239.107 20.648,243.167 21.955,244.200 22.389 C 247.286 23.685,253.481 26.003,253.857 26.002 C 255.627 25.995,254.342 27.126,251.652 27.941 C 249.973 28.450,248.287 29.032,247.905 29.233 C 247.523 29.435,246.936 29.600,246.600 29.600 C 246.264 29.600,245.677 29.766,245.295 29.970 C 244.913 30.173,242.170 31.281,239.200 32.432 C 236.230 33.583,231.910 35.418,229.600 36.509 C 227.290 37.601,224.680 38.811,223.800 39.199 C 222.920 39.587,220.422 40.916,218.249 42.152 C 216.076 43.388,214.218 44.400,214.121 44.400 C 214.024 44.400,213.159 44.940,212.200 45.600 C 211.241 46.260,210.349 46.800,210.219 46.800 C 209.914 46.800,197.438 55.237,195.600 56.687 C 189.177 61.753,185.852 64.485,183.802 66.382 C 180.029 69.873,176.642 73.327,176.137 74.200 C 175.883 74.640,175.508 74.965,175.304 74.922 C 175.100 74.879,173.778 76.027,172.366 77.472 C 169.853 80.046,169.826 80.095,171.084 79.863 C 171.791 79.733,172.477 79.800,172.608 80.013 C 172.740 80.226,173.276 80.400,173.800 80.400 C 174.324 80.400,174.864 80.580,175.000 80.800 C 175.136 81.020,175.676 81.200,176.200 81.200 C 176.724 81.200,177.264 81.380,177.400 81.600 C 177.536 81.820,178.076 82.000,178.600 82.000 C 179.124 82.000,179.664 82.180,179.800 82.400 C 179.936 82.620,180.487 82.800,181.024 82.800 C 181.561 82.800,182.000 82.980,182.000 83.200 C 182.000 83.420,182.540 83.600,183.200 83.600 C 183.860 83.600,184.400 83.780,184.400 84.000 C 184.400 84.220,184.940 84.400,185.600 84.400 C 186.260 84.400,186.801 84.535,186.803 84.700 C 186.807 85.101,188.781 86.000,189.656 86.000 C 190.039 86.000,190.464 86.180,190.600 86.400 C 190.736 86.620,191.276 86.800,191.800 86.800 C 192.324 86.800,192.864 86.980,193.000 87.200 C 193.136 87.420,193.676 87.600,194.200 87.600 C 196.550 87.600,196.373 87.871,189.395 94.933 C 186.533 97.830,183.293 101.280,182.195 102.600 C 181.098 103.920,180.110 105.090,180.000 105.200 C 179.653 105.547,177.065 108.551,175.336 110.614 C 174.421 111.706,172.303 114.490,170.631 116.800 C 168.958 119.110,166.804 122.081,165.843 123.402 C 164.883 124.723,163.736 126.433,163.296 127.202 C 162.855 127.971,160.977 131.120,159.122 134.200 C 155.903 139.546,151.594 147.934,150.154 151.657 C 149.783 152.616,149.327 153.571,149.140 153.780 C 148.167 154.868,148.773 156.400,150.176 156.400 C 150.933 156.400,151.664 156.580,151.800 156.800 C 151.936 157.020,152.836 157.200,153.800 157.200 C 154.764 157.200,155.654 157.364,155.778 157.564 C 155.902 157.765,157.535 158.056,159.407 158.212 C 161.280 158.368,162.910 158.654,163.030 158.848 C 163.987 160.398,170.400 158.025,170.400 156.121 C 170.400 155.959,172.779 152.810,173.211 152.400 C 173.326 152.290,174.586 150.606,176.011 148.658 C 198.214 118.284,230.375 92.099,262.010 78.638 C 262.994 78.219,264.880 77.391,266.200 76.797 C 268.966 75.553,276.622 72.720,283.000 70.579 C 287.274 69.145,288.683 68.723,291.600 68.000 C 292.370 67.809,293.720 67.449,294.600 67.200 C 296.606 66.632,298.442 66.167,301.000 65.580 C 302.100 65.328,303.720 64.946,304.600 64.733 C 305.480 64.519,307.100 64.184,308.200 63.988 C 309.300 63.792,311.190 63.444,312.400 63.215 C 316.083 62.517,320.780 62.040,324.679 61.968 C 326.717 61.930,328.287 61.741,328.169 61.549 C 328.050 61.357,330.302 61.200,333.176 61.200 C 336.392 61.200,338.400 61.046,338.400 60.800 C 338.400 60.543,342.475 60.400,349.824 60.400 C 356.480 60.400,361.154 60.550,361.025 60.760 C 360.898 60.964,363.123 61.144,366.195 61.177 C 371.221 61.230,371.571 61.186,371.336 60.517 C 371.065 59.744,368.009 56.801,367.476 56.801 C 367.298 56.800,367.251 56.640,367.372 56.445 C 367.492 56.250,367.233 55.997,366.796 55.883 C 366.358 55.769,366.000 55.377,366.000 55.014 C 366.000 54.650,365.839 54.452,365.642 54.574 C 365.445 54.696,365.181 54.526,365.054 54.198 C 364.928 53.869,364.632 53.600,364.395 53.600 C 364.159 53.600,362.533 52.152,360.783 50.383 C 359.032 48.613,357.600 47.281,357.600 47.423 C 357.600 47.564,356.952 47.032,356.160 46.240 C 355.368 45.448,354.478 44.800,354.183 44.800 C 353.887 44.800,353.365 44.400,353.023 43.911 C 352.680 43.422,352.400 43.142,352.400 43.288 C 352.400 43.435,351.820 43.025,351.111 42.377 C 350.402 41.730,349.680 41.200,349.507 41.200 C 349.334 41.200,348.628 40.660,347.937 40.000 C 347.246 39.340,346.526 38.800,346.337 38.800 C 346.148 38.800,345.428 38.260,344.737 37.600 C 344.046 36.940,343.238 36.400,342.941 36.400 C 342.643 36.400,342.400 36.220,342.400 36.000 C 342.400 35.780,342.132 35.600,341.803 35.600 C 341.475 35.600,340.982 35.240,340.707 34.800 C 340.432 34.360,339.880 34.000,339.480 34.000 C 339.080 34.000,338.864 33.820,339.000 33.600 C 339.136 33.380,338.967 33.200,338.624 33.200 C 338.281 33.200,338.000 33.041,338.000 32.846 C 338.000 32.651,337.395 32.204,336.655 31.853 C 335.915 31.502,335.083 30.941,334.806 30.607 C 334.529 30.273,334.054 30.000,333.751 30.000 C 333.448 30.000,333.200 29.820,333.200 29.600 C 333.200 29.380,332.930 29.200,332.600 29.200 C 332.270 29.200,332.000 29.020,332.000 28.800 C 332.000 28.580,331.730 28.400,331.400 28.400 C 331.070 28.400,330.800 28.209,330.800 27.976 C 330.800 27.743,330.635 27.655,330.432 27.780 C 330.230 27.905,329.793 27.736,329.461 27.404 C 329.129 27.072,328.574 26.800,328.229 26.800 C 327.883 26.800,327.600 26.638,327.600 26.440 C 327.600 26.241,326.791 25.746,325.801 25.340 C 324.812 24.933,324.002 24.465,324.001 24.300 C 324.001 24.135,323.539 24.000,322.976 24.000 C 322.413 24.000,322.054 23.836,322.179 23.635 C 322.303 23.434,321.864 23.030,321.202 22.737 C 320.541 22.444,320.000 22.069,320.000 21.902 C 320.000 21.736,319.640 21.600,319.200 21.600 C 318.760 21.600,318.400 21.420,318.400 21.200 C 318.400 20.980,318.040 20.800,317.600 20.800 C 317.160 20.800,316.800 20.620,316.800 20.400 C 316.800 20.180,316.440 20.000,316.000 20.000 C 315.560 20.000,315.200 19.820,315.200 19.600 C 315.200 19.380,314.966 19.200,314.680 19.200 C 313.944 19.200,312.007 18.259,312.003 17.900 C 312.001 17.735,311.640 17.600,311.200 17.600 C 310.760 17.600,310.400 17.420,310.400 17.200 C 310.400 16.980,310.040 16.800,309.600 16.800 C 309.160 16.800,308.800 16.620,308.800 16.400 C 308.800 16.180,308.665 16.021,308.500 16.047 C 307.587 16.192,306.786 15.946,307.006 15.590 C 307.145 15.365,307.111 15.221,306.930 15.271 C 306.409 15.415,303.600 14.275,303.600 13.920 C 303.600 13.744,303.240 13.600,302.800 13.600 C 302.360 13.600,302.000 13.420,302.000 13.200 C 302.000 12.980,301.865 12.839,301.700 12.887 C 301.107 13.058,297.656 11.833,297.849 11.520 C 297.958 11.344,297.512 11.200,296.857 11.200 C 296.202 11.200,295.607 11.022,295.533 10.803 C 295.460 10.585,294.905 10.366,294.300 10.316 C 293.695 10.266,293.200 10.085,293.200 9.913 C 293.200 9.741,292.851 9.600,292.424 9.600 C 291.997 9.600,291.531 9.413,291.390 9.184 C 291.248 8.955,290.788 8.877,290.366 9.011 C 289.938 9.147,289.600 9.066,289.600 8.827 C 289.600 8.592,289.240 8.400,288.800 8.400 C 288.360 8.400,288.000 8.220,288.000 8.000 C 288.000 7.780,287.460 7.600,286.800 7.600 C 286.140 7.600,285.600 7.457,285.600 7.282 C 285.600 7.107,284.925 6.919,284.100 6.864 C 283.275 6.810,282.540 6.593,282.467 6.382 C 282.393 6.172,281.819 6.000,281.190 6.000 C 280.562 6.000,279.936 5.820,279.800 5.600 C 279.664 5.380,279.124 5.200,278.600 5.200 C 278.076 5.200,277.536 5.020,277.400 4.800 C 277.264 4.580,276.548 4.400,275.810 4.400 C 275.071 4.400,274.407 4.226,274.333 4.013 C 274.260 3.800,273.615 3.581,272.900 3.528 C 272.185 3.474,271.600 3.288,271.600 3.115 C 271.600 2.942,271.071 2.800,270.424 2.800 C 269.777 2.800,269.136 2.620,269.000 2.400 C 268.864 2.180,267.953 2.000,266.976 2.000 C 265.999 2.000,265.200 1.820,265.200 1.600 C 265.200 1.380,264.315 1.200,263.233 1.200 C 262.152 1.200,261.207 1.021,261.133 0.802 C 260.991 0.377,252.017 -0.085,250.500 0.254 M230.900 242.282 C 230.185 243.074,229.600 243.794,229.600 243.884 C 229.600 244.042,227.214 247.197,226.789 247.600 C 226.674 247.710,225.414 249.394,223.989 251.342 C 201.763 281.748,169.659 307.887,137.990 321.362 C 137.006 321.781,135.120 322.609,133.800 323.203 C 129.790 325.006,122.152 327.721,110.172 331.602 C 109.496 331.821,108.562 332.000,108.095 332.000 C 107.629 332.000,107.136 332.180,107.000 332.400 C 106.864 332.620,106.234 332.800,105.600 332.800 C 104.966 332.800,104.348 332.961,104.226 333.158 C 104.105 333.355,103.329 333.610,102.503 333.725 C 101.676 333.840,100.190 334.139,99.200 334.389 C 96.673 335.027,94.135 335.582,91.800 336.006 C 90.700 336.205,88.810 336.556,87.600 336.785 C 83.917 337.483,79.220 337.960,75.321 338.032 C 73.283 338.070,71.713 338.259,71.831 338.451 C 71.950 338.643,69.698 338.800,66.824 338.800 C 63.608 338.800,61.600 338.954,61.600 339.200 C 61.600 339.457,57.525 339.600,50.176 339.600 C 43.520 339.600,38.846 339.450,38.975 339.240 C 39.102 339.036,36.877 338.856,33.805 338.823 C 28.779 338.770,28.429 338.814,28.664 339.483 C 28.935 340.256,31.991 343.199,32.524 343.199 C 32.702 343.200,32.736 343.380,32.600 343.600 C 32.464 343.820,32.650 344.000,33.014 344.000 C 33.377 344.000,33.769 344.358,33.883 344.796 C 33.997 345.233,34.250 345.492,34.445 345.372 C 34.640 345.251,34.800 345.349,34.800 345.589 C 34.800 345.829,35.113 346.145,35.496 346.292 C 35.879 346.439,37.589 347.971,39.296 349.697 C 41.003 351.423,42.400 352.719,42.400 352.577 C 42.400 352.436,43.048 352.968,43.840 353.760 C 44.632 354.552,45.522 355.200,45.817 355.200 C 46.113 355.200,46.635 355.600,46.977 356.089 C 47.320 356.578,47.600 356.858,47.600 356.712 C 47.600 356.565,48.180 356.975,48.889 357.623 C 49.598 358.270,50.320 358.800,50.493 358.800 C 50.666 358.800,51.372 359.340,52.063 360.000 C 52.754 360.660,53.474 361.200,53.663 361.200 C 53.852 361.200,54.572 361.740,55.263 362.400 C 55.954 363.060,56.762 363.600,57.059 363.600 C 57.357 363.600,57.600 363.780,57.600 364.000 C 57.600 364.220,57.868 364.400,58.197 364.400 C 58.525 364.400,59.018 364.760,59.293 365.200 C 59.568 365.640,60.120 366.000,60.520 366.000 C 60.920 366.000,61.136 366.180,61.000 366.400 C 60.864 366.620,61.033 366.800,61.376 366.800 C 61.719 366.800,62.000 366.959,62.000 367.154 C 62.000 367.349,62.605 367.796,63.345 368.147 C 64.085 368.498,64.917 369.059,65.194 369.393 C 65.471 369.727,65.946 370.000,66.249 370.000 C 66.552 370.000,66.800 370.180,66.800 370.400 C 66.800 370.620,67.070 370.800,67.400 370.800 C 67.730 370.800,68.000 370.980,68.000 371.200 C 68.000 371.420,68.270 371.600,68.600 371.600 C 68.930 371.600,69.200 371.791,69.200 372.024 C 69.200 372.257,69.365 372.345,69.568 372.220 C 69.770 372.095,70.220 372.277,70.568 372.625 C 70.915 372.973,71.200 373.126,71.200 372.967 C 71.200 372.807,71.560 373.002,72.000 373.400 C 72.440 373.798,72.800 373.993,72.800 373.833 C 72.800 373.673,73.274 373.915,73.854 374.371 C 74.434 374.827,75.154 375.200,75.454 375.200 C 75.754 375.200,76.000 375.380,76.000 375.600 C 76.000 375.820,76.371 376.000,76.824 376.000 C 77.277 376.000,77.536 376.180,77.400 376.400 C 77.264 376.620,77.433 376.800,77.776 376.800 C 78.119 376.800,78.400 376.980,78.400 377.200 C 78.400 377.420,78.535 377.560,78.700 377.511 C 79.149 377.377,81.600 378.549,81.600 378.898 C 81.600 379.064,81.960 379.200,82.400 379.200 C 82.840 379.200,83.200 379.380,83.200 379.600 C 83.200 379.820,83.560 380.000,84.000 380.000 C 84.440 380.000,84.800 380.180,84.800 380.400 C 84.800 380.620,85.160 380.800,85.600 380.800 C 86.040 380.800,86.400 380.980,86.400 381.200 C 86.400 381.420,86.760 381.600,87.200 381.600 C 87.640 381.600,88.000 381.780,88.000 382.000 C 88.000 382.220,88.360 382.400,88.800 382.400 C 89.240 382.400,89.600 382.580,89.600 382.800 C 89.600 383.020,89.960 383.200,90.400 383.200 C 90.840 383.200,91.200 383.380,91.200 383.600 C 91.200 383.820,91.515 384.000,91.900 383.999 C 92.679 383.998,96.125 385.630,96.333 386.100 C 96.407 386.265,96.812 386.400,97.233 386.400 C 97.655 386.400,98.000 386.580,98.000 386.800 C 98.000 387.020,98.135 387.161,98.300 387.113 C 98.893 386.942,102.344 388.167,102.151 388.480 C 102.042 388.656,102.488 388.800,103.143 388.800 C 103.798 388.800,104.393 388.978,104.467 389.197 C 104.540 389.415,105.095 389.634,105.700 389.684 C 106.305 389.734,106.800 389.915,106.800 390.087 C 106.800 390.259,107.149 390.400,107.576 390.400 C 108.003 390.400,108.469 390.587,108.610 390.816 C 108.752 391.045,109.212 391.123,109.634 390.989 C 110.062 390.853,110.400 390.934,110.400 391.173 C 110.400 391.408,110.760 391.600,111.200 391.600 C 111.640 391.600,112.000 391.780,112.000 392.000 C 112.000 392.220,112.540 392.400,113.200 392.400 C 113.860 392.400,114.400 392.543,114.400 392.718 C 114.400 392.893,115.075 393.081,115.900 393.136 C 116.725 393.190,117.460 393.407,117.533 393.618 C 117.607 393.828,118.181 394.000,118.810 394.000 C 119.438 394.000,120.064 394.180,120.200 394.400 C 120.336 394.620,120.876 394.800,121.400 394.800 C 121.924 394.800,122.464 394.980,122.600 395.200 C 122.736 395.420,123.452 395.600,124.190 395.600 C 124.929 395.600,125.593 395.774,125.667 395.987 C 125.740 396.200,126.385 396.419,127.100 396.472 C 127.815 396.526,128.400 396.712,128.400 396.885 C 128.400 397.058,128.929 397.200,129.576 397.200 C 130.223 397.200,130.864 397.380,131.000 397.600 C 131.136 397.820,132.047 398.000,133.024 398.000 C 134.001 398.000,134.800 398.180,134.800 398.400 C 134.800 398.620,135.685 398.800,136.767 398.800 C 137.884 398.800,138.799 398.997,138.885 399.256 C 139.111 399.934,150.071 399.976,150.298 399.300 C 150.391 399.025,150.812 398.800,151.233 398.800 C 151.655 398.800,152.000 398.620,152.000 398.400 C 152.000 398.180,152.540 398.000,153.200 398.000 C 153.860 398.000,154.400 397.820,154.400 397.600 C 154.400 397.380,154.771 397.200,155.224 397.200 C 155.677 397.200,155.936 397.020,155.800 396.800 C 155.664 396.580,155.798 396.400,156.097 396.400 C 156.851 396.400,158.793 395.465,158.797 395.100 C 158.799 394.935,159.160 394.800,159.600 394.800 C 160.040 394.800,160.400 394.620,160.400 394.400 C 160.400 394.180,160.760 394.000,161.200 394.000 C 161.640 394.000,162.000 393.820,162.000 393.600 C 162.000 393.380,162.360 393.200,162.800 393.200 C 163.240 393.200,163.600 393.020,163.600 392.800 C 163.600 392.580,163.960 392.400,164.400 392.400 C 164.840 392.400,165.200 392.220,165.200 392.000 C 165.200 391.780,165.547 391.600,165.971 391.600 C 166.396 391.600,167.004 391.339,167.324 391.019 C 167.643 390.700,168.016 390.550,168.152 390.686 C 168.289 390.822,168.400 390.713,168.400 390.443 C 168.400 390.173,168.580 390.064,168.800 390.200 C 169.020 390.336,169.200 390.276,169.200 390.067 C 169.200 389.858,169.885 389.413,170.723 389.078 C 171.560 388.743,172.482 388.183,172.772 387.834 C 173.061 387.485,173.546 387.200,173.849 387.200 C 174.152 387.200,174.400 387.020,174.400 386.800 C 174.400 386.580,174.760 386.400,175.200 386.400 C 175.640 386.400,176.000 386.220,176.000 386.000 C 176.000 385.780,176.373 385.600,176.828 385.600 C 178.874 385.600,177.510 383.902,175.000 383.324 C 171.960 382.625,169.624 381.995,168.600 381.600 C 168.160 381.430,166.990 381.070,166.000 380.799 C 165.010 380.529,163.750 380.169,163.200 380.000 C 162.650 379.831,161.390 379.471,160.400 379.201 C 158.713 378.740,158.175 378.553,155.900 377.638 C 155.405 377.439,153.470 376.705,151.600 376.007 C 149.730 375.309,147.887 374.572,147.505 374.369 C 147.123 374.166,146.558 374.000,146.248 374.000 C 144.390 374.000,145.583 372.897,148.348 372.059 C 150.027 371.550,151.713 370.968,152.095 370.767 C 152.477 370.565,153.064 370.400,153.400 370.400 C 153.736 370.400,154.323 370.234,154.705 370.030 C 155.087 369.827,157.830 368.720,160.800 367.570 C 163.770 366.421,168.422 364.427,171.138 363.140 C 173.853 361.853,176.169 360.800,176.283 360.800 C 176.397 360.800,178.045 359.926,179.945 358.857 C 181.845 357.789,184.660 356.228,186.200 355.389 C 187.740 354.551,189.060 353.715,189.133 353.532 C 189.207 353.349,189.436 353.200,189.643 353.200 C 190.442 353.200,202.477 344.848,208.000 340.461 C 215.432 334.558,222.629 327.902,223.863 325.792 C 224.117 325.356,224.477 325.029,224.663 325.064 C 224.848 325.099,226.170 323.969,227.600 322.552 C 230.131 320.045,230.166 319.982,228.924 320.190 C 228.223 320.307,227.537 320.222,227.401 320.001 C 227.264 319.781,226.724 319.600,226.200 319.600 C 225.676 319.600,225.136 319.420,225.000 319.200 C 224.864 318.980,224.324 318.800,223.800 318.800 C 223.276 318.800,222.736 318.620,222.600 318.400 C 222.464 318.180,221.924 318.000,221.400 318.000 C 220.876 318.000,220.336 317.820,220.200 317.600 C 220.064 317.380,219.513 317.200,218.976 317.200 C 218.439 317.200,218.000 317.020,218.000 316.800 C 218.000 316.580,217.460 316.400,216.800 316.400 C 216.140 316.400,215.600 316.220,215.600 316.000 C 215.600 315.780,215.060 315.600,214.400 315.600 C 213.740 315.600,213.200 315.420,213.200 315.200 C 213.200 314.980,212.761 314.800,212.224 314.800 C 211.687 314.800,211.136 314.620,211.000 314.400 C 210.864 314.180,210.409 314.000,209.989 314.000 C 209.568 314.000,208.583 313.640,207.800 313.200 C 207.017 312.760,206.032 312.400,205.611 312.400 C 203.473 312.400,203.724 312.031,210.605 305.067 C 213.467 302.170,216.707 298.720,217.805 297.400 C 218.902 296.080,219.890 294.910,220.000 294.800 C 220.347 294.453,222.935 291.449,224.664 289.386 C 225.579 288.294,227.697 285.510,229.369 283.200 C 231.042 280.890,233.196 277.919,234.157 276.598 C 235.117 275.277,236.264 273.567,236.704 272.798 C 237.145 272.029,239.023 268.880,240.878 265.800 C 244.097 260.454,248.406 252.066,249.846 248.343 C 250.217 247.384,250.673 246.429,250.860 246.220 C 251.833 245.132,251.227 243.600,249.824 243.600 C 249.067 243.600,248.336 243.420,248.200 243.200 C 248.064 242.980,247.189 242.800,246.256 242.800 C 245.323 242.800,244.389 242.630,244.180 242.421 C 243.971 242.213,242.129 241.917,240.088 241.763 C 238.046 241.609,236.280 241.330,236.164 241.142 C 235.536 240.125,232.195 240.849,230.900 242.282 " stroke="none" fill="#c43b8a" fill-rule="evenodd"></path><path id="path1" d="M169.901 10.873 C 169.846 11.027,167.855 11.197,165.477 11.251 C 163.100 11.306,161.064 11.496,160.954 11.675 C 160.843 11.854,159.244 12.000,157.400 12.000 C 155.556 12.000,153.950 12.157,153.832 12.348 C 153.627 12.680,152.094 12.938,147.200 13.462 C 145.990 13.592,144.820 13.839,144.600 14.013 C 144.380 14.186,143.390 14.382,142.400 14.449 C 140.772 14.559,139.600 15.123,139.600 15.797 C 139.600 15.937,139.060 16.506,138.400 17.061 C 137.740 17.617,137.200 18.240,137.200 18.446 C 137.200 18.652,135.175 20.870,132.700 23.374 C 128.560 27.562,124.800 31.927,124.800 32.544 C 124.800 32.685,124.080 33.541,123.200 34.448 C 122.320 35.355,121.600 36.256,121.600 36.452 C 121.600 36.647,121.060 37.372,120.400 38.063 C 119.740 38.754,119.200 39.562,119.200 39.859 C 119.200 40.157,119.050 40.400,118.868 40.400 C 118.685 40.400,118.280 40.895,117.968 41.500 C 117.656 42.105,117.302 42.690,117.180 42.800 C 117.058 42.910,116.338 43.898,115.579 44.995 C 114.821 46.092,113.975 47.230,113.700 47.523 C 113.425 47.817,113.200 48.196,113.200 48.366 C 113.200 48.536,112.750 49.199,112.200 49.838 C 111.651 50.477,111.201 51.225,111.200 51.500 C 111.200 51.775,111.020 52.000,110.800 52.000 C 110.580 52.000,110.400 52.360,110.400 52.800 C 110.400 53.240,110.253 53.600,110.074 53.600 C 109.676 53.600,108.400 56.201,108.400 57.014 C 108.400 57.336,108.254 57.600,108.075 57.600 C 107.896 57.600,107.502 58.230,107.200 59.000 C 106.898 59.770,106.526 60.400,106.374 60.400 C 106.222 60.400,105.873 60.940,105.600 61.600 C 105.327 62.260,104.945 62.800,104.751 62.800 C 104.558 62.800,104.400 63.160,104.400 63.600 C 104.400 64.040,104.220 64.400,104.000 64.400 C 103.780 64.400,103.600 64.760,103.600 65.200 C 103.600 65.640,103.420 66.000,103.200 66.000 C 102.980 66.000,102.800 66.360,102.800 66.800 C 102.800 67.240,102.620 67.600,102.400 67.600 C 102.180 67.600,102.000 67.949,102.000 68.376 C 102.000 68.803,101.820 69.264,101.600 69.400 C 101.380 69.536,101.200 70.087,101.200 70.624 C 101.200 71.161,101.020 71.600,100.800 71.600 C 100.580 71.600,100.400 71.960,100.400 72.400 C 100.400 72.840,100.220 73.200,100.000 73.200 C 99.780 73.200,99.600 73.560,99.600 74.000 C 99.600 74.440,99.420 74.800,99.200 74.800 C 98.980 74.800,98.800 75.160,98.800 75.600 C 98.800 76.040,98.620 76.400,98.400 76.400 C 98.180 76.400,98.000 76.749,98.000 77.176 C 98.000 77.603,97.820 78.064,97.600 78.200 C 97.380 78.336,97.200 78.797,97.200 79.224 C 97.200 79.651,97.020 80.000,96.800 80.000 C 96.580 80.000,96.400 80.540,96.400 81.200 C 96.400 81.860,96.220 82.400,96.000 82.400 C 95.780 82.400,95.600 82.940,95.600 83.600 C 95.600 84.260,95.453 84.800,95.272 84.800 C 95.092 84.800,94.696 85.711,94.393 86.825 C 94.090 87.939,93.697 88.940,93.521 89.049 C 93.344 89.158,93.200 89.676,93.200 90.200 C 93.200 90.724,93.025 91.261,92.812 91.393 C 92.598 91.525,92.304 92.530,92.159 93.625 C 92.013 94.721,91.738 95.715,91.547 95.833 C 91.356 95.951,91.200 96.656,91.200 97.400 C 91.200 98.144,91.020 98.864,90.800 99.000 C 90.580 99.136,90.400 99.867,90.400 100.624 C 90.400 101.381,90.220 102.000,90.000 102.000 C 89.780 102.000,89.600 102.720,89.600 103.600 C 89.600 104.480,89.420 105.200,89.200 105.200 C 88.980 105.200,88.800 105.740,88.800 106.400 C 88.800 107.060,88.620 107.600,88.400 107.600 C 88.180 107.600,88.000 108.500,88.000 109.600 C 88.000 110.700,87.820 111.600,87.600 111.600 C 87.380 111.600,87.200 112.590,87.200 113.800 C 87.200 115.010,87.020 116.000,86.800 116.000 C 86.578 116.000,86.400 117.067,86.400 118.400 C 86.400 119.733,86.222 120.800,86.000 120.800 C 85.778 120.800,85.600 121.867,85.600 123.200 C 85.600 124.533,85.422 125.600,85.200 125.600 C 84.959 125.600,84.800 127.267,84.800 129.800 C 84.800 132.333,84.641 134.000,84.400 134.000 C 84.140 134.000,84.000 139.600,84.000 150.000 C 84.000 160.400,84.140 166.000,84.400 166.000 C 84.638 166.000,84.800 167.525,84.800 169.776 C 84.800 171.863,84.979 173.663,85.200 173.800 C 85.420 173.936,85.600 175.207,85.600 176.624 C 85.600 178.075,85.775 179.200,86.000 179.200 C 86.222 179.200,86.400 180.267,86.400 181.600 C 86.400 182.933,86.578 184.000,86.800 184.000 C 87.020 184.000,87.200 184.900,87.200 186.000 C 87.200 187.100,87.380 188.000,87.600 188.000 C 87.820 188.000,88.000 188.810,88.000 189.800 C 88.000 190.790,88.180 191.600,88.400 191.600 C 88.620 191.600,88.800 192.320,88.800 193.200 C 88.800 194.080,88.980 194.800,89.200 194.800 C 89.420 194.800,89.600 195.520,89.600 196.400 C 89.600 197.280,89.780 198.000,90.000 198.000 C 90.220 198.000,90.400 198.720,90.400 199.600 C 90.400 200.480,90.580 201.200,90.800 201.200 C 91.020 201.200,91.200 201.729,91.200 202.376 C 91.200 203.023,91.370 203.658,91.577 203.786 C 91.784 203.914,92.075 204.827,92.223 205.814 C 92.371 206.802,92.652 207.708,92.846 207.829 C 93.041 207.949,93.200 208.577,93.200 209.224 C 93.200 209.871,93.380 210.400,93.600 210.400 C 93.820 210.400,94.000 210.940,94.000 211.600 C 94.000 212.260,94.180 212.800,94.400 212.800 C 94.620 212.800,94.800 213.340,94.800 214.000 C 94.800 214.660,94.980 215.200,95.200 215.200 C 95.420 215.200,95.600 215.740,95.600 216.400 C 95.600 217.060,95.780 217.600,96.000 217.600 C 96.220 217.600,96.400 217.960,96.400 218.400 C 96.400 218.840,96.580 219.200,96.800 219.200 C 97.020 219.200,97.200 219.472,97.200 219.805 C 97.200 220.138,97.368 220.723,97.574 221.105 C 97.779 221.487,98.183 222.385,98.471 223.100 C 98.760 223.815,99.131 224.400,99.298 224.400 C 99.464 224.400,99.600 224.760,99.600 225.200 C 99.600 225.640,99.780 226.000,100.000 226.000 C 100.220 226.000,100.400 226.540,100.400 227.200 C 100.400 227.860,100.580 228.400,100.800 228.400 C 101.020 228.400,101.200 228.760,101.200 229.200 C 101.200 229.640,101.380 230.000,101.600 230.000 C 101.820 230.000,102.000 230.360,102.000 230.800 C 102.000 231.240,102.180 231.600,102.400 231.600 C 102.620 231.600,102.800 231.960,102.800 232.400 C 102.800 232.840,102.980 233.200,103.200 233.200 C 103.420 233.200,103.600 233.560,103.600 234.000 C 103.600 234.440,103.780 234.800,104.000 234.800 C 104.220 234.800,104.400 235.160,104.400 235.600 C 104.400 236.040,104.536 236.400,104.702 236.400 C 104.869 236.400,105.264 236.985,105.580 237.700 C 105.897 238.415,106.480 239.349,106.878 239.775 C 107.275 240.202,107.600 240.787,107.600 241.075 C 107.600 241.364,107.780 241.600,108.000 241.600 C 108.220 241.600,108.400 241.817,108.400 242.082 C 108.400 242.841,110.504 247.200,110.870 247.200 C 111.052 247.200,111.200 247.478,111.200 247.817 C 111.200 248.156,111.560 248.820,112.000 249.292 C 112.440 249.764,112.800 250.387,112.800 250.675 C 112.800 250.964,112.980 251.200,113.200 251.200 C 113.420 251.200,113.600 251.436,113.600 251.725 C 113.600 252.013,113.915 252.598,114.300 253.025 C 114.685 253.451,115.255 254.295,115.568 254.900 C 115.880 255.505,116.285 256.000,116.468 256.000 C 116.650 256.000,116.800 256.198,116.800 256.440 C 116.800 256.681,117.340 257.383,118.000 258.000 C 118.660 258.617,119.200 259.369,119.200 259.672 C 119.200 259.975,119.560 260.483,120.000 260.800 C 120.440 261.117,120.800 261.621,120.800 261.920 C 120.800 262.218,121.520 263.154,122.400 264.000 C 123.280 264.846,124.000 265.740,124.000 265.987 C 124.000 266.234,124.405 266.861,124.900 267.380 C 125.395 267.900,126.160 268.812,126.600 269.408 C 127.040 270.003,128.660 271.801,130.200 273.402 C 131.740 275.003,133.056 276.546,133.125 276.830 C 133.318 277.632,134.514 278.402,135.400 278.296 C 136.240 278.195,136.547 276.935,137.056 271.500 C 137.174 270.235,137.435 269.200,137.636 269.200 C 137.836 269.200,138.000 268.491,138.000 267.624 C 138.000 266.757,138.180 265.936,138.400 265.800 C 138.620 265.664,138.800 264.753,138.800 263.776 C 138.800 262.799,138.980 262.000,139.200 262.000 C 139.420 262.000,139.600 261.280,139.600 260.400 C 139.600 259.448,139.789 258.800,140.067 258.800 C 140.323 258.800,140.431 258.698,140.306 258.573 C 140.182 258.448,140.256 257.706,140.472 256.923 C 141.067 254.770,141.237 253.956,141.481 252.100 C 141.604 251.165,141.861 250.400,142.052 250.400 C 142.243 250.400,142.400 249.860,142.400 249.200 C 142.400 248.540,142.580 248.000,142.800 248.000 C 143.020 248.000,143.200 247.460,143.200 246.800 C 143.200 246.140,143.380 245.600,143.600 245.600 C 143.820 245.600,144.000 245.060,144.000 244.400 C 144.000 243.740,144.180 243.200,144.400 243.200 C 144.620 243.200,144.800 242.660,144.800 242.000 C 144.800 241.340,144.980 240.800,145.200 240.800 C 145.420 240.800,145.600 240.350,145.600 239.800 C 145.600 239.250,145.747 238.800,145.928 238.800 C 146.108 238.800,146.500 237.900,146.800 236.800 C 147.100 235.700,147.492 234.800,147.672 234.800 C 147.853 234.800,148.000 234.361,148.000 233.824 C 148.000 233.287,148.180 232.736,148.400 232.600 C 148.620 232.464,148.800 232.003,148.800 231.576 C 148.800 231.149,148.980 230.800,149.200 230.800 C 149.420 230.800,149.600 230.440,149.600 230.000 C 149.600 229.560,149.780 229.200,150.000 229.200 C 150.220 229.200,150.400 228.914,150.400 228.563 C 150.400 228.213,151.098 226.548,151.950 224.863 C 152.803 223.179,153.928 220.900,154.450 219.800 C 154.973 218.700,155.535 217.740,155.700 217.667 C 155.865 217.593,156.000 217.188,156.000 216.767 C 156.000 216.345,156.158 216.000,156.350 216.000 C 156.677 216.000,157.372 213.766,157.254 213.100 C 157.224 212.935,157.380 212.800,157.600 212.800 C 157.820 212.800,158.000 212.530,158.000 212.200 C 158.000 211.870,158.136 211.600,158.302 211.600 C 158.469 211.600,158.860 211.015,159.172 210.300 C 159.484 209.585,160.023 208.728,160.370 208.396 C 161.227 207.574,162.000 206.145,162.000 205.382 C 162.000 205.036,162.154 204.848,162.343 204.965 C 162.532 205.081,163.114 204.327,163.636 203.288 C 164.159 202.250,164.904 201.109,165.293 200.753 C 165.682 200.397,166.000 199.900,166.000 199.648 C 166.000 198.945,166.888 197.531,168.033 196.411 C 168.601 195.855,169.189 194.905,169.340 194.300 C 169.492 193.695,169.853 193.200,170.145 193.200 C 170.436 193.200,171.013 192.570,171.428 191.800 C 171.843 191.030,172.316 190.400,172.481 190.400 C 172.645 190.400,173.059 189.860,173.400 189.200 C 173.741 188.540,173.898 188.000,173.749 188.000 C 173.600 188.000,173.862 187.667,174.332 187.259 C 174.801 186.852,175.069 186.402,174.926 186.259 C 174.783 186.117,174.967 186.000,175.333 186.000 C 175.700 186.000,176.000 185.730,176.000 185.400 C 176.000 185.070,176.210 184.800,176.467 184.800 C 176.723 184.800,176.813 184.680,176.666 184.532 C 176.519 184.385,176.706 183.924,177.083 183.508 C 178.275 182.191,177.066 182.013,166.935 182.006 C 159.298 182.001,157.287 181.892,157.346 181.486 C 157.416 181.012,159.169 177.096,160.020 175.515 C 160.223 175.138,161.282 173.111,162.374 171.012 C 163.466 168.912,164.638 166.795,164.979 166.308 C 165.321 165.821,165.600 165.247,165.600 165.033 C 165.600 164.819,165.060 165.495,164.400 166.536 C 163.740 167.576,163.200 168.504,163.200 168.596 C 163.200 168.689,162.632 169.718,161.937 170.882 C 160.009 174.115,155.208 183.856,152.958 189.100 C 152.651 189.815,152.145 190.985,151.834 191.700 C 151.522 192.415,150.786 194.260,150.197 195.800 C 148.644 199.863,148.550 200.100,148.073 201.200 C 147.585 202.323,144.792 210.834,144.005 213.600 C 142.955 217.285,142.681 218.224,142.369 219.200 C 141.478 221.995,138.916 234.133,138.042 239.702 C 136.278 250.947,135.188 262.887,135.195 270.900 C 135.198 274.036,135.046 276.000,134.800 276.000 C 134.580 276.000,134.400 275.728,134.400 275.395 C 134.400 275.062,134.234 274.477,134.032 274.095 C 133.830 273.713,133.272 272.320,132.793 271.000 C 132.314 269.680,131.767 268.240,131.578 267.800 C 131.135 266.770,129.201 260.962,128.781 259.400 C 128.171 257.130,125.941 248.598,125.540 247.000 C 125.319 246.120,124.980 244.500,124.787 243.400 C 124.593 242.300,124.058 239.240,123.596 236.600 C 120.461 218.660,120.410 195.852,123.462 176.800 C 124.406 170.905,126.240 161.957,127.151 158.800 C 128.096 155.526,128.700 153.383,129.575 150.200 C 130.017 148.594,131.149 145.215,131.620 144.100 C 132.314 142.455,132.714 141.422,133.593 139.000 C 134.072 137.680,134.630 136.287,134.832 135.905 C 135.034 135.523,135.200 135.025,135.200 134.797 C 135.200 133.836,143.041 117.847,145.577 113.635 C 146.692 111.785,147.530 110.196,147.439 110.105 C 147.267 109.934,145.542 112.755,142.338 118.445 C 142.042 118.970,141.706 119.490,141.592 119.600 C 141.477 119.710,140.783 121.060,140.050 122.600 C 139.316 124.140,138.462 125.850,138.153 126.400 C 137.843 126.950,137.097 128.433,136.495 129.696 C 135.422 131.946,135.367 131.992,133.733 131.996 C 132.778 131.998,131.981 132.213,131.865 132.500 C 131.754 132.775,131.649 132.505,131.632 131.900 C 131.614 131.295,131.780 130.800,132.000 130.800 C 132.220 130.800,132.400 130.348,132.400 129.795 C 132.400 129.242,132.565 128.477,132.767 128.095 C 132.968 127.713,133.443 126.320,133.821 125.000 C 134.435 122.853,135.978 118.738,137.419 115.400 C 137.704 114.740,138.321 113.210,138.790 112.000 C 140.083 108.663,147.545 93.628,148.851 91.728 C 149.483 90.808,150.000 89.941,150.000 89.800 C 150.000 89.659,150.540 88.759,151.200 87.800 C 151.860 86.841,152.400 85.951,152.400 85.822 C 152.400 84.845,166.288 65.221,168.410 63.200 C 168.525 63.090,170.169 61.110,172.063 58.800 C 178.625 50.796,192.563 37.238,200.800 30.846 C 203.110 29.054,205.705 27.005,206.566 26.294 C 207.428 25.582,209.048 24.384,210.166 23.632 C 211.285 22.879,212.260 22.114,212.333 21.932 C 212.407 21.749,212.677 21.600,212.933 21.600 C 213.190 21.599,213.906 21.164,214.524 20.632 C 215.143 20.100,216.985 18.795,218.619 17.733 C 221.977 15.548,222.366 14.763,219.900 15.153 C 219.735 15.179,219.600 15.043,219.600 14.852 C 219.600 14.661,218.745 14.379,217.700 14.226 C 216.655 14.073,214.810 13.773,213.600 13.559 C 212.390 13.345,210.328 13.078,209.017 12.965 C 207.706 12.852,206.366 12.544,206.040 12.280 C 205.555 11.888,205.508 11.910,205.782 12.400 C 206.055 12.888,206.017 12.907,205.579 12.500 C 205.282 12.225,204.187 12.000,203.144 12.000 C 202.101 12.000,201.153 11.847,201.037 11.660 C 200.922 11.473,198.374 11.293,195.375 11.260 C 192.377 11.227,189.716 11.065,189.462 10.900 C 188.878 10.521,170.038 10.495,169.901 10.873 M148.214 108.235 C 147.841 108.804,147.627 109.361,147.739 109.472 C 147.850 109.583,148.229 109.118,148.581 108.437 C 149.359 106.933,149.144 106.815,148.214 108.235 M265.000 121.550 C 263.703 121.826,263.506 122.492,262.944 128.500 C 262.826 129.765,262.565 130.800,262.364 130.800 C 262.164 130.800,262.000 131.509,262.000 132.376 C 262.000 133.243,261.820 134.064,261.600 134.200 C 261.380 134.336,261.200 135.247,261.200 136.224 C 261.200 137.201,261.020 138.000,260.800 138.000 C 260.580 138.000,260.400 138.720,260.400 139.600 C 260.400 140.552,260.211 141.200,259.933 141.200 C 259.677 141.200,259.566 141.299,259.687 141.420 C 259.881 141.615,259.663 142.809,258.960 145.400 C 258.840 145.840,258.642 146.965,258.519 147.900 C 258.396 148.835,258.139 149.600,257.948 149.600 C 257.757 149.600,257.600 150.140,257.600 150.800 C 257.600 151.460,257.420 152.000,257.200 152.000 C 256.980 152.000,256.800 152.540,256.800 153.200 C 256.800 153.860,256.620 154.400,256.400 154.400 C 256.180 154.400,256.000 154.940,256.000 155.600 C 256.000 156.260,255.820 156.800,255.600 156.800 C 255.380 156.800,255.200 157.340,255.200 158.000 C 255.200 158.660,255.020 159.200,254.800 159.200 C 254.580 159.200,254.400 159.555,254.400 159.988 C 254.400 160.421,254.040 161.417,253.600 162.200 C 253.160 162.983,252.800 163.855,252.800 164.137 C 252.800 164.419,252.440 165.395,252.000 166.306 C 251.560 167.216,251.200 168.240,251.200 168.581 C 251.200 168.921,251.020 169.200,250.800 169.200 C 250.580 169.200,250.400 169.560,250.400 170.000 C 250.400 170.440,250.220 170.800,250.000 170.800 C 249.780 170.800,249.600 171.086,249.600 171.437 C 249.600 171.787,248.902 173.452,248.050 175.137 C 247.197 176.821,246.072 179.100,245.550 180.200 C 245.027 181.300,244.465 182.260,244.300 182.333 C 244.135 182.407,244.000 182.812,244.000 183.233 C 244.000 183.655,243.843 184.000,243.650 184.000 C 243.323 184.000,242.628 186.234,242.746 186.900 C 242.776 187.065,242.620 187.200,242.400 187.200 C 242.180 187.200,242.000 187.470,242.000 187.800 C 242.000 188.130,241.864 188.400,241.698 188.400 C 241.531 188.400,241.140 188.985,240.828 189.700 C 240.516 190.415,239.977 191.272,239.630 191.604 C 238.773 192.426,238.000 193.855,238.000 194.618 C 238.000 194.964,237.846 195.152,237.657 195.035 C 237.468 194.919,236.886 195.673,236.364 196.712 C 235.841 197.750,235.096 198.891,234.707 199.247 C 234.318 199.603,234.000 200.100,234.000 200.352 C 234.000 201.055,233.112 202.469,231.967 203.589 C 231.399 204.145,230.811 205.095,230.660 205.700 C 230.508 206.305,230.163 206.807,229.892 206.815 C 229.194 206.837,225.565 212.000,226.248 212.000 C 226.399 212.000,226.138 212.333,225.668 212.741 C 225.199 213.148,224.931 213.598,225.074 213.741 C 225.217 213.883,225.033 214.000,224.667 214.000 C 224.300 214.000,224.000 214.270,224.000 214.600 C 224.000 214.930,223.809 215.200,223.576 215.200 C 223.343 215.200,223.256 215.368,223.383 215.572 C 223.509 215.777,223.427 216.060,223.200 216.200 C 222.973 216.340,222.909 216.668,223.058 216.928 C 223.206 217.187,223.182 217.268,223.004 217.106 C 222.825 216.945,222.436 217.125,222.139 217.506 C 221.639 218.148,221.617 218.140,221.853 217.400 C 222.107 216.602,222.106 216.602,221.489 217.396 C 221.149 217.833,220.956 218.329,221.061 218.498 C 221.165 218.667,220.969 218.914,220.625 219.046 C 220.281 219.178,220.004 219.581,220.009 219.943 C 220.016 220.472,220.153 220.430,220.709 219.727 C 221.389 218.868,242.400 218.187,242.400 219.024 C 242.400 219.348,241.364 221.726,240.319 223.800 C 238.229 227.948,235.581 232.892,235.021 233.692 C 234.679 234.179,234.400 234.753,234.400 234.967 C 234.400 235.181,234.940 234.505,235.600 233.464 C 236.260 232.424,236.800 231.496,236.800 231.404 C 236.800 231.311,237.368 230.282,238.063 229.118 C 239.991 225.885,244.792 216.144,247.042 210.900 C 247.349 210.185,247.855 209.015,248.166 208.300 C 248.478 207.585,249.214 205.740,249.803 204.200 C 250.929 201.254,251.356 200.177,251.981 198.700 C 252.431 197.636,255.258 188.982,255.999 186.400 C 256.283 185.410,256.748 183.861,257.033 182.959 C 261.013 170.340,264.818 143.970,264.805 129.100 C 264.802 125.964,264.954 124.000,265.200 124.000 C 265.420 124.000,265.600 124.349,265.600 124.776 C 265.600 125.203,265.759 125.651,265.952 125.770 C 266.146 125.890,266.395 126.396,266.507 126.894 C 266.618 127.392,267.284 129.330,267.986 131.200 C 270.350 137.495,270.737 138.731,272.800 146.600 C 274.937 154.750,274.952 154.816,276.002 161.200 C 276.201 162.410,276.548 164.390,276.772 165.600 C 280.079 183.394,279.335 210.093,274.923 232.000 C 273.593 238.602,273.560 238.741,272.000 244.200 C 271.780 244.970,271.420 246.230,271.200 247.000 C 270.980 247.770,270.641 248.985,270.447 249.700 C 269.998 251.359,268.872 254.733,268.380 255.900 C 267.686 257.545,267.286 258.578,266.407 261.000 C 265.928 262.320,265.370 263.713,265.168 264.095 C 264.966 264.477,264.800 264.977,264.800 265.206 C 264.800 265.435,264.143 267.013,263.340 268.711 C 258.123 279.750,256.828 282.384,255.872 283.892 C 254.816 285.558,254.454 286.523,255.162 285.780 C 255.362 285.571,255.885 284.750,256.325 283.955 C 257.861 281.179,258.201 280.599,258.407 280.400 C 258.521 280.290,259.968 277.500,261.623 274.200 L 264.631 268.200 266.515 268.078 C 268.450 267.953,268.718 268.204,268.036 269.505 C 267.836 269.887,267.179 271.820,266.576 273.800 C 265.974 275.780,264.948 278.750,264.296 280.400 C 263.645 282.050,262.969 283.760,262.796 284.200 C 262.622 284.640,262.102 285.853,261.640 286.896 C 261.178 287.938,260.800 288.912,260.800 289.060 C 260.800 289.642,252.237 306.693,251.154 308.267 C 250.519 309.189,250.000 310.033,250.000 310.141 C 250.000 311.477,233.904 334.811,231.611 336.800 C 231.484 336.910,229.833 338.890,227.941 341.200 C 220.568 350.205,206.074 364.080,196.602 371.200 C 195.285 372.190,193.806 373.392,193.315 373.871 C 192.824 374.350,191.877 375.064,191.211 375.457 C 190.545 375.851,190.000 376.314,190.000 376.486 C 190.000 376.659,189.775 376.800,189.500 376.801 C 189.225 376.801,188.370 377.341,187.600 378.000 C 186.830 378.659,185.975 379.199,185.700 379.199 C 185.425 379.200,185.197 379.335,185.194 379.500 C 185.191 379.665,183.664 380.790,181.800 382.000 C 179.936 383.210,178.410 384.290,178.409 384.400 C 178.403 384.862,180.674 385.600,182.103 385.600 C 182.952 385.600,183.546 385.763,183.423 385.963 C 183.208 386.311,184.429 386.490,190.600 387.013 C 192.140 387.144,193.571 387.420,193.780 387.626 C 193.989 387.832,195.193 388.000,196.456 388.000 C 197.719 388.000,198.855 388.165,198.979 388.366 C 199.104 388.568,200.779 388.731,202.703 388.729 C 209.321 388.724,210.847 388.801,210.644 389.129 C 210.392 389.537,230.024 389.509,230.657 389.101 C 230.908 388.939,232.843 388.788,234.956 388.766 C 237.070 388.743,238.900 388.562,239.023 388.363 C 239.146 388.163,240.756 388.000,242.600 388.000 C 244.444 388.000,246.050 387.843,246.168 387.652 C 246.373 387.320,247.906 387.062,252.800 386.538 C 254.010 386.408,255.180 386.161,255.400 385.987 C 255.620 385.814,256.610 385.618,257.600 385.551 C 259.228 385.441,260.400 384.877,260.400 384.203 C 260.400 384.063,260.940 383.494,261.600 382.939 C 262.260 382.383,262.800 381.755,262.800 381.543 C 262.800 381.331,264.798 379.187,267.239 376.779 C 269.681 374.370,271.558 372.400,271.411 372.400 C 271.263 372.400,271.417 372.126,271.753 371.790 C 272.807 370.736,275.200 367.729,275.200 367.459 C 275.200 367.317,275.920 366.459,276.800 365.552 C 277.680 364.645,278.400 363.744,278.400 363.548 C 278.400 363.353,278.940 362.628,279.600 361.937 C 280.260 361.246,280.800 360.438,280.800 360.141 C 280.800 359.843,280.950 359.600,281.132 359.600 C 281.315 359.600,281.720 359.105,282.032 358.500 C 282.344 357.895,282.698 357.310,282.820 357.200 C 282.942 357.090,283.662 356.102,284.421 355.005 C 285.179 353.908,286.025 352.770,286.300 352.477 C 286.575 352.183,286.800 351.804,286.800 351.634 C 286.800 351.464,287.250 350.801,287.800 350.162 C 288.349 349.523,288.799 348.775,288.800 348.500 C 288.800 348.225,288.980 348.000,289.200 348.000 C 289.420 348.000,289.600 347.640,289.600 347.200 C 289.600 346.760,289.747 346.400,289.926 346.400 C 290.324 346.400,291.600 343.799,291.600 342.986 C 291.600 342.664,291.736 342.400,291.902 342.400 C 292.069 342.400,292.464 341.815,292.780 341.100 C 293.097 340.385,293.680 339.451,294.078 339.025 C 294.475 338.598,294.800 338.013,294.800 337.725 C 294.800 337.436,294.980 337.200,295.200 337.200 C 295.420 337.200,295.600 336.840,295.600 336.400 C 295.600 335.960,295.780 335.600,296.000 335.600 C 296.220 335.600,296.400 335.240,296.400 334.800 C 296.400 334.360,296.580 334.000,296.800 334.000 C 297.020 334.000,297.200 333.651,297.200 333.224 C 297.200 332.797,297.380 332.336,297.600 332.200 C 297.820 332.064,298.000 331.603,298.000 331.176 C 298.000 330.749,298.180 330.400,298.400 330.400 C 298.620 330.400,298.800 329.950,298.800 329.400 C 298.800 328.850,298.980 328.400,299.200 328.400 C 299.420 328.400,299.600 328.040,299.600 327.600 C 299.600 327.160,299.780 326.800,300.000 326.800 C 300.220 326.800,300.400 326.440,300.400 326.000 C 300.400 325.560,300.580 325.200,300.800 325.200 C 301.020 325.200,301.200 324.840,301.200 324.400 C 301.200 323.960,301.380 323.600,301.600 323.600 C 301.820 323.600,302.000 323.251,302.000 322.824 C 302.000 322.397,302.180 321.936,302.400 321.800 C 302.620 321.664,302.800 321.203,302.800 320.776 C 302.800 320.349,302.980 320.000,303.200 320.000 C 303.420 320.000,303.600 319.460,303.600 318.800 C 303.600 318.140,303.780 317.600,304.000 317.600 C 304.220 317.600,304.400 317.060,304.400 316.400 C 304.400 315.740,304.547 315.200,304.728 315.200 C 304.908 315.200,305.304 314.289,305.607 313.175 C 305.910 312.061,306.303 311.060,306.479 310.951 C 306.656 310.842,306.800 310.324,306.800 309.800 C 306.800 309.276,306.975 308.739,307.188 308.607 C 307.402 308.475,307.696 307.470,307.841 306.375 C 307.987 305.279,308.262 304.285,308.453 304.167 C 308.644 304.049,308.800 303.344,308.800 302.600 C 308.800 301.856,308.980 301.136,309.200 301.000 C 309.420 300.864,309.600 300.133,309.600 299.376 C 309.600 298.619,309.780 298.000,310.000 298.000 C 310.220 298.000,310.400 297.280,310.400 296.400 C 310.400 295.520,310.580 294.800,310.800 294.800 C 311.020 294.800,311.200 294.260,311.200 293.600 C 311.200 292.940,311.380 292.400,311.600 292.400 C 311.820 292.400,312.000 291.500,312.000 290.400 C 312.000 289.300,312.180 288.400,312.400 288.400 C 312.620 288.400,312.800 287.410,312.800 286.200 C 312.800 284.990,312.980 284.000,313.200 284.000 C 313.422 284.000,313.600 282.933,313.600 281.600 C 313.600 280.267,313.778 279.200,314.000 279.200 C 314.222 279.200,314.400 278.133,314.400 276.800 C 314.400 275.467,314.578 274.400,314.800 274.400 C 315.041 274.400,315.200 272.733,315.200 270.200 C 315.200 267.667,315.359 266.000,315.600 266.000 C 315.860 266.000,316.000 260.400,316.000 250.000 C 316.000 239.600,315.860 234.000,315.600 234.000 C 315.362 234.000,315.200 232.493,315.200 230.280 C 315.200 228.234,315.030 226.389,314.823 226.180 C 314.616 225.971,314.406 224.675,314.357 223.300 C 314.309 221.925,314.118 220.800,313.934 220.800 C 313.750 220.800,313.600 219.821,313.600 218.624 C 313.600 217.427,313.420 216.336,313.200 216.200 C 312.980 216.064,312.800 215.063,312.800 213.976 C 312.800 212.889,312.620 212.000,312.400 212.000 C 312.180 212.000,312.000 211.190,312.000 210.200 C 312.000 209.210,311.820 208.400,311.600 208.400 C 311.380 208.400,311.200 207.680,311.200 206.800 C 311.200 205.920,311.020 205.200,310.800 205.200 C 310.580 205.200,310.400 204.480,310.400 203.600 C 310.400 202.720,310.220 202.000,310.000 202.000 C 309.780 202.000,309.600 201.280,309.600 200.400 C 309.600 199.520,309.420 198.800,309.200 198.800 C 308.980 198.800,308.800 198.271,308.800 197.624 C 308.800 196.977,308.630 196.342,308.423 196.214 C 308.216 196.086,307.925 195.173,307.777 194.186 C 307.629 193.198,307.348 192.292,307.154 192.171 C 306.959 192.051,306.800 191.423,306.800 190.776 C 306.800 190.129,306.620 189.600,306.400 189.600 C 306.180 189.600,306.000 189.060,306.000 188.400 C 306.000 187.740,305.820 187.200,305.600 187.200 C 305.380 187.200,305.200 186.660,305.200 186.000 C 305.200 185.340,305.020 184.800,304.800 184.800 C 304.580 184.800,304.400 184.260,304.400 183.600 C 304.400 182.940,304.220 182.400,304.000 182.400 C 303.780 182.400,303.600 182.040,303.600 181.600 C 303.600 181.160,303.420 180.800,303.200 180.800 C 302.980 180.800,302.800 180.528,302.800 180.195 C 302.800 179.862,302.632 179.277,302.426 178.895 C 302.221 178.513,301.817 177.615,301.529 176.900 C 301.240 176.185,300.869 175.600,300.702 175.600 C 300.536 175.600,300.400 175.240,300.400 174.800 C 300.400 174.360,300.220 174.000,300.000 174.000 C 299.780 174.000,299.600 173.460,299.600 172.800 C 299.600 172.140,299.420 171.600,299.200 171.600 C 298.980 171.600,298.800 171.240,298.800 170.800 C 298.800 170.360,298.620 170.000,298.400 170.000 C 298.180 170.000,298.000 169.640,298.000 169.200 C 298.000 168.760,297.820 168.400,297.600 168.400 C 297.380 168.400,297.200 168.040,297.200 167.600 C 297.200 167.160,297.020 166.800,296.800 166.800 C 296.580 166.800,296.400 166.440,296.400 166.000 C 296.400 165.560,296.265 165.199,296.100 165.197 C 295.741 165.193,294.800 163.256,294.800 162.520 C 294.800 162.234,294.620 162.000,294.400 162.000 C 294.180 162.000,294.000 161.730,294.000 161.400 C 294.000 161.070,293.820 160.800,293.600 160.800 C 293.380 160.800,293.200 160.530,293.200 160.200 C 293.200 159.870,293.020 159.600,292.800 159.600 C 292.580 159.600,292.400 159.330,292.400 159.000 C 292.400 158.670,292.220 158.400,292.000 158.400 C 291.780 158.400,291.600 158.128,291.600 157.795 C 291.600 157.462,291.429 156.877,291.219 156.495 C 291.010 156.113,290.540 155.125,290.174 154.300 C 289.808 153.475,289.349 152.800,289.154 152.800 C 288.959 152.800,288.800 152.522,288.800 152.183 C 288.800 151.844,288.440 151.180,288.000 150.708 C 287.560 150.236,287.200 149.613,287.200 149.325 C 287.200 149.036,287.020 148.800,286.800 148.800 C 286.580 148.800,286.400 148.564,286.400 148.275 C 286.400 147.987,286.085 147.402,285.700 146.975 C 285.315 146.549,284.745 145.705,284.432 145.100 C 284.120 144.495,283.715 144.000,283.532 144.000 C 283.350 144.000,283.200 143.802,283.200 143.560 C 283.200 143.319,282.660 142.617,282.000 142.000 C 281.340 141.383,280.800 140.631,280.800 140.328 C 280.800 140.025,280.440 139.517,280.000 139.200 C 279.560 138.883,279.200 138.415,279.200 138.160 C 279.200 137.905,278.480 136.955,277.600 136.048 C 276.720 135.141,276.000 134.211,276.000 133.981 C 276.000 133.752,275.595 133.139,275.100 132.620 C 274.605 132.100,273.840 131.188,273.400 130.592 C 272.960 129.997,271.340 128.199,269.800 126.598 C 268.260 124.997,266.941 123.444,266.868 123.147 C 266.795 122.851,266.547 122.491,266.317 122.349 C 266.086 122.206,266.021 121.889,266.172 121.645 C 266.324 121.400,266.392 121.221,266.324 121.247 C 266.256 121.273,265.660 121.410,265.000 121.550 M189.429 169.429 C 189.062 169.795,188.865 170.198,188.990 170.324 C 189.116 170.450,189.519 170.252,189.886 169.886 C 190.252 169.519,190.450 169.116,190.324 168.990 C 190.198 168.865,189.795 169.062,189.429 169.429 M181.819 177.279 C 180.530 178.564,180.115 179.684,181.062 179.321 C 181.383 179.198,181.548 178.841,181.428 178.528 C 181.306 178.210,181.385 178.067,181.607 178.205 C 181.826 178.340,182.113 178.170,182.245 177.828 C 182.376 177.485,182.649 177.307,182.852 177.432 C 183.054 177.557,183.170 177.421,183.110 177.130 C 183.049 176.838,183.225 176.645,183.500 176.700 C 183.775 176.755,184.000 176.620,184.000 176.400 C 184.000 175.684,183.026 176.077,181.819 177.279 M178.998 180.645 C 178.577 181.280,178.182 182.160,178.121 182.600 L 178.010 183.400 178.495 182.600 C 178.761 182.160,178.984 181.658,178.990 181.485 C 178.995 181.312,179.247 181.018,179.549 180.832 C 179.851 180.645,180.022 180.267,179.931 179.992 C 179.830 179.691,179.457 179.953,178.998 180.645 M218.849 220.761 C 218.528 220.965,218.428 221.322,218.611 221.617 C 218.815 221.948,218.762 222.024,218.459 221.836 C 218.199 221.676,217.889 221.824,217.755 222.172 C 217.624 222.515,217.351 222.693,217.148 222.568 C 216.946 222.443,216.830 222.579,216.890 222.870 C 216.951 223.162,216.775 223.355,216.500 223.300 C 216.225 223.245,216.000 223.380,216.000 223.600 C 216.000 224.655,219.272 222.151,219.447 220.963 C 219.543 220.305,219.560 220.311,218.849 220.761 M210.080 230.080 C 209.425 230.735,209.475 231.223,210.169 230.957 C 210.790 230.718,211.365 229.600,210.867 229.600 C 210.698 229.600,210.344 229.816,210.080 230.080 M253.908 287.300 C 253.587 287.795,253.107 288.650,252.840 289.200 C 252.160 290.603,253.394 289.106,254.241 287.500 C 254.939 286.174,254.723 286.044,253.908 287.300 M251.386 291.700 L 250.752 293.000 251.567 292.000 C 252.352 291.037,252.608 290.400,252.210 290.400 C 252.106 290.400,251.735 290.985,251.386 291.700 " stroke="none" fill="#1fbbe4" fill-rule="evenodd"></path><path id="path2" d="M170.900 10.676 C 171.285 10.776,171.915 10.776,172.300 10.676 C 172.685 10.575,172.370 10.493,171.600 10.493 C 170.830 10.493,170.515 10.575,170.900 10.676 M180.705 10.683 C 181.202 10.779,181.922 10.775,182.305 10.675 C 182.687 10.575,182.280 10.496,181.400 10.501 C 180.520 10.505,180.207 10.587,180.705 10.683 M221.533 15.530 C 221.460 15.712,219.960 16.828,218.200 18.009 C 216.440 19.191,214.651 20.482,214.225 20.879 C 213.798 21.275,213.228 21.600,212.958 21.600 C 212.688 21.600,212.407 21.749,212.333 21.932 C 212.260 22.114,211.285 22.879,210.166 23.632 C 209.048 24.384,207.428 25.582,206.566 26.294 C 205.705 27.005,203.110 29.054,200.800 30.846 C 192.563 37.238,178.625 50.796,172.063 58.800 C 170.169 61.110,168.525 63.090,168.410 63.200 C 166.288 65.221,152.400 84.845,152.400 85.822 C 152.400 85.951,151.860 86.841,151.200 87.800 C 150.540 88.759,150.000 89.659,150.000 89.800 C 150.000 89.941,149.483 90.808,148.851 91.728 C 147.545 93.628,140.083 108.663,138.790 112.000 C 138.321 113.210,137.704 114.740,137.419 115.400 C 135.978 118.738,134.435 122.853,133.821 125.000 C 133.443 126.320,132.968 127.713,132.767 128.095 C 132.565 128.477,132.400 129.242,132.400 129.795 C 132.400 130.348,132.220 130.800,132.000 130.800 C 131.780 130.800,131.614 131.295,131.632 131.900 C 131.649 132.505,131.754 132.775,131.865 132.500 C 131.981 132.213,132.778 131.998,133.733 131.996 C 135.367 131.992,135.422 131.946,136.495 129.696 C 137.097 128.433,137.843 126.950,138.153 126.400 C 138.462 125.850,139.316 124.140,140.050 122.600 C 140.783 121.060,141.477 119.710,141.592 119.600 C 141.706 119.490,142.042 118.970,142.338 118.445 C 142.633 117.920,143.202 116.909,143.601 116.198 C 144.000 115.488,145.063 113.694,145.963 112.212 C 146.863 110.731,147.600 109.432,147.600 109.327 C 147.600 109.146,151.213 103.827,155.435 97.792 C 159.755 91.619,167.536 82.502,174.284 75.707 C 183.937 65.988,184.916 65.114,195.600 56.687 C 197.438 55.237,209.914 46.800,210.219 46.800 C 210.349 46.800,211.241 46.260,212.200 45.600 C 213.159 44.940,214.024 44.400,214.121 44.400 C 214.218 44.400,216.076 43.388,218.249 42.152 C 220.422 40.916,222.920 39.587,223.800 39.199 C 224.680 38.811,227.290 37.601,229.600 36.509 C 231.910 35.418,236.230 33.583,239.200 32.432 C 242.170 31.281,244.913 30.173,245.295 29.970 C 245.677 29.766,246.264 29.600,246.600 29.600 C 246.936 29.600,247.523 29.435,247.905 29.233 C 248.287 29.032,249.973 28.450,251.652 27.941 C 254.342 27.126,255.627 25.995,253.857 26.002 C 253.481 26.003,247.286 23.685,244.200 22.389 C 243.167 21.955,239.107 20.648,236.800 20.007 C 235.810 19.732,234.550 19.369,234.000 19.200 C 233.450 19.031,232.190 18.671,231.200 18.401 C 230.210 18.130,229.040 17.762,228.600 17.582 C 227.859 17.279,227.303 17.160,223.700 16.537 C 222.964 16.410,222.400 16.071,222.400 15.756 C 222.400 15.156,221.752 14.988,221.533 15.530 M317.400 62.417 C 316.080 62.579,313.920 62.920,312.600 63.175 C 311.280 63.429,309.300 63.796,308.200 63.989 C 306.340 64.317,304.226 64.783,300.800 65.621 C 300.030 65.809,298.680 66.140,297.800 66.355 C 296.920 66.571,295.480 66.951,294.600 67.200 C 293.720 67.449,292.370 67.809,291.600 68.000 C 288.683 68.723,287.274 69.145,283.000 70.579 C 276.622 72.720,268.966 75.553,266.200 76.797 C 264.880 77.391,262.994 78.219,262.010 78.638 C 240.720 87.697,214.912 105.616,197.254 123.600 C 188.296 132.723,175.349 148.540,172.333 154.046 C 171.967 154.716,171.382 155.578,171.033 155.963 C 170.685 156.348,170.400 156.796,170.400 156.959 C 170.400 157.122,169.860 158.041,169.200 159.000 C 168.540 159.959,168.000 160.864,168.000 161.010 C 168.000 161.157,167.656 161.759,167.236 162.350 C 166.412 163.507,165.401 165.319,162.346 171.115 C 161.270 173.158,160.223 175.138,160.020 175.515 C 159.169 177.096,157.416 181.012,157.346 181.486 C 157.287 181.892,159.270 182.000,166.803 182.000 C 176.192 182.000,177.600 182.113,177.600 182.866 C 177.600 183.076,177.375 183.118,177.100 182.959 C 176.825 182.801,176.733 182.819,176.897 182.999 C 177.060 183.179,176.989 183.572,176.740 183.872 C 176.383 184.303,176.423 184.366,176.928 184.172 C 177.508 183.950,178.100 182.845,178.199 181.800 C 178.219 181.580,178.498 181.460,178.818 181.533 C 179.138 181.607,179.271 181.538,179.114 181.381 C 178.645 180.912,179.561 179.610,180.190 179.852 C 180.605 180.011,180.723 179.839,180.608 179.243 C 180.449 178.417,181.814 177.038,182.420 177.412 C 182.579 177.511,182.955 177.278,183.255 176.896 C 183.750 176.264,183.735 176.251,183.091 176.757 C 182.469 177.245,182.413 177.232,182.634 176.657 C 182.772 176.295,183.316 176.000,183.843 176.000 C 184.369 176.000,184.764 175.865,184.721 175.700 C 184.518 174.934,185.283 173.657,185.820 173.863 C 186.167 173.996,186.400 173.846,186.400 173.490 C 186.400 173.163,187.033 172.412,187.807 171.821 C 188.582 171.231,189.133 170.616,189.034 170.455 C 188.734 169.970,189.429 169.154,190.240 169.038 C 190.658 168.978,191.222 168.495,191.494 167.964 C 191.766 167.434,191.991 167.132,191.994 167.293 C 191.997 167.455,193.962 165.622,196.361 163.221 C 198.760 160.820,200.830 158.963,200.961 159.094 C 201.092 159.226,201.200 159.033,201.200 158.667 C 201.200 158.300,201.335 158.040,201.500 158.089 C 201.891 158.205,204.019 156.820,204.847 155.910 C 205.203 155.520,205.626 155.200,205.786 155.200 C 205.947 155.200,206.583 154.660,207.200 154.000 C 207.817 153.340,208.639 152.800,209.027 152.800 C 209.416 152.800,209.616 152.683,209.473 152.540 C 209.189 152.256,211.998 149.600,212.583 149.600 C 212.702 149.600,213.147 149.285,213.571 148.900 C 215.076 147.534,215.572 147.200,216.095 147.200 C 216.386 147.200,216.883 146.840,217.200 146.400 C 217.517 145.960,218.057 145.600,218.400 145.600 C 218.743 145.600,219.283 145.240,219.600 144.800 C 219.917 144.360,220.379 144.000,220.626 144.000 C 220.874 144.000,221.402 143.640,221.800 143.200 C 222.198 142.760,222.740 142.400,223.004 142.400 C 223.267 142.400,223.935 141.995,224.488 141.500 C 225.040 141.005,225.730 140.544,226.021 140.475 C 226.311 140.406,226.876 139.974,227.275 139.514 C 227.711 139.010,228.000 138.886,228.000 139.200 C 228.000 139.509,228.305 139.370,228.747 138.861 C 229.158 138.388,229.788 138.000,230.147 138.000 C 230.506 138.000,230.800 137.820,230.800 137.600 C 230.800 137.380,231.160 137.200,231.600 137.200 C 232.040 137.200,232.401 137.065,232.403 136.900 C 232.406 136.595,234.299 135.600,234.875 135.600 C 235.177 135.600,236.294 134.765,237.416 133.700 C 237.706 133.425,238.119 133.200,238.334 133.200 C 238.873 133.200,242.169 131.469,242.333 131.100 C 242.407 130.935,242.812 130.800,243.233 130.800 C 243.655 130.800,244.001 130.665,244.003 130.500 C 244.007 130.141,245.944 129.200,246.680 129.200 C 246.966 129.200,247.200 129.020,247.200 128.800 C 247.200 128.580,247.560 128.400,248.000 128.400 C 248.440 128.400,248.800 128.220,248.800 128.000 C 248.800 127.780,249.160 127.600,249.600 127.600 C 250.040 127.600,250.400 127.420,250.400 127.200 C 250.400 126.980,250.985 126.797,251.700 126.794 C 252.686 126.789,252.855 126.694,252.400 126.400 C 251.945 126.106,252.114 126.011,253.100 126.006 C 253.815 126.003,254.400 125.820,254.400 125.600 C 254.400 125.380,254.688 125.200,255.040 125.200 C 255.636 125.200,257.698 124.408,259.295 123.566 C 259.677 123.365,260.442 123.200,260.995 123.200 C 261.548 123.200,262.000 123.020,262.000 122.800 C 262.000 122.580,262.349 122.400,262.776 122.400 C 263.203 122.400,263.664 122.220,263.800 122.000 C 263.936 121.780,264.405 121.600,264.843 121.600 C 265.281 121.600,266.351 121.256,267.221 120.835 C 268.091 120.415,268.686 120.280,268.543 120.535 C 268.377 120.831,268.479 120.818,268.821 120.500 C 269.118 120.225,269.774 120.000,270.280 120.000 C 270.786 120.000,271.200 119.840,271.200 119.645 C 271.200 119.450,271.785 119.174,272.500 119.031 C 275.624 118.406,276.000 118.290,276.000 117.955 C 276.000 117.760,276.720 117.600,277.600 117.600 C 278.480 117.600,279.200 117.420,279.200 117.200 C 279.200 116.980,279.905 116.800,280.767 116.800 C 281.628 116.800,282.393 116.628,282.467 116.418 C 282.540 116.207,283.275 115.990,284.100 115.936 C 284.925 115.881,285.600 115.712,285.600 115.560 C 285.600 115.300,286.686 115.084,290.700 114.547 C 291.635 114.422,292.400 114.158,292.400 113.960 C 292.400 113.762,293.480 113.600,294.800 113.600 C 296.133 113.600,297.200 113.422,297.200 113.200 C 297.200 112.978,298.267 112.800,299.600 112.800 C 300.933 112.800,302.000 112.622,302.000 112.400 C 302.000 112.169,303.267 112.000,305.000 112.000 C 306.733 112.000,308.000 111.831,308.000 111.600 C 308.000 111.356,309.808 111.200,312.624 111.200 C 315.604 111.200,317.159 111.058,317.000 110.800 C 316.837 110.536,321.329 110.400,330.176 110.400 C 338.859 110.400,343.600 110.541,343.600 110.800 C 343.600 111.039,345.133 111.200,347.400 111.200 C 349.667 111.200,351.200 111.361,351.200 111.600 C 351.200 111.833,352.533 112.000,354.400 112.000 C 356.267 112.000,357.600 112.167,357.600 112.400 C 357.600 112.620,358.590 112.800,359.800 112.800 C 361.010 112.800,362.000 112.980,362.000 113.200 C 362.000 113.429,363.200 113.600,364.800 113.600 C 366.400 113.600,367.600 113.771,367.600 114.000 C 367.600 114.220,368.129 114.400,368.776 114.400 C 369.423 114.400,370.064 114.580,370.200 114.800 C 370.336 115.020,371.211 115.200,372.144 115.200 C 373.077 115.200,374.011 115.370,374.220 115.579 C 374.429 115.787,375.365 116.002,376.300 116.057 C 377.235 116.112,378.000 116.301,378.000 116.478 C 378.000 116.655,378.630 116.800,379.400 116.800 C 381.030 116.800,381.340 115.766,380.000 114.800 C 379.560 114.483,379.200 114.033,379.200 113.800 C 379.200 113.567,378.840 113.117,378.400 112.800 C 377.960 112.483,377.600 112.033,377.600 111.800 C 377.600 111.567,377.240 111.117,376.800 110.800 C 376.360 110.483,376.000 110.059,376.000 109.859 C 376.000 109.658,375.612 109.158,375.139 108.747 C 374.665 108.336,374.423 108.000,374.600 108.000 C 374.777 108.000,374.546 107.674,374.086 107.275 C 373.626 106.876,373.194 106.295,373.125 105.984 C 373.056 105.673,372.325 104.753,371.500 103.941 C 370.675 103.128,370.000 102.258,370.000 102.008 C 370.000 101.758,369.820 101.664,369.600 101.800 C 369.380 101.936,369.200 101.754,369.200 101.395 C 369.200 100.632,368.208 99.525,367.848 99.886 C 367.711 100.022,367.600 99.937,367.600 99.697 C 367.600 99.457,366.340 97.986,364.800 96.428 C 363.260 94.869,362.000 93.405,362.000 93.174 C 362.000 92.942,361.820 92.864,361.600 93.000 C 361.380 93.136,361.200 92.956,361.200 92.600 C 361.200 92.244,361.020 92.064,360.800 92.200 C 360.580 92.336,360.400 92.197,360.400 91.891 C 360.400 91.585,359.905 91.080,359.300 90.768 C 358.695 90.455,357.935 89.840,357.611 89.400 C 356.696 88.159,349.484 81.183,349.302 81.364 C 349.214 81.453,348.215 80.642,347.083 79.563 C 345.951 78.483,344.794 77.600,344.513 77.600 C 344.231 77.600,344.000 77.465,343.999 77.300 C 343.999 77.135,343.107 76.393,342.018 75.650 C 340.928 74.908,339.716 73.873,339.324 73.350 C 338.931 72.828,338.383 72.400,338.105 72.400 C 337.827 72.400,337.600 72.220,337.600 72.000 C 337.600 71.780,337.330 71.600,337.000 71.600 C 336.670 71.600,336.400 71.450,336.400 71.268 C 336.400 71.085,335.905 70.681,335.300 70.370 C 334.695 70.060,333.909 69.489,333.553 69.103 C 333.197 68.716,332.678 68.400,332.400 68.400 C 332.122 68.400,331.591 68.051,331.222 67.625 C 330.852 67.199,330.299 66.794,329.993 66.725 C 329.687 66.656,329.015 66.195,328.500 65.700 C 327.985 65.205,327.400 64.800,327.200 64.800 C 327.000 64.800,326.397 64.361,325.861 63.824 C 325.324 63.288,324.801 62.932,324.699 63.034 C 324.597 63.136,324.286 62.945,324.008 62.610 C 323.462 61.952,321.618 61.898,317.400 62.417 M222.960 215.906 C 222.718 216.068,222.303 216.650,222.038 217.200 C 221.613 218.081,221.623 218.117,222.117 217.506 C 222.426 217.125,222.796 216.900,222.940 217.006 C 223.083 217.113,223.112 217.082,223.003 216.937 C 222.895 216.792,223.007 216.432,223.252 216.137 C 223.745 215.544,223.634 215.456,222.960 215.906 M220.886 218.588 C 221.344 219.096,220.448 220.393,219.810 220.148 C 219.395 219.989,219.277 220.161,219.392 220.757 C 219.551 221.583,218.186 222.962,217.580 222.588 C 217.421 222.489,217.045 222.722,216.745 223.104 C 216.250 223.736,216.265 223.749,216.909 223.243 C 217.531 222.755,217.587 222.768,217.366 223.343 C 217.228 223.705,216.684 224.000,216.157 224.000 C 215.631 224.000,215.236 224.135,215.279 224.300 C 215.482 225.066,214.717 226.343,214.180 226.137 C 213.816 225.997,213.600 226.163,213.600 226.581 C 213.600 226.947,213.422 227.137,213.205 227.003 C 212.969 226.857,212.916 227.038,213.074 227.449 C 213.268 227.954,213.179 228.077,212.741 227.909 C 212.151 227.683,211.133 228.834,210.950 229.937 C 210.830 230.654,210.610 230.840,209.737 230.966 C 209.331 231.024,208.778 231.505,208.506 232.036 C 208.234 232.566,208.009 232.868,208.006 232.707 C 208.003 232.545,206.038 234.378,203.639 236.779 C 201.240 239.180,199.170 241.037,199.039 240.906 C 198.908 240.774,198.800 240.967,198.800 241.333 C 198.800 241.700,198.665 241.960,198.500 241.911 C 198.109 241.795,195.981 243.180,195.153 244.090 C 194.797 244.480,194.302 244.800,194.053 244.800 C 193.804 244.800,193.645 244.962,193.700 245.160 C 193.755 245.358,193.666 245.539,193.502 245.562 C 193.338 245.585,192.688 246.143,192.059 246.802 C 191.429 247.461,190.690 248.000,190.417 248.000 C 190.144 248.000,189.417 248.540,188.800 249.200 C 188.183 249.860,187.483 250.400,187.243 250.400 C 187.003 250.400,186.291 250.940,185.660 251.600 C 185.029 252.260,184.258 252.800,183.945 252.800 C 183.632 252.800,183.117 253.160,182.800 253.600 C 182.483 254.040,181.983 254.400,181.688 254.400 C 181.394 254.400,181.264 254.580,181.400 254.800 C 181.536 255.020,181.277 255.200,180.824 255.200 C 180.371 255.200,180.000 255.380,180.000 255.600 C 180.000 255.820,179.758 256.000,179.462 256.000 C 179.166 256.000,178.598 256.360,178.200 256.800 C 177.802 257.240,177.332 257.600,177.156 257.600 C 176.717 257.600,174.000 259.387,172.900 260.400 C 172.403 260.857,172.000 261.015,172.000 260.753 C 172.000 260.491,171.664 260.665,171.253 261.139 C 170.842 261.612,170.212 262.000,169.853 262.000 C 169.494 262.000,169.200 262.180,169.200 262.400 C 169.200 262.620,168.840 262.800,168.400 262.800 C 167.960 262.800,167.599 262.935,167.597 263.100 C 167.594 263.405,165.701 264.400,165.125 264.400 C 164.823 264.400,163.706 265.235,162.584 266.300 C 162.294 266.575,161.881 266.800,161.666 266.800 C 161.127 266.800,157.831 268.531,157.667 268.900 C 157.593 269.065,157.188 269.200,156.767 269.200 C 156.345 269.200,155.999 269.335,155.997 269.500 C 155.993 269.859,154.056 270.800,153.320 270.800 C 153.034 270.800,152.800 270.980,152.800 271.200 C 152.800 271.420,152.440 271.600,152.000 271.600 C 151.560 271.600,151.200 271.780,151.200 272.000 C 151.200 272.220,150.840 272.400,150.400 272.400 C 149.960 272.400,149.600 272.580,149.600 272.800 C 149.600 273.020,149.139 273.200,148.576 273.200 C 147.996 273.200,147.660 273.373,147.800 273.600 C 147.944 273.833,147.537 274.000,146.824 274.000 C 146.151 274.000,145.600 274.180,145.600 274.400 C 145.600 274.620,145.229 274.800,144.776 274.800 C 144.249 274.800,144.057 274.969,144.242 275.268 C 144.439 275.586,144.310 275.651,143.840 275.471 C 143.455 275.323,142.420 275.558,141.500 276.003 C 140.592 276.441,139.434 276.800,138.925 276.800 C 138.416 276.800,138.000 276.980,138.000 277.200 C 138.000 277.420,137.651 277.600,137.224 277.600 C 136.797 277.600,136.336 277.780,136.200 278.000 C 136.064 278.220,135.511 278.400,134.971 278.400 C 134.431 278.400,133.587 278.608,133.095 278.862 C 131.174 279.856,130.784 280.000,130.029 280.000 C 129.599 280.000,129.136 280.180,129.000 280.400 C 128.864 280.620,128.234 280.800,127.600 280.800 C 126.966 280.800,126.336 280.980,126.200 281.200 C 126.064 281.420,125.513 281.600,124.976 281.600 C 124.439 281.600,124.000 281.780,124.000 282.000 C 124.000 282.220,123.280 282.400,122.400 282.400 C 121.520 282.400,120.800 282.580,120.800 282.800 C 120.800 283.020,120.095 283.200,119.233 283.200 C 118.372 283.200,117.607 283.372,117.533 283.582 C 117.460 283.793,116.725 284.010,115.900 284.064 C 115.075 284.119,114.400 284.288,114.400 284.440 C 114.400 284.700,113.314 284.916,109.300 285.453 C 108.365 285.578,107.600 285.842,107.600 286.040 C 107.600 286.238,106.711 286.400,105.624 286.400 C 104.537 286.400,103.536 286.580,103.400 286.800 C 103.264 287.020,102.083 287.200,100.776 287.200 C 99.459 287.200,98.400 287.378,98.400 287.600 C 98.400 287.831,97.141 288.000,95.424 288.000 C 93.787 288.000,92.336 288.180,92.200 288.400 C 92.058 288.629,89.988 288.800,87.353 288.800 C 84.388 288.800,82.841 288.942,83.000 289.200 C 83.163 289.464,78.671 289.600,69.824 289.600 C 61.141 289.600,56.400 289.459,56.400 289.200 C 56.400 288.961,54.867 288.800,52.600 288.800 C 50.333 288.800,48.800 288.639,48.800 288.400 C 48.800 288.167,47.467 288.000,45.600 288.000 C 43.733 288.000,42.400 287.833,42.400 287.600 C 42.400 287.380,41.410 287.200,40.200 287.200 C 38.990 287.200,38.000 287.020,38.000 286.800 C 38.000 286.571,36.800 286.400,35.200 286.400 C 33.600 286.400,32.400 286.229,32.400 286.000 C 32.400 285.780,31.680 285.600,30.800 285.600 C 29.920 285.600,29.200 285.420,29.200 285.200 C 29.200 284.980,28.480 284.800,27.600 284.800 C 26.720 284.800,26.000 284.620,26.000 284.400 C 26.000 284.180,25.280 284.000,24.400 284.000 C 23.520 284.000,22.800 283.820,22.800 283.600 C 22.800 283.380,21.990 283.200,21.000 283.200 C 18.976 283.200,18.512 284.128,20.000 285.200 C 20.440 285.517,20.800 286.007,20.800 286.288 C 20.800 286.570,20.980 286.800,21.200 286.800 C 21.420 286.800,21.600 286.998,21.600 287.240 C 21.600 287.481,22.140 288.183,22.800 288.800 C 23.460 289.417,24.000 290.053,24.000 290.214 C 24.000 290.374,24.388 290.842,24.861 291.253 C 25.335 291.664,25.577 292.000,25.400 292.000 C 25.223 292.000,25.465 292.336,25.939 292.747 C 26.412 293.158,26.800 293.712,26.800 293.978 C 26.800 294.245,27.520 295.154,28.400 296.000 C 29.280 296.846,30.000 297.742,30.000 297.992 C 30.000 298.242,30.180 298.336,30.400 298.200 C 30.620 298.064,30.800 298.323,30.800 298.776 C 30.800 299.278,31.060 299.600,31.467 299.600 C 31.833 299.600,32.027 299.707,31.897 299.837 C 31.766 299.967,33.086 301.483,34.830 303.205 C 36.573 304.928,38.000 306.542,38.000 306.792 C 38.000 307.043,38.180 307.136,38.400 307.000 C 38.620 306.864,38.800 307.044,38.800 307.400 C 38.800 307.756,38.980 307.936,39.200 307.800 C 39.420 307.664,39.600 307.803,39.600 308.109 C 39.600 308.415,40.095 308.920,40.700 309.232 C 41.305 309.545,42.065 310.160,42.389 310.600 C 43.334 311.882,50.519 318.814,50.708 318.625 C 50.803 318.531,51.537 319.077,52.340 319.838 C 54.853 322.222,55.060 322.400,55.331 322.400 C 55.578 322.400,57.068 323.584,58.225 324.700 C 58.510 324.975,58.946 325.200,59.195 325.200 C 59.444 325.200,59.536 325.380,59.400 325.600 C 59.264 325.820,59.394 326.000,59.688 326.000 C 59.983 326.000,60.483 326.360,60.800 326.800 C 61.117 327.240,61.617 327.600,61.912 327.600 C 62.215 327.600,62.323 327.801,62.162 328.062 C 61.993 328.336,62.051 328.415,62.306 328.258 C 62.542 328.112,63.007 328.264,63.339 328.596 C 63.671 328.928,64.136 329.200,64.371 329.200 C 64.607 329.200,64.800 329.380,64.800 329.600 C 64.800 329.820,65.030 330.000,65.312 330.000 C 65.593 330.000,66.083 330.360,66.400 330.800 C 66.717 331.240,67.205 331.600,67.484 331.600 C 67.953 331.600,68.930 332.279,70.216 333.500 C 70.506 333.775,70.870 334.000,71.025 334.000 C 71.179 334.000,71.642 334.388,72.053 334.861 C 72.464 335.335,72.800 335.496,72.800 335.219 C 72.800 334.942,73.295 335.229,73.900 335.858 C 76.189 338.234,79.049 338.429,87.600 336.790 C 88.810 336.558,90.700 336.205,91.800 336.006 C 94.135 335.582,96.673 335.027,99.200 334.389 C 100.190 334.139,101.676 333.840,102.503 333.725 C 103.329 333.610,104.105 333.355,104.226 333.158 C 104.348 332.961,104.966 332.800,105.600 332.800 C 106.234 332.800,106.864 332.620,107.000 332.400 C 107.136 332.180,107.629 332.000,108.095 332.000 C 108.562 332.000,109.496 331.821,110.172 331.602 C 122.152 327.721,129.790 325.006,133.800 323.203 C 135.120 322.609,137.006 321.781,137.990 321.362 C 159.343 312.276,185.036 294.437,202.746 276.400 C 211.704 267.277,224.651 251.460,227.667 245.954 C 228.033 245.284,228.618 244.422,228.967 244.037 C 229.315 243.652,229.600 243.204,229.600 243.041 C 229.600 242.878,230.140 241.959,230.800 241.000 C 231.460 240.041,232.000 239.136,232.000 238.990 C 232.000 238.843,232.344 238.241,232.764 237.650 C 234.687 234.949,242.400 220.041,242.400 219.024 C 242.400 218.883,237.729 218.792,232.020 218.820 C 226.310 218.848,221.405 218.737,221.120 218.572 C 220.834 218.407,220.729 218.414,220.886 218.588 M264.329 268.900 C 264.019 269.395,262.608 272.140,261.194 275.000 C 259.780 277.860,258.528 280.290,258.411 280.400 C 258.295 280.510,257.958 281.030,257.662 281.555 C 257.367 282.080,256.798 283.091,256.399 283.802 C 256.000 284.512,254.937 286.306,254.037 287.788 C 253.137 289.269,252.400 290.569,252.400 290.675 C 252.400 290.871,245.519 301.012,243.626 303.606 C 237.690 311.741,224.740 325.922,216.000 333.857 C 209.870 339.422,191.096 353.200,189.643 353.200 C 189.436 353.200,189.207 353.349,189.133 353.532 C 189.060 353.715,187.740 354.551,186.200 355.389 C 184.660 356.228,181.845 357.789,179.945 358.857 C 178.045 359.926,176.397 360.800,176.283 360.800 C 176.169 360.800,173.853 361.853,171.138 363.140 C 168.422 364.427,163.770 366.421,160.800 367.570 C 157.830 368.720,155.087 369.827,154.705 370.030 C 154.323 370.234,153.736 370.400,153.400 370.400 C 153.064 370.400,152.477 370.565,152.095 370.767 C 151.713 370.968,150.027 371.550,148.348 372.059 C 145.583 372.897,144.390 374.000,146.248 374.000 C 146.558 374.000,147.123 374.166,147.505 374.369 C 147.887 374.572,149.730 375.309,151.600 376.007 C 153.470 376.705,155.405 377.439,155.900 377.638 C 158.175 378.553,158.713 378.740,160.400 379.201 C 161.390 379.471,162.650 379.831,163.200 380.000 C 163.750 380.169,165.010 380.529,166.000 380.799 C 166.990 381.070,168.160 381.430,168.600 381.600 C 169.639 382.001,172.044 382.643,174.800 383.255 C 176.010 383.524,177.232 384.025,177.516 384.370 C 177.861 384.789,178.126 384.854,178.316 384.566 C 178.472 384.329,180.040 383.174,181.800 381.998 C 183.560 380.823,185.060 379.712,185.133 379.530 C 185.207 379.349,185.477 379.200,185.733 379.199 C 185.990 379.199,186.830 378.659,187.600 378.000 C 188.370 377.341,189.225 376.801,189.500 376.801 C 189.775 376.800,190.000 376.659,190.000 376.486 C 190.000 376.314,190.545 375.851,191.211 375.457 C 191.877 375.064,192.824 374.350,193.315 373.871 C 193.806 373.392,195.285 372.190,196.602 371.200 C 206.074 364.080,220.568 350.205,227.941 341.200 C 229.833 338.890,231.484 336.910,231.611 336.800 C 233.904 334.811,250.000 311.477,250.000 310.141 C 250.000 310.033,250.519 309.189,251.154 308.267 C 252.237 306.693,260.800 289.642,260.800 289.060 C 260.800 288.912,261.178 287.938,261.640 286.896 C 262.102 285.853,262.622 284.640,262.796 284.200 C 262.969 283.760,263.645 282.050,264.296 280.400 C 264.948 278.750,265.974 275.780,266.576 273.800 C 267.179 271.820,267.836 269.887,268.036 269.505 C 268.683 268.271,268.433 268.000,266.646 268.000 C 265.261 268.000,264.774 268.189,264.329 268.900 M219.505 389.483 C 220.002 389.579,220.722 389.575,221.105 389.475 C 221.487 389.375,221.080 389.296,220.200 389.301 C 219.320 389.305,219.007 389.387,219.505 389.483 " stroke="none" fill="#046eef" fill-rule="evenodd"></path><path id="path3" d="M171.000 79.893 C 168.411 80.541,153.115 100.134,148.120 109.200 C 147.454 110.410,145.883 113.164,144.630 115.321 C 143.377 117.477,141.488 121.077,140.432 123.321 C 139.376 125.564,137.767 128.971,136.856 130.892 C 135.945 132.812,135.200 134.570,135.200 134.797 C 135.200 135.025,135.034 135.523,134.832 135.905 C 134.630 136.287,134.072 137.680,133.593 139.000 C 132.533 141.920,132.232 142.708,131.680 144.000 C 131.306 144.875,130.746 146.548,129.191 151.428 C 128.976 152.104,128.800 153.038,128.800 153.505 C 128.800 153.971,128.620 154.464,128.400 154.600 C 128.180 154.736,128.000 155.366,128.000 156.000 C 128.000 156.634,127.820 157.264,127.600 157.400 C 127.380 157.536,127.200 158.166,127.200 158.800 C 127.200 159.434,127.039 160.052,126.842 160.174 C 126.645 160.295,126.383 161.161,126.259 162.097 C 126.134 163.034,125.947 164.250,125.843 164.800 C 125.319 167.554,124.735 171.191,124.557 172.800 C 124.448 173.790,124.196 174.960,123.998 175.400 C 123.533 176.436,123.165 179.688,123.005 184.200 C 122.935 186.180,122.751 188.115,122.596 188.500 C 122.383 189.030,122.513 189.200,123.134 189.200 C 123.584 189.200,124.064 189.380,124.200 189.600 C 124.336 189.820,124.876 190.000,125.400 190.000 C 125.924 190.000,126.464 190.180,126.600 190.400 C 126.736 190.620,127.276 190.800,127.800 190.800 C 128.324 190.800,128.849 190.956,128.968 191.147 C 129.086 191.339,129.951 191.616,130.891 191.764 C 134.140 192.274,134.896 192.808,134.625 194.400 C 133.313 202.111,133.388 204.000,135.008 204.000 C 135.553 204.000,136.000 204.180,136.000 204.400 C 136.000 204.620,136.799 204.800,137.776 204.800 C 138.753 204.800,139.664 204.980,139.800 205.200 C 139.936 205.420,140.811 205.600,141.744 205.600 C 142.677 205.600,143.611 205.764,143.820 205.965 C 145.120 207.216,146.182 206.632,147.029 204.200 C 147.909 201.672,148.264 200.710,148.800 199.400 C 148.979 198.960,149.608 197.340,150.197 195.800 C 150.786 194.260,151.522 192.415,151.834 191.700 C 152.145 190.985,152.651 189.815,152.958 189.100 C 155.208 183.856,160.009 174.115,161.937 170.882 C 162.632 169.718,163.200 168.706,163.200 168.635 C 163.200 168.432,168.816 159.129,169.681 157.900 C 170.734 156.402,169.849 156.496,168.737 158.000 C 167.836 159.218,163.644 159.841,163.030 158.848 C 162.910 158.654,161.280 158.368,159.407 158.212 C 157.535 158.056,155.902 157.765,155.778 157.564 C 155.654 157.364,154.764 157.200,153.800 157.200 C 152.836 157.200,151.936 157.020,151.800 156.800 C 151.664 156.580,150.933 156.400,150.176 156.400 C 148.773 156.400,148.167 154.868,149.140 153.780 C 149.327 153.571,149.783 152.616,150.154 151.657 C 151.594 147.934,155.903 139.546,159.122 134.200 C 160.977 131.120,162.855 127.971,163.296 127.202 C 163.736 126.433,164.883 124.723,165.843 123.402 C 166.804 122.081,168.958 119.110,170.631 116.800 C 172.303 114.490,174.421 111.706,175.336 110.614 C 177.065 108.551,179.653 105.547,180.000 105.200 C 180.110 105.090,181.098 103.920,182.195 102.600 C 183.293 101.280,186.533 97.830,189.395 94.933 C 196.373 87.871,196.550 87.600,194.200 87.600 C 193.676 87.600,193.136 87.420,193.000 87.200 C 192.864 86.980,192.324 86.800,191.800 86.800 C 191.276 86.800,190.736 86.620,190.600 86.400 C 190.464 86.180,190.039 86.000,189.656 86.000 C 188.781 86.000,186.807 85.101,186.803 84.700 C 186.801 84.535,186.260 84.400,185.600 84.400 C 184.940 84.400,184.400 84.220,184.400 84.000 C 184.400 83.780,183.860 83.600,183.200 83.600 C 182.540 83.600,182.000 83.420,182.000 83.200 C 182.000 82.980,181.561 82.800,181.024 82.800 C 180.487 82.800,179.936 82.620,179.800 82.400 C 179.664 82.180,179.124 82.000,178.600 82.000 C 178.076 82.000,177.536 81.820,177.400 81.600 C 177.264 81.380,176.724 81.200,176.200 81.200 C 175.676 81.200,175.136 81.020,175.000 80.800 C 174.864 80.580,174.324 80.400,173.800 80.400 C 173.276 80.400,172.736 80.220,172.600 80.000 C 172.340 79.579,172.273 79.574,171.000 79.893 M170.998 155.202 C 170.598 155.644,170.366 156.099,170.482 156.215 C 170.597 156.330,170.990 155.969,171.355 155.412 C 172.152 154.196,171.993 154.102,170.998 155.202 M253.809 193.586 C 253.714 193.739,253.349 194.750,252.998 195.832 C 252.383 197.728,252.201 198.214,251.290 200.400 C 251.061 200.950,250.392 202.660,249.803 204.200 C 249.214 205.740,248.478 207.585,248.166 208.300 C 247.855 209.015,247.349 210.185,247.042 210.900 C 244.792 216.144,239.991 225.885,238.063 229.118 C 237.368 230.282,236.800 231.294,236.800 231.365 C 236.800 231.568,231.184 240.871,230.319 242.100 C 229.266 243.598,230.151 243.504,231.263 242.000 C 232.156 240.792,235.578 240.193,236.164 241.142 C 236.280 241.330,238.046 241.609,240.088 241.763 C 242.129 241.917,243.971 242.213,244.180 242.421 C 244.389 242.630,245.323 242.800,246.256 242.800 C 247.189 242.800,248.064 242.980,248.200 243.200 C 248.336 243.420,249.067 243.600,249.824 243.600 C 251.227 243.600,251.833 245.132,250.860 246.220 C 250.673 246.429,250.217 247.384,249.846 248.343 C 248.406 252.066,244.097 260.454,240.878 265.800 C 239.023 268.880,237.145 272.029,236.704 272.798 C 236.264 273.567,235.117 275.277,234.157 276.598 C 233.196 277.919,231.042 280.890,229.369 283.200 C 227.697 285.510,225.579 288.294,224.664 289.386 C 222.935 291.449,220.347 294.453,220.000 294.800 C 219.890 294.910,218.902 296.080,217.805 297.400 C 216.707 298.720,213.467 302.170,210.605 305.067 C 203.724 312.031,203.473 312.400,205.611 312.400 C 206.032 312.400,207.017 312.760,207.800 313.200 C 208.583 313.640,209.568 314.000,209.989 314.000 C 210.409 314.000,210.864 314.180,211.000 314.400 C 211.136 314.620,211.687 314.800,212.224 314.800 C 212.761 314.800,213.200 314.980,213.200 315.200 C 213.200 315.420,213.740 315.600,214.400 315.600 C 215.060 315.600,215.600 315.780,215.600 316.000 C 215.600 316.220,216.140 316.400,216.800 316.400 C 217.460 316.400,218.000 316.580,218.000 316.800 C 218.000 317.020,218.439 317.200,218.976 317.200 C 219.513 317.200,220.064 317.380,220.200 317.600 C 220.336 317.820,220.876 318.000,221.400 318.000 C 221.924 318.000,222.464 318.180,222.600 318.400 C 222.736 318.620,223.276 318.800,223.800 318.800 C 224.324 318.800,224.864 318.980,225.000 319.200 C 225.136 319.420,225.676 319.600,226.200 319.600 C 226.724 319.600,227.265 319.781,227.402 320.003 C 228.613 321.962,235.049 315.231,244.045 302.600 C 248.822 295.893,249.746 294.499,252.066 290.509 C 253.188 288.579,254.634 286.100,255.279 285.000 C 257.182 281.753,264.800 265.916,264.800 265.206 C 264.800 264.977,264.966 264.477,265.168 264.095 C 265.370 263.713,265.928 262.320,266.407 261.000 C 267.261 258.647,267.624 257.705,268.374 255.900 C 268.700 255.113,269.302 253.302,270.809 248.572 C 271.024 247.896,271.200 246.962,271.200 246.495 C 271.200 246.029,271.380 245.536,271.600 245.400 C 271.820 245.264,272.000 244.634,272.000 244.000 C 272.000 243.366,272.180 242.736,272.400 242.600 C 272.620 242.464,272.800 241.834,272.800 241.200 C 272.800 240.566,272.961 239.948,273.158 239.826 C 273.355 239.705,273.617 238.839,273.741 237.903 C 273.866 236.966,274.053 235.750,274.157 235.200 C 274.681 232.446,275.265 228.809,275.443 227.200 C 275.552 226.210,275.804 225.040,276.002 224.600 C 276.467 223.564,276.835 220.312,276.995 215.800 C 277.065 213.820,277.249 211.885,277.404 211.500 C 277.617 210.970,277.487 210.800,276.866 210.800 C 276.416 210.800,275.936 210.620,275.800 210.400 C 275.664 210.180,275.124 210.000,274.600 210.000 C 274.076 210.000,273.536 209.820,273.400 209.600 C 273.264 209.380,272.724 209.200,272.200 209.200 C 271.676 209.200,271.151 209.044,271.032 208.853 C 270.914 208.661,270.049 208.384,269.109 208.236 C 265.860 207.726,265.104 207.192,265.375 205.600 C 266.687 197.889,266.612 196.000,264.992 196.000 C 264.447 196.000,264.000 195.820,264.000 195.600 C 264.000 195.380,263.201 195.200,262.224 195.200 C 261.247 195.200,260.336 195.020,260.200 194.800 C 260.064 194.580,259.164 194.400,258.200 194.400 C 257.236 194.400,256.349 194.241,256.230 194.048 C 255.946 193.590,254.032 193.224,253.809 193.586 M228.606 244.688 L 227.904 245.800 228.830 244.911 C 229.339 244.422,229.655 243.922,229.532 243.799 C 229.409 243.676,228.992 244.076,228.606 244.688 " stroke="none" fill="#db7a8c" fill-rule="evenodd"></path><path id="path4" d="M264.805 129.100 C 264.819 145.176,261.446 167.580,256.359 185.200 C 255.675 187.571,255.170 189.347,254.824 190.600 C 254.641 191.260,254.363 192.113,254.205 192.497 C 254.003 192.985,254.139 193.263,254.658 193.426 C 255.066 193.554,255.713 193.825,256.095 194.029 C 256.477 194.233,257.501 194.400,258.371 194.400 C 259.241 194.400,260.064 194.580,260.200 194.800 C 260.336 195.020,261.247 195.200,262.224 195.200 C 263.201 195.200,264.000 195.380,264.000 195.600 C 264.000 195.820,264.447 196.000,264.992 196.000 C 266.612 196.000,266.687 197.889,265.375 205.600 C 265.104 207.192,265.860 207.726,269.109 208.236 C 270.049 208.384,270.914 208.661,271.032 208.853 C 271.151 209.044,271.676 209.200,272.200 209.200 C 272.724 209.200,273.264 209.380,273.400 209.600 C 273.536 209.820,274.076 210.000,274.600 210.000 C 275.124 210.000,275.664 210.180,275.800 210.400 C 275.936 210.620,276.416 210.800,276.866 210.800 C 277.489 210.800,277.617 210.968,277.398 211.500 C 277.052 212.344,277.045 212.467,277.185 215.000 L 277.295 217.000 277.613 215.000 C 279.436 203.529,278.994 177.557,276.772 165.600 C 276.548 164.390,276.201 162.410,276.002 161.200 C 274.952 154.816,274.937 154.750,272.800 146.600 C 270.737 138.731,270.350 137.495,267.986 131.200 C 267.284 129.330,266.618 127.392,266.507 126.894 C 266.395 126.396,266.146 125.890,265.952 125.770 C 265.759 125.651,265.600 125.203,265.600 124.776 C 265.600 124.349,265.420 124.000,265.200 124.000 C 264.954 124.000,264.802 125.964,264.805 129.100 M124.860 168.867 C 124.827 169.454,124.696 170.264,124.570 170.667 C 124.352 171.360,124.365 171.361,124.795 170.690 C 125.046 170.299,125.177 169.489,125.086 168.890 L 124.920 167.800 124.860 168.867 M124.059 173.000 C 124.020 173.440,123.877 174.250,123.740 174.800 C 123.548 175.570,123.602 175.697,123.975 175.351 C 124.244 175.101,124.385 174.303,124.293 173.551 C 124.202 172.808,124.097 172.560,124.059 173.000 M123.264 177.650 C 123.229 178.008,123.098 178.908,122.973 179.650 C 122.788 180.755,122.829 180.871,123.198 180.291 C 123.446 179.902,123.577 179.002,123.489 178.291 C 123.400 177.581,123.299 177.293,123.264 177.650 M122.289 185.600 C 121.382 194.445,121.199 197.973,121.207 206.400 C 121.217 216.605,122.139 228.261,123.596 236.600 C 124.058 239.240,124.593 242.300,124.787 243.400 C 124.980 244.500,125.319 246.120,125.540 247.000 C 125.941 248.598,128.171 257.130,128.781 259.400 C 129.201 260.962,131.135 266.770,131.578 267.800 C 131.767 268.240,132.314 269.680,132.793 271.000 C 133.272 272.320,133.830 273.713,134.032 274.095 C 134.234 274.477,134.400 275.062,134.400 275.395 C 134.400 275.728,134.580 276.000,134.800 276.000 C 135.046 276.000,135.198 274.036,135.195 270.900 C 135.188 262.887,136.278 250.947,138.042 239.702 C 138.930 234.044,141.510 221.844,142.379 219.200 C 142.559 218.650,142.929 217.390,143.200 216.400 C 143.471 215.410,143.831 214.150,144.000 213.600 C 144.169 213.050,144.529 211.790,144.799 210.800 C 145.070 209.810,145.472 208.612,145.693 208.138 C 146.178 207.097,145.820 206.400,144.800 206.400 C 144.386 206.400,143.936 206.220,143.800 206.000 C 143.664 205.780,142.764 205.600,141.800 205.600 C 140.836 205.600,139.936 205.420,139.800 205.200 C 139.664 204.980,138.753 204.800,137.776 204.800 C 136.799 204.800,136.000 204.620,136.000 204.400 C 136.000 204.180,135.553 204.000,135.008 204.000 C 133.388 204.000,133.313 202.111,134.625 194.400 C 134.896 192.808,134.140 192.274,130.891 191.764 C 129.951 191.616,129.086 191.339,128.968 191.147 C 128.849 190.956,128.324 190.800,127.800 190.800 C 127.276 190.800,126.736 190.620,126.600 190.400 C 126.464 190.180,125.924 190.000,125.400 190.000 C 124.876 190.000,124.336 189.820,124.200 189.600 C 124.064 189.380,123.603 189.200,123.176 189.200 C 122.309 189.200,122.250 189.047,122.738 188.074 C 122.924 187.703,122.959 186.410,122.816 185.200 L 122.556 183.000 122.289 185.600 M276.673 219.753 C 276.523 220.145,276.418 221.036,276.440 221.733 C 276.479 222.967,276.490 222.959,276.849 221.427 C 277.245 219.737,277.124 218.579,276.673 219.753 M275.867 224.667 C 275.720 224.813,275.618 225.578,275.640 226.367 L 275.680 227.800 276.046 226.240 C 276.415 224.668,276.359 224.175,275.867 224.667 M275.049 229.415 C 274.912 229.773,274.821 230.546,274.846 231.133 C 274.880 231.932,274.970 231.798,275.204 230.600 C 275.535 228.900,275.462 228.340,275.049 229.415 " stroke="none" fill="#dca087" fill-rule="evenodd"></path></g></svg>